#VRML V2.0 utf8
# 3D model generated by easyeda2kicad.py (https://github.com/uPesy/easyeda2kicad.py)

Shape{
    appearance Appearance {
        material  Material 	{
            diffuseColor 1.0 1.0 1.0
            specularColor 0.5019607843137255 0.5019607843137255 0.5019607843137255
            ambientIntensity 1.0
            transparency 0.0
            shininess 0.5
        }
    }
    geometry IndexedFaceSet {
        ccw TRUE
        solid FALSE
        coord DEF co Coordinate {
            point [
                -3.4881 0.1196 0.0394, -3.4881 0.0383 0.0394, -3.5433 0.1396 0.0394, -3.5433 0.0195 0.0394, -3.3657 -0.4107 0.0394, -3.3678 -0.43 0.0394, -3.5135 -0.3681 0.0394, -3.5433 -0.3262 0.0394, -3.3465 -0.3262 0.0394, -3.5115 -0.3646 0.0394, -3.5331 -0.3646 0.0394, -3.5394 -0.378 0.0394, -3.5433 -0.3924 0.0394, -2.9957 -1.1673 0.0394, -3.5433 -1.1673 0.0394, -3.5433 -0.6286 0.0394, -3.3465 -0.6286 0.0394, -3.3465 -0.6022 0.0394, -2.9957 0.4862 0.0394, -3.4545 -0.2301 0.0394, -3.4545 -0.2997 0.0394, -3.5217 -0.2997 0.0394, -3.5433 -0.2205 0.0394, -3.5433 -0.1821 0.0394, -3.5217 -0.2205 0.0394, -3.3465 -0.1821 0.0394, -3.3465 -0.2253 0.0394, -3.5217 -0.6022 0.0394, -3.5217 -0.5278 0.0394, -3.3681 -0.2997 0.0394, -3.4329 -0.2997 0.0394, -3.3681 -0.2253 0.0394, -3.4329 -0.2301 0.0394, -3.3732 -0.4448 0.0394, -3.3823 -0.4584 0.0394, -3.3954 -0.4703 0.0394, -3.447 -0.4846 0.0394, -3.4683 -0.4826 0.0394, -3.4852 -0.4773 0.0394, -3.522 -0.4334 0.0394, -3.5241 -0.4151 0.0394, -3.5168 -0.4478 0.0394, -3.5086 -0.4599 0.0394, -3.4989 -0.4691 0.0394, -3.5212 -0.389 0.0394, -3.4106 -0.4784 0.0394, -3.4317 -0.4837 0.0394, -3.3688 -0.3867 0.0394, -3.3783 -0.3646 0.0394, -3.3519 -0.3646 0.0394, -3.3457 -0.3873 0.0394, -3.3495 -0.0981 0.0394, -3.3576 -0.0751 0.0394, -3.3465 0.0651 0.0394, -3.3719 -0.0537 0.0394, -3.3465 -0.1266 0.0394, -3.4206 -0.5082 0.0394, -3.3983 -0.5006 0.0394, -3.3796 -0.4889 0.0394, -3.3626 -0.471 0.0394, -3.5433 -0.1286 0.0394, -3.5433 -0.0093 0.0394, -3.5411 -0.1036 0.0394, -3.5342 -0.081 0.0394, -3.5433 0.6831 0.0394, -3.2283 0.6831 0.0394, -3.5433 0.1684 0.0394, -3.2283 0.4862 0.0394, -3.3465 0.0916 0.0394, -3.5104 -0.493 0.0394, -3.5252 -0.4794 0.0394, -3.5433 -0.5278 0.0394, -3.5358 -0.4638 0.0394, -3.5433 -0.4425 0.0394, -3.4893 -0.0335 0.0394, -3.5066 -0.0445 0.0394, -3.5222 -0.0606 0.0394, -3.3721 -0.0535 0.0394, -3.3876 -0.0395 0.0394, -3.4048 -0.0303 0.0394, -3.3519 -0.4523 0.0394, -3.3456 -0.4303 0.0394, -3.3441 -0.4109 0.0394, -3.4917 -0.5034 0.0394, -3.4705 -0.5093 0.0394, -3.4486 -0.511 0.0394, -3.4243 -0.025 0.0394, -3.4424 -0.0237 0.0394, -3.4687 -0.0264 0.0394, -3.4449 -0.1831 2.4016, -3.5433 -0.1831 2.4016, -3.4449 -1.0689 2.4016, -3.5433 -1.1673 2.4016, 3.4449 -1.0689 2.4016, 3.5433 -1.1673 2.4016, 3.4449 -0.1831 2.4016, 3.5433 -0.1831 2.4016, 3.4449 0.2106 2.4016, 3.5433 0.2106 2.4016, 3.4449 0.5846 2.4016, 3.5433 0.6831 2.4016, 2.7559 0.5846 2.4016, 2.7559 0.6831 2.4016, -2.5161 0.6831 0.0394, -2.2083 0.6831 0.0394, -2.5161 -1.1673 0.0394, -2.2083 -1.1673 0.0394, -1.7287 0.6831 0.0394, -1.4209 0.6831 0.0394, -1.7287 -1.1673 0.0394, -1.4209 -1.1673 0.0394, 0.9413 -1.1673 0.0394, 0.6335 -1.1673 0.0394, 0.9413 0.6831 0.0394, 0.6335 0.6831 0.0394, 1.7287 -1.1673 0.0394, 1.4209 -1.1673 0.0394, 1.7287 0.6831 0.0394, 1.4209 0.6831 0.0394, 2.5161 -1.1673 0.0394, 2.2083 -1.1673 0.0394, 2.5161 0.6831 0.0394, 2.2083 0.6831 0.0394, 0.1539 -1.1673 0.0394, -0.1539 -1.1673 0.0394, 0.1539 0.6831 0.0394, -0.1539 0.6831 0.0394, -2.9134 0.4862 1.4567, -2.9134 0.6831 1.4567, -2.9134 0.4862 0.8268, -2.9134 0.6831 0.1575, -2.9134 0.4862 0.1575, 2.9134 0.4862 0.1575, 2.9134 0.6831 0.1575, 2.9134 0.4862 0.8268, 2.9134 0.6831 1.4567, 2.9134 0.4862 1.4567, -0.9413 0.6831 0.0394, -0.6335 0.6831 0.0394, -0.9413 -1.1673 0.0394, -0.6335 -1.1673 0.0394, 2.7559 0.4862 0.8268, 3.2283 0.4862 0.8268, 3.3465 0.4862 0.8268, 3.2283 0.4862 1.4567, 3.3465 0.4862 2.3032, 2.7559 0.4862 2.3032, -3.5433 0.6831 2.4016, -3.5433 -0.3924 0.0433, -3.5433 -0.4425 0.0433, -3.5433 -0.5278 0.0433, -3.5433 -0.6286 0.0433, -3.5433 0.1396 0.0433, -3.5433 0.1684 0.0433, -3.5433 -0.3262 0.0433, -3.5433 0.166 1.622, -3.5433 0.181 1.6314, -3.5433 0.0195 0.0433, -3.5433 -0.0093 0.0433, -3.5433 0.2106 1.6929, -3.5433 0.2106 2.4016, -3.5433 -0.1831 1.6929, -3.5433 -0.1811 1.6754, -3.5433 -0.1753 1.6588, -3.5433 -0.1659 1.6438, -3.5433 0.1934 1.6438, -3.5433 0.2028 1.6588, -3.5433 0.2087 1.6754, -3.5433 -0.1286 0.0433, -3.5433 -0.1821 0.0433, -3.5433 -0.1043 1.6142, -3.5433 0.1319 1.6142, -3.5433 0.1494 1.6161, -3.5433 -0.1534 1.6314, -3.5433 -0.1385 1.622, -3.5433 -0.1219 1.6161, -3.5433 -0.2205 0.0433, -2.1654 -1.1673 0.1575, -1.7717 -1.1673 0.1575, -2.5591 -1.1673 0.1575, -2.9528 -1.1673 0.1575, -0.9843 -1.1673 0.1575, -0.5906 -1.1673 0.1575, -0.1969 -1.1673 0.1575, -1.378 -1.1673 0.1575, 0.1969 -1.1673 0.1575, 0.5906 -1.1673 0.1575, 0.9843 -1.1673 0.1575, 1.378 -1.1673 0.1575, 1.7717 -1.1673 0.1575, 2.1654 -1.1673 0.1575, 2.9957 -1.1673 0.0394, 3.5433 -1.1673 0.0394, 2.9528 -1.1673 0.1575, 2.5591 -1.1673 0.1575, 3.5433 0.2087 1.6754, 3.5433 0.2028 1.6588, 3.5433 0.6831 0.0394, 3.5433 0.1934 1.6438, 3.5433 0.2106 1.6929, 3.5433 -0.1811 1.6754, 3.5433 -0.1831 1.6929, 3.5433 0.181 1.6314, 3.5433 0.166 1.622, 3.5433 0.1494 1.6161, 3.5433 -0.1385 1.622, 3.5433 -0.1534 1.6314, 3.5433 -0.1659 1.6438, 3.5433 -0.1753 1.6588, 3.5433 0.1319 1.6142, 3.5433 -0.1043 1.6142, 3.5433 -0.1219 1.6161, -3.2283 0.6831 1.4567, -2.7559 0.6831 2.4016, -2.7559 0.6831 0.8268, -2.5591 0.6831 0.1575, 2.5591 0.6831 0.1575, 1.5748 0.6831 0.8268, 2.3622 0.6831 0.8268, 2.1654 0.6831 0.1575, -1.5748 0.6831 0.8268, -1.7717 0.6831 0.1575, -2.3622 0.6831 0.8268, -2.1654 0.6831 0.1575, 3.2283 0.6831 0.0394, 3.2283 0.6831 1.4567, 2.7559 0.6831 0.8268, 0.9843 0.6831 0.1575, -0.7874 0.6831 0.8268, -0.9843 0.6831 0.1575, -1.378 0.6831 0.1575, 0.0 0.6831 0.8268, 0.7874 0.6831 0.8268, 0.5906 0.6831 0.1575, 1.7717 0.6831 0.1575, 1.378 0.6831 0.1575, 0.1969 0.6831 0.1575, -0.1969 0.6831 0.1575, -0.5906 0.6831 0.1575, -2.7559 0.5846 2.4016, -3.4449 0.5846 2.4016, -3.4449 0.2106 2.4016, 3.2283 0.4862 0.0394, 2.9957 0.4862 0.0394, -3.3465 0.4862 0.8268, -3.2283 0.4862 0.8268, -3.2283 0.4862 1.4567, -2.7559 0.4862 0.8268, -2.7559 0.4862 2.3032, -3.3465 0.4862 2.3032, 3.3465 0.181 1.6314, 3.3465 0.1934 1.6438, 3.3465 0.2028 1.6588, 3.3465 0.2087 1.6754, 3.3465 0.2106 1.6929, 3.3465 0.2106 2.3032, 3.3465 -0.1811 1.6754, 3.3465 -0.9705 0.8268, 3.3465 -0.1831 1.6929, 3.3465 -0.9705 2.3032, 3.3465 -0.1831 2.3032, 3.3465 -0.1753 1.6588, 3.3465 -0.1659 1.6438, 3.3465 -0.1534 1.6314, 3.3465 -0.1385 1.622, 3.3465 -0.1219 1.6161, 3.3465 0.3878 0.8268, 3.3465 -0.1043 1.6142, 3.3465 0.1319 1.6142, 3.3465 0.1494 1.6161, 3.3465 0.166 1.622, 3.1004 -0.9705 0.8268, 2.3622 -0.9705 0.8268, 1.5748 -0.9705 0.8268, 0.7874 -0.9705 0.8268, -3.3465 -0.9705 2.3032, 0.0 -0.9705 0.8268, -0.7874 -0.9705 0.8268, -1.5748 -0.9705 0.8268, -2.3622 -0.9705 0.8268, -3.3465 -0.9705 0.8268, -3.3465 0.1934 1.6438, -3.3465 0.2028 1.6588, -3.3465 0.2087 1.6754, -3.3465 -0.1659 1.6438, -3.3465 -0.1534 1.6314, -3.3465 -0.1385 1.622, -3.3465 0.2106 1.6929, -3.3465 0.2106 2.3032, -3.3465 0.181 1.6314, -3.3465 0.166 1.622, -3.3465 0.3878 0.8268, -3.3465 0.1494 1.6161, -3.3465 -0.1753 1.6588, -3.3465 -0.1811 1.6754, -3.3465 -0.1831 1.6929, -3.3465 -0.1831 2.3032, -3.3465 0.1319 1.6142, -3.3465 -0.1043 1.6142, -3.3465 -0.1219 1.6161, 2.0636 0.0196 0.8268, 2.0669 -0.0059 0.8268, 2.3622 0.3878 0.8268, 1.2762 0.0196 0.8268, 1.2795 -0.0059 0.8268, 1.5748 0.3878 0.8268, -1.086 0.0196 0.8268, -1.0827 -0.0059 0.8268, -0.7874 0.3878 0.8268, -1.8734 0.0196 0.8268, -1.8701 -0.0059 0.8268, -1.5748 0.3878 0.8268, -2.6608 0.0196 0.8268, -2.6575 -0.0059 0.8268, -2.3622 0.3878 0.8268, 3.1004 0.4862 0.8268, 3.1004 0.3878 0.8268, -2.6608 -0.0314 0.8268, -2.851 -0.0314 0.8268, -2.8543 -0.0059 0.8268, -2.851 0.0196 0.8268, -2.8411 0.0433 0.8268, -2.8255 0.0637 0.8268, -2.8051 0.0793 0.8268, -2.7814 0.0892 0.8268, -2.6707 -0.0551 0.8268, -2.6863 -0.0755 0.8268, -2.7067 -0.0911 0.8268, -2.8051 -0.0911 0.8268, -2.8255 -0.0755 0.8268, -2.8411 -0.0551 0.8268, -2.7559 0.0925 0.8268, -2.7304 0.0892 0.8268, -2.7067 0.0793 0.8268, -2.6863 0.0637 0.8268, -2.6707 0.0433 0.8268, -2.7304 -0.101 0.8268, -2.7559 -0.1043 0.8268, -2.7814 -0.101 0.8268, -2.0669 -0.0059 0.8268, -2.0636 0.0196 0.8268, -1.8734 -0.0314 0.8268, -2.0636 -0.0314 0.8268, -2.0537 0.0433 0.8268, -2.0381 0.0637 0.8268, -2.0177 0.0793 0.8268, -1.9193 0.0793 0.8268, -1.8989 0.0637 0.8268, -1.8833 0.0433 0.8268, -1.8833 -0.0551 0.8268, -1.8989 -0.0755 0.8268, -1.9193 -0.0911 0.8268, -2.0177 -0.0911 0.8268, -2.0381 -0.0755 0.8268, -2.0537 -0.0551 0.8268, -1.994 0.0892 0.8268, -1.9685 0.0925 0.8268, -1.943 0.0892 0.8268, -1.943 -0.101 0.8268, -1.9685 -0.1043 0.8268, -1.994 -0.101 0.8268, -1.2795 -0.0059 0.8268, -1.2762 0.0196 0.8268, -1.086 -0.0314 0.8268, -1.0959 -0.0551 0.8268, -1.1115 -0.0755 0.8268, -1.1319 -0.0911 0.8268, -1.2762 -0.0314 0.8268, -1.2663 0.0433 0.8268, -1.2507 0.0637 0.8268, -1.2303 0.0793 0.8268, -1.2303 -0.0911 0.8268, -1.2507 -0.0755 0.8268, -1.2663 -0.0551 0.8268, -1.1319 0.0793 0.8268, -1.1115 0.0637 0.8268, -1.0959 0.0433 0.8268, -1.2066 0.0892 0.8268, -1.1811 0.0925 0.8268, -1.1556 0.0892 0.8268, -1.1556 -0.101 0.8268, -1.1811 -0.1043 0.8268, -1.2066 -0.101 0.8268, -0.4921 -0.0059 0.8268, -0.4888 0.0196 0.8268, -0.4789 0.0433 0.8268, -0.4633 0.0637 0.8268, -0.2953 -0.0059 0.8268, -0.2986 -0.0314 0.8268, -0.3085 -0.0551 0.8268, -0.3241 -0.0755 0.8268, -0.4888 -0.0314 0.8268, -0.4429 0.0793 0.8268, -0.4192 0.0892 0.8268, 0.0 0.3878 0.8268, -0.3937 0.0925 0.8268, -0.3682 0.0892 0.8268, -0.3445 0.0793 0.8268, -0.3241 0.0637 0.8268, -0.3085 0.0433 0.8268, -0.2986 0.0196 0.8268, -0.4192 -0.101 0.8268, -0.4429 -0.0911 0.8268, -0.3445 -0.0911 0.8268, -0.3682 -0.101 0.8268, -0.3937 -0.1043 0.8268, -0.4633 -0.0755 0.8268, -0.4789 -0.0551 0.8268, 0.4633 0.0637 0.8268, 0.7874 0.3878 0.8268, 0.4429 0.0793 0.8268, 0.4192 0.0892 0.8268, 0.4789 0.0433 0.8268, 0.4888 0.0196 0.8268, 0.4921 -0.0059 0.8268, 0.2953 -0.0059 0.8268, 0.2986 0.0196 0.8268, 0.3085 0.0433 0.8268, 0.3241 0.0637 0.8268, 0.3445 0.0793 0.8268, 0.3682 0.0892 0.8268, 0.3937 0.0925 0.8268, 0.2986 -0.0314 0.8268, 0.4888 -0.0314 0.8268, 0.4789 -0.0551 0.8268, 0.4633 -0.0755 0.8268, 0.3682 -0.101 0.8268, 0.3445 -0.0911 0.8268, 0.4429 -0.0911 0.8268, 0.4192 -0.101 0.8268, 0.3937 -0.1043 0.8268, 0.3241 -0.0755 0.8268, 0.3085 -0.0551 0.8268, 1.0827 -0.0059 0.8268, 1.086 0.0196 0.8268, 1.2762 -0.0314 0.8268, 1.2663 -0.0551 0.8268, 1.2507 -0.0755 0.8268, 1.2303 -0.0911 0.8268, 1.086 -0.0314 0.8268, 1.0959 0.0433 0.8268, 1.1115 0.0637 0.8268, 1.1319 0.0793 0.8268, 1.1319 -0.0911 0.8268, 1.1115 -0.0755 0.8268, 1.0959 -0.0551 0.8268, 1.2303 0.0793 0.8268, 1.2507 0.0637 0.8268, 1.2663 0.0433 0.8268, 1.1556 0.0892 0.8268, 1.1811 0.0925 0.8268, 1.2066 0.0892 0.8268, 1.2066 -0.101 0.8268, 1.1811 -0.1043 0.8268, 1.1556 -0.101 0.8268, 1.8701 -0.0059 0.8268, 1.8734 0.0196 0.8268, 1.8734 -0.0314 0.8268, 1.943 -0.101 0.8268, 1.9193 -0.0911 0.8268, 1.8833 0.0433 0.8268, 1.8989 0.0637 0.8268, 1.9193 0.0793 0.8268, 2.0177 0.0793 0.8268, 2.0381 0.0637 0.8268, 2.0537 0.0433 0.8268, 2.0636 -0.0314 0.8268, 2.0537 -0.0551 0.8268, 2.0381 -0.0755 0.8268, 1.8989 -0.0755 0.8268, 1.8833 -0.0551 0.8268, 1.943 0.0892 0.8268, 1.9685 0.0925 0.8268, 1.994 0.0892 0.8268, 2.0177 -0.0911 0.8268, 1.994 -0.101 0.8268, 1.9685 -0.1043 0.8268, 2.6575 -0.0059 0.8268, 2.6608 0.0196 0.8268, 2.851 -0.0314 0.8268, 2.8543 -0.0059 0.8268, 2.851 0.0196 0.8268, 2.6608 -0.0314 0.8268, 2.6707 0.0433 0.8268, 2.6863 0.0637 0.8268, 2.7067 0.0793 0.8268, 2.7304 0.0892 0.8268, 2.8411 -0.0551 0.8268, 2.8255 -0.0755 0.8268, 2.8051 -0.0911 0.8268, 2.7067 -0.0911 0.8268, 2.6863 -0.0755 0.8268, 2.6707 -0.0551 0.8268, 2.7559 0.0925 0.8268, 2.7814 0.0892 0.8268, 2.8051 0.0793 0.8268, 2.8255 0.0637 0.8268, 2.8411 0.0433 0.8268, 2.7814 -0.101 0.8268, 2.7559 -0.1043 0.8268, 2.7304 -0.101 0.8268, -2.9528 0.4862 0.1575, 2.9528 0.4862 0.1575, -0.4888 -0.0314 0.1575, -0.4921 -0.0059 0.1575, -0.4429 0.0793 0.1575, -0.4633 0.0637 0.1575, -0.4789 0.0433 0.1575, -0.4888 0.0196 0.1575, -0.3085 -0.0551 0.1575, -0.3241 -0.0755 0.1575, -0.3445 -0.0911 0.1575, -0.2986 -0.0314 0.1575, -0.2953 -0.0059 0.1575, -0.2986 0.0196 0.1575, -0.3085 0.0433 0.1575, -0.3241 0.0637 0.1575, -0.3937 0.0925 0.1575, -0.4192 0.0892 0.1575, -0.4789 -0.0551 0.1575, -0.4633 -0.0755 0.1575, -0.4429 -0.0911 0.1575, -0.3445 0.0793 0.1575, -0.3682 0.0892 0.1575, -0.4192 -0.101 0.1575, -0.3937 -0.1043 0.1575, -0.3682 -0.101 0.1575, 2.6863 0.0637 0.1575, 2.6707 0.0433 0.1575, 2.6608 -0.0314 0.1575, 2.6575 -0.0059 0.1575, 2.6608 0.0196 0.1575, 2.851 0.0196 0.1575, 2.8411 0.0433 0.1575, 2.7559 0.0925 0.1575, 2.7304 0.0892 0.1575, 2.7067 0.0793 0.1575, 2.8255 0.0637 0.1575, 2.8051 0.0793 0.1575, 2.7814 0.0892 0.1575, 2.6707 -0.0551 0.1575, 2.6863 -0.0755 0.1575, 2.7067 -0.0911 0.1575, 2.8543 -0.0059 0.1575, 2.851 -0.0314 0.1575, 2.7304 -0.101 0.1575, 2.7559 -0.1043 0.1575, 2.7814 -0.101 0.1575, 2.8051 -0.0911 0.1575, 2.8255 -0.0755 0.1575, 2.8411 -0.0551 0.1575, -2.7067 0.0793 0.1575, -2.7304 0.0892 0.1575, -2.6608 0.0196 0.1575, -2.6707 0.0433 0.1575, -2.8255 0.0637 0.1575, -2.8411 0.0433 0.1575, -2.851 -0.0314 0.1575, -2.8543 -0.0059 0.1575, -2.851 0.0196 0.1575, -2.6863 0.0637 0.1575, -2.7559 0.0925 0.1575, -2.7814 0.0892 0.1575, -2.8051 0.0793 0.1575, -2.6575 -0.0059 0.1575, -2.6608 -0.0314 0.1575, -2.8411 -0.0551 0.1575, -2.8255 -0.0755 0.1575, -2.8051 -0.0911 0.1575, -2.7067 -0.0911 0.1575, -2.6863 -0.0755 0.1575, -2.6707 -0.0551 0.1575, -2.7814 -0.101 0.1575, -2.7559 -0.1043 0.1575, -2.7304 -0.101 0.1575, 0.2986 -0.0314 0.1575, 0.2953 -0.0059 0.1575, 0.4789 -0.0551 0.1575, 0.4633 -0.0755 0.1575, 0.4429 -0.0911 0.1575, 0.3085 -0.0551 0.1575, 0.3241 -0.0755 0.1575, 0.3445 -0.0911 0.1575, 0.4888 -0.0314 0.1575, 0.4921 -0.0059 0.1575, 0.4888 0.0196 0.1575, 0.4789 0.0433 0.1575, 0.4633 0.0637 0.1575, 0.4429 0.0793 0.1575, 0.3445 0.0793 0.1575, 0.3241 0.0637 0.1575, 0.4192 0.0892 0.1575, 0.3937 0.0925 0.1575, 0.3682 0.0892 0.1575, 0.3085 0.0433 0.1575, 0.2986 0.0196 0.1575, 0.3682 -0.101 0.1575, 0.3937 -0.1043 0.1575, 0.4192 -0.101 0.1575, 1.8734 -0.0314 0.1575, 1.8701 -0.0059 0.1575, 1.8734 0.0196 0.1575, 1.9193 0.0793 0.1575, 1.8989 0.0637 0.1575, 1.8833 0.0433 0.1575, 2.0177 0.0793 0.1575, 2.0381 0.0637 0.1575, 2.0537 0.0433 0.1575, 1.994 0.0892 0.1575, 1.9685 0.0925 0.1575, 1.943 0.0892 0.1575, 1.8833 -0.0551 0.1575, 1.8989 -0.0755 0.1575, 1.9193 -0.0911 0.1575, 1.994 -0.101 0.1575, 1.9685 -0.1043 0.1575, 1.943 -0.101 0.1575, 2.0177 -0.0911 0.1575, 2.0381 -0.0755 0.1575, 2.0537 -0.0551 0.1575, 2.0636 -0.0314 0.1575, 2.0669 -0.0059 0.1575, 2.0636 0.0196 0.1575, 1.1319 0.0793 0.1575, 1.1115 0.0637 0.1575, 1.0959 0.0433 0.1575, 1.2762 0.0196 0.1575, 1.2795 -0.0059 0.1575, 1.2762 -0.0314 0.1575, 1.2663 0.0433 0.1575, 1.2507 0.0637 0.1575, 1.2303 0.0793 0.1575, 1.086 0.0196 0.1575, 1.0827 -0.0059 0.1575, 1.086 -0.0314 0.1575, 1.0959 -0.0551 0.1575, 1.1115 -0.0755 0.1575, 1.2066 -0.101 0.1575, 1.2303 -0.0911 0.1575, 1.2066 0.0892 0.1575, 1.1811 0.0925 0.1575, 1.1556 0.0892 0.1575, 1.2507 -0.0755 0.1575, 1.2663 -0.0551 0.1575, 1.1319 -0.0911 0.1575, 1.1556 -0.101 0.1575, 1.1811 -0.1043 0.1575, -1.2303 0.0793 0.1575, -1.2507 0.0637 0.1575, -1.2663 0.0433 0.1575, -1.086 0.0196 0.1575, -1.0827 -0.0059 0.1575, -1.086 -0.0314 0.1575, -1.2762 0.0196 0.1575, -1.2795 -0.0059 0.1575, -1.2762 -0.0314 0.1575, -1.2663 -0.0551 0.1575, -1.2507 -0.0755 0.1575, -1.0959 0.0433 0.1575, -1.1115 0.0637 0.1575, -1.1319 0.0793 0.1575, -1.1556 -0.101 0.1575, -1.1319 -0.0911 0.1575, -1.1115 -0.0755 0.1575, -1.0959 -0.0551 0.1575, -1.1556 0.0892 0.1575, -1.1811 0.0925 0.1575, -1.2066 0.0892 0.1575, -1.2303 -0.0911 0.1575, -1.2066 -0.101 0.1575, -1.1811 -0.1043 0.1575, -2.0636 -0.0314 0.1575, -2.0669 -0.0059 0.1575, -2.0636 0.0196 0.1575, -2.0177 0.0793 0.1575, -2.0381 0.0637 0.1575, -2.0537 0.0433 0.1575, -1.9193 0.0793 0.1575, -1.8989 0.0637 0.1575, -1.8833 0.0433 0.1575, -1.943 0.0892 0.1575, -1.9685 0.0925 0.1575, -1.994 0.0892 0.1575, -2.0537 -0.0551 0.1575, -2.0381 -0.0755 0.1575, -2.0177 -0.0911 0.1575, -1.943 -0.101 0.1575, -1.9685 -0.1043 0.1575, -1.994 -0.101 0.1575, -1.9193 -0.0911 0.1575, -1.8989 -0.0755 0.1575, -1.8833 -0.0551 0.1575, -1.8734 -0.0314 0.1575, -1.8701 -0.0059 0.1575, -1.8734 0.0196 0.1575
            ]
        }
        coordIndex [
            0,1,2,-1,2,1,3,-1,4,5,6,-1,7,8,9,-1,9,10,7,-1,7,10,11,-1,7,11,12,-1,13,14,15,-1,15,16,13,-1,13,16,17,-1,13,17,18,-1,19,20,21,-1,22,23,24,-1,24,23,25,-1,8,26,18,-1,17,27,28,-1,29,30,31,-1,31,30,32,-1,31,32,25,-1,25,32,19,-1,25,19,24,-1,24,19,21,-1,5,33,6,-1,6,33,34,-1,6,34,35,-1,36,37,6,-1,6,37,38,-1,39,40,41,-1,41,40,42,-1,38,43,6,-1,6,43,42,-1,6,42,44,-1,44,42,40,-1,35,45,6,-1,6,45,46,-1,6,46,36,-1,4,6,47,-1,47,6,9,-1,47,9,48,-1,48,9,8,-1,48,8,49,-1,49,8,18,-1,49,18,50,-1,51,52,53,-1,53,52,54,-1,55,18,25,-1,25,18,26,-1,25,26,31,-1,56,57,17,-1,17,57,58,-1,17,58,59,-1,60,61,62,-1,62,61,63,-1,64,65,66,-1,66,65,67,-1,66,67,68,-1,68,67,18,-1,68,18,53,-1,53,18,55,-1,53,55,51,-1,69,28,70,-1,70,28,71,-1,70,71,72,-1,72,71,73,-1,74,75,61,-1,61,75,76,-1,61,76,63,-1,54,77,53,-1,53,77,78,-1,53,78,79,-1,59,80,17,-1,17,80,81,-1,17,81,18,-1,18,81,82,-1,18,82,50,-1,69,83,28,-1,28,83,84,-1,28,84,17,-1,17,84,85,-1,17,85,56,-1,79,86,53,-1,53,86,87,-1,53,87,61,-1,61,87,88,-1,61,88,74,-1,89,90,91,-1,91,90,92,-1,91,92,93,-1,93,92,94,-1,93,94,95,-1,95,94,96,-1,97,98,99,-1,99,98,100,-1,99,100,101,-1,101,100,102,-1,103,104,105,-1,105,104,106,-1,107,108,109,-1,109,108,110,-1,111,112,113,-1,113,112,114,-1,115,116,117,-1,117,116,118,-1,119,120,121,-1,121,120,122,-1,123,124,125,-1,125,124,126,-1,127,128,129,-1,129,128,130,-1,129,130,131,-1,132,133,134,-1,134,133,135,-1,134,135,136,-1,137,138,139,-1,139,138,140,-1,141,134,136,-1,142,143,144,-1,144,143,145,-1,144,145,136,-1,136,145,146,-1,136,146,141,-1,147,148,149,-1,73,71,149,-1,149,71,150,-1,149,150,147,-1,15,14,151,-1,151,14,92,-1,152,147,153,-1,153,147,64,-1,153,64,66,-1,154,7,12,-1,150,155,156,-1,2,3,152,-1,152,3,157,-1,152,157,147,-1,147,157,158,-1,159,160,147,-1,90,161,92,-1,92,161,162,-1,92,162,151,-1,151,162,163,-1,151,163,164,-1,156,165,150,-1,150,165,166,-1,150,166,147,-1,147,166,167,-1,147,167,159,-1,61,60,158,-1,158,60,168,-1,158,168,147,-1,147,168,169,-1,170,171,150,-1,150,171,172,-1,150,172,155,-1,164,173,151,-1,151,173,174,-1,151,174,150,-1,150,174,175,-1,150,175,170,-1,23,22,169,-1,169,22,176,-1,169,176,147,-1,147,176,154,-1,147,154,148,-1,148,154,12,-1,177,178,94,-1,179,105,106,-1,106,177,179,-1,179,177,94,-1,179,94,180,-1,180,94,92,-1,180,92,13,-1,13,92,14,-1,181,139,140,-1,182,183,94,-1,140,182,181,-1,181,182,94,-1,181,94,184,-1,184,94,178,-1,184,178,110,-1,110,178,109,-1,124,123,183,-1,183,123,185,-1,183,185,94,-1,94,185,186,-1,112,111,186,-1,186,111,187,-1,186,187,94,-1,94,187,188,-1,116,115,188,-1,188,115,189,-1,188,189,94,-1,94,189,190,-1,191,192,193,-1,193,192,94,-1,193,94,194,-1,194,94,190,-1,194,190,119,-1,119,190,120,-1,195,196,197,-1,197,196,198,-1,195,197,199,-1,199,197,100,-1,199,100,98,-1,192,200,94,-1,94,200,201,-1,94,201,96,-1,198,202,197,-1,197,202,203,-1,197,203,204,-1,192,205,206,-1,206,207,192,-1,192,207,208,-1,192,208,200,-1,204,209,197,-1,197,209,210,-1,197,210,192,-1,192,210,211,-1,192,211,205,-1,65,64,212,-1,212,64,147,-1,212,147,128,-1,147,213,128,-1,128,213,214,-1,128,214,130,-1,130,214,215,-1,216,121,122,-1,217,218,219,-1,220,221,222,-1,222,221,223,-1,222,223,214,-1,214,223,215,-1,215,223,104,-1,215,104,103,-1,197,224,100,-1,100,224,225,-1,100,225,102,-1,102,225,135,-1,102,135,226,-1,226,135,133,-1,226,133,218,-1,218,133,216,-1,218,216,219,-1,219,216,122,-1,227,113,114,-1,228,229,220,-1,220,229,230,-1,220,230,221,-1,221,230,108,-1,221,108,107,-1,231,232,233,-1,117,118,234,-1,234,118,235,-1,219,234,217,-1,217,234,235,-1,217,235,232,-1,232,235,227,-1,232,227,233,-1,233,227,114,-1,125,126,236,-1,236,126,237,-1,233,236,231,-1,231,236,237,-1,231,237,228,-1,228,237,238,-1,228,238,229,-1,229,238,138,-1,229,138,137,-1,239,213,240,-1,240,213,147,-1,240,147,241,-1,241,147,160,-1,224,197,242,-1,242,197,192,-1,242,192,243,-1,243,192,191,-1,244,245,246,-1,129,247,127,-1,127,247,248,-1,127,248,246,-1,246,248,249,-1,246,249,244,-1,250,251,143,-1,143,251,252,-1,252,253,143,-1,143,253,254,-1,143,254,145,-1,145,254,255,-1,256,257,258,-1,258,257,259,-1,258,259,260,-1,256,261,257,-1,257,261,262,-1,257,262,263,-1,263,264,257,-1,257,264,265,-1,257,265,266,-1,266,265,267,-1,267,268,266,-1,266,268,269,-1,266,269,143,-1,143,269,270,-1,143,270,250,-1,257,271,259,-1,259,271,272,-1,272,273,259,-1,259,273,274,-1,259,274,275,-1,275,274,276,-1,275,276,277,-1,277,278,275,-1,275,278,279,-1,275,279,280,-1,281,244,282,-1,282,244,283,-1,284,280,285,-1,285,280,286,-1,283,244,287,-1,287,244,249,-1,287,249,288,-1,281,289,244,-1,244,289,290,-1,244,290,291,-1,291,290,292,-1,284,293,280,-1,280,293,294,-1,280,294,275,-1,275,294,295,-1,275,295,296,-1,292,297,291,-1,291,297,298,-1,291,298,280,-1,280,298,299,-1,280,299,286,-1,300,301,302,-1,303,304,305,-1,306,307,308,-1,309,310,311,-1,312,313,314,-1,141,226,218,-1,244,291,245,-1,245,291,129,-1,142,315,316,-1,316,315,134,-1,313,317,279,-1,280,318,291,-1,291,318,319,-1,291,319,320,-1,320,321,291,-1,291,321,322,-1,291,322,323,-1,323,324,291,-1,291,324,314,-1,291,314,129,-1,129,314,247,-1,317,325,279,-1,279,325,326,-1,279,326,327,-1,328,329,280,-1,280,329,330,-1,280,330,318,-1,324,331,314,-1,314,331,332,-1,314,332,333,-1,333,334,314,-1,314,334,335,-1,314,335,312,-1,327,336,279,-1,279,336,337,-1,279,337,280,-1,280,337,338,-1,280,338,328,-1,339,340,314,-1,310,341,278,-1,313,279,314,-1,314,279,342,-1,314,342,339,-1,340,343,314,-1,314,343,344,-1,314,344,345,-1,346,347,311,-1,311,347,348,-1,311,348,309,-1,341,349,278,-1,278,349,350,-1,278,350,351,-1,352,353,279,-1,279,353,354,-1,279,354,342,-1,345,355,314,-1,314,355,356,-1,314,356,311,-1,311,356,357,-1,311,357,346,-1,351,358,278,-1,278,358,359,-1,278,359,279,-1,279,359,360,-1,279,360,352,-1,311,361,362,-1,307,363,277,-1,363,364,277,-1,277,364,365,-1,277,365,366,-1,310,278,311,-1,311,278,367,-1,311,367,361,-1,362,368,311,-1,311,368,369,-1,311,369,370,-1,371,372,278,-1,278,372,373,-1,278,373,367,-1,374,375,308,-1,308,375,376,-1,308,376,306,-1,370,377,311,-1,311,377,378,-1,311,378,308,-1,308,378,379,-1,308,379,374,-1,366,380,277,-1,277,380,381,-1,277,381,278,-1,278,381,382,-1,278,382,371,-1,383,384,308,-1,308,384,385,-1,308,385,386,-1,387,388,276,-1,276,388,389,-1,276,389,390,-1,307,277,308,-1,308,277,391,-1,308,391,383,-1,386,392,308,-1,308,392,393,-1,308,393,394,-1,394,393,395,-1,395,396,394,-1,394,396,397,-1,394,397,398,-1,398,399,394,-1,394,399,400,-1,394,400,387,-1,401,402,277,-1,390,403,276,-1,276,403,404,-1,276,404,277,-1,277,404,405,-1,277,405,401,-1,402,406,277,-1,277,406,407,-1,277,407,391,-1,408,409,410,-1,410,409,411,-1,408,412,409,-1,409,412,413,-1,409,413,414,-1,415,416,394,-1,394,416,417,-1,394,417,418,-1,418,419,394,-1,394,419,420,-1,394,420,409,-1,409,420,421,-1,409,421,411,-1,387,276,394,-1,394,276,422,-1,394,422,415,-1,414,423,274,-1,274,423,424,-1,274,424,425,-1,276,426,427,-1,425,428,274,-1,274,428,429,-1,274,429,276,-1,276,429,430,-1,276,430,426,-1,427,431,276,-1,276,431,432,-1,276,432,422,-1,409,433,434,-1,304,435,273,-1,435,436,273,-1,273,436,437,-1,273,437,438,-1,414,274,409,-1,409,274,439,-1,409,439,433,-1,434,440,409,-1,409,440,441,-1,409,441,442,-1,443,444,274,-1,274,444,445,-1,274,445,439,-1,446,447,305,-1,305,447,448,-1,305,448,303,-1,442,449,409,-1,409,449,450,-1,409,450,305,-1,305,450,451,-1,305,451,446,-1,438,452,273,-1,273,452,453,-1,273,453,274,-1,274,453,454,-1,274,454,443,-1,455,456,305,-1,304,273,305,-1,305,273,457,-1,305,457,455,-1,273,458,459,-1,456,460,305,-1,305,460,461,-1,305,461,462,-1,463,464,302,-1,302,464,465,-1,302,465,300,-1,301,466,272,-1,272,466,467,-1,272,467,468,-1,459,469,273,-1,273,469,470,-1,273,470,457,-1,462,471,305,-1,305,471,472,-1,305,472,302,-1,302,472,473,-1,302,473,463,-1,468,474,272,-1,272,474,475,-1,272,475,273,-1,273,475,476,-1,273,476,458,-1,477,478,302,-1,479,271,480,-1,480,271,316,-1,480,316,481,-1,301,272,302,-1,302,272,482,-1,302,482,477,-1,478,483,302,-1,302,483,484,-1,302,484,485,-1,485,486,302,-1,302,486,316,-1,302,316,141,-1,141,316,134,-1,479,487,271,-1,271,487,488,-1,271,488,489,-1,490,491,272,-1,272,491,492,-1,272,492,482,-1,486,493,316,-1,316,493,494,-1,316,494,495,-1,495,496,316,-1,316,496,497,-1,316,497,481,-1,489,498,271,-1,271,498,499,-1,271,499,272,-1,272,499,500,-1,272,500,490,-1,271,257,316,-1,316,257,266,-1,316,266,142,-1,142,266,143,-1,141,218,302,-1,302,218,217,-1,302,217,305,-1,305,217,232,-1,305,232,409,-1,409,232,231,-1,409,231,394,-1,394,231,228,-1,394,228,308,-1,308,228,220,-1,308,220,311,-1,311,220,222,-1,311,222,314,-1,314,222,214,-1,314,214,247,-1,141,146,226,-1,226,146,101,-1,226,101,102,-1,248,247,239,-1,239,247,214,-1,239,214,213,-1,127,246,128,-1,128,246,212,-1,67,65,245,-1,245,65,212,-1,245,212,246,-1,18,67,501,-1,501,67,245,-1,501,245,131,-1,131,245,129,-1,144,225,142,-1,142,225,224,-1,142,224,242,-1,144,136,225,-1,225,136,135,-1,242,243,142,-1,142,243,502,-1,142,502,315,-1,315,502,132,-1,315,132,134,-1,503,182,504,-1,504,182,238,-1,505,506,238,-1,506,507,238,-1,238,507,508,-1,238,508,504,-1,509,183,510,-1,510,183,511,-1,509,512,183,-1,183,512,513,-1,183,513,237,-1,513,514,237,-1,237,514,515,-1,237,515,516,-1,237,517,238,-1,238,517,518,-1,238,518,505,-1,503,519,182,-1,182,519,520,-1,182,520,521,-1,516,522,237,-1,237,522,523,-1,237,523,517,-1,521,524,182,-1,182,524,525,-1,182,525,183,-1,183,525,526,-1,183,526,511,-1,138,238,140,-1,140,238,182,-1,124,183,126,-1,126,183,237,-1,527,528,132,-1,132,528,216,-1,132,216,133,-1,529,194,530,-1,530,194,216,-1,530,216,531,-1,531,216,528,-1,502,532,533,-1,534,535,132,-1,132,535,536,-1,132,536,527,-1,533,537,502,-1,502,537,538,-1,502,538,132,-1,132,538,539,-1,132,539,534,-1,529,540,194,-1,194,540,541,-1,194,541,542,-1,532,502,543,-1,543,502,193,-1,543,193,544,-1,542,545,194,-1,194,545,546,-1,194,546,193,-1,193,546,547,-1,193,547,548,-1,548,549,193,-1,193,549,550,-1,193,550,544,-1,551,552,131,-1,215,553,554,-1,555,556,501,-1,557,180,558,-1,558,180,501,-1,558,501,559,-1,559,501,556,-1,215,554,130,-1,130,554,131,-1,131,554,560,-1,131,560,551,-1,552,561,131,-1,131,561,562,-1,131,562,501,-1,501,562,563,-1,501,563,555,-1,553,215,564,-1,564,215,179,-1,564,179,565,-1,557,566,180,-1,180,566,567,-1,180,567,568,-1,569,570,179,-1,179,570,571,-1,179,571,565,-1,568,572,180,-1,180,572,573,-1,180,573,179,-1,179,573,574,-1,179,574,569,-1,575,185,576,-1,576,185,236,-1,577,186,578,-1,578,186,579,-1,575,580,185,-1,185,580,581,-1,185,581,582,-1,577,583,186,-1,186,583,584,-1,186,584,233,-1,233,584,585,-1,585,586,233,-1,233,586,587,-1,233,587,588,-1,589,590,236,-1,588,591,233,-1,233,591,592,-1,233,592,236,-1,236,592,593,-1,236,593,589,-1,590,594,236,-1,236,594,595,-1,236,595,576,-1,582,596,185,-1,185,596,597,-1,185,597,186,-1,186,597,598,-1,186,598,579,-1,599,189,600,-1,600,189,234,-1,600,234,601,-1,602,603,234,-1,234,603,604,-1,234,604,601,-1,605,219,606,-1,606,219,607,-1,605,608,219,-1,219,608,609,-1,219,609,234,-1,234,609,610,-1,234,610,602,-1,599,611,189,-1,189,611,612,-1,189,612,613,-1,614,190,615,-1,615,190,189,-1,615,189,616,-1,616,189,613,-1,614,617,190,-1,190,617,618,-1,190,618,619,-1,619,620,190,-1,190,620,621,-1,190,621,219,-1,219,621,622,-1,219,622,607,-1,623,624,227,-1,227,624,625,-1,626,235,627,-1,627,235,188,-1,627,188,628,-1,626,629,235,-1,235,629,630,-1,235,630,631,-1,625,632,227,-1,227,632,633,-1,227,633,187,-1,633,634,187,-1,187,634,635,-1,187,635,636,-1,637,638,188,-1,631,639,235,-1,235,639,640,-1,235,640,227,-1,227,640,641,-1,227,641,623,-1,638,642,188,-1,188,642,643,-1,188,643,628,-1,636,644,187,-1,187,644,645,-1,187,645,188,-1,188,645,646,-1,188,646,637,-1,647,648,230,-1,230,648,649,-1,650,229,651,-1,651,229,181,-1,651,181,652,-1,649,653,230,-1,230,653,654,-1,230,654,184,-1,654,655,184,-1,184,655,656,-1,184,656,657,-1,650,658,229,-1,229,658,659,-1,229,659,660,-1,661,662,181,-1,662,663,181,-1,181,663,664,-1,181,664,652,-1,660,665,229,-1,229,665,666,-1,229,666,230,-1,230,666,667,-1,230,667,647,-1,657,668,184,-1,184,668,669,-1,184,669,181,-1,181,669,670,-1,181,670,661,-1,671,177,672,-1,672,177,223,-1,672,223,673,-1,674,675,223,-1,223,675,676,-1,223,676,673,-1,677,221,678,-1,678,221,679,-1,677,680,221,-1,221,680,681,-1,221,681,223,-1,223,681,682,-1,223,682,674,-1,671,683,177,-1,177,683,684,-1,177,684,685,-1,686,178,687,-1,687,178,177,-1,687,177,688,-1,688,177,685,-1,686,689,178,-1,178,689,690,-1,178,690,691,-1,691,692,178,-1,178,692,693,-1,178,693,221,-1,221,693,694,-1,221,694,679,-1,125,236,123,-1,123,236,185,-1,112,186,114,-1,114,186,233,-1,113,227,111,-1,111,227,187,-1,116,188,118,-1,118,188,235,-1,117,234,115,-1,115,234,189,-1,120,190,122,-1,122,190,219,-1,121,216,119,-1,119,216,194,-1,191,193,243,-1,243,193,502,-1,108,230,110,-1,110,230,184,-1,139,181,137,-1,137,181,229,-1,104,223,106,-1,106,223,177,-1,109,178,107,-1,107,178,221,-1,18,501,13,-1,13,501,180,-1,105,179,103,-1,103,179,215,-1,287,288,159,-1,159,288,241,-1,159,241,160,-1,287,159,283,-1,283,159,167,-1,283,167,282,-1,282,167,166,-1,282,166,281,-1,281,166,165,-1,281,165,289,-1,289,165,156,-1,289,156,290,-1,290,156,155,-1,290,155,292,-1,292,155,172,-1,292,172,297,-1,297,172,171,-1,170,298,171,-1,171,298,297,-1,298,170,299,-1,299,170,175,-1,299,175,286,-1,286,175,174,-1,286,174,285,-1,285,174,173,-1,285,173,284,-1,284,173,164,-1,284,164,293,-1,293,164,163,-1,293,163,294,-1,294,163,162,-1,294,162,295,-1,295,162,161,-1,296,295,89,-1,89,295,161,-1,89,161,90,-1,258,260,201,-1,201,260,95,-1,201,95,96,-1,210,267,211,-1,211,267,265,-1,211,265,205,-1,205,265,264,-1,205,264,206,-1,206,264,263,-1,206,263,207,-1,207,263,262,-1,207,262,208,-1,208,262,261,-1,208,261,200,-1,200,261,256,-1,200,256,201,-1,201,256,258,-1,209,268,210,-1,210,268,267,-1,199,254,195,-1,195,254,253,-1,195,253,196,-1,196,253,252,-1,196,252,198,-1,198,252,251,-1,198,251,202,-1,202,251,250,-1,202,250,203,-1,203,250,270,-1,203,270,204,-1,204,270,269,-1,204,269,209,-1,209,269,268,-1,255,254,97,-1,97,254,199,-1,97,199,98,-1,
        ]
    }
}
Shape{
    appearance Appearance {
        material  Material 	{
            diffuseColor 0.7529411764705882 0.7529411764705882 0.7529411764705882
            specularColor 0.3764705882352941 0.3764705882352941 0.3764705882352941
            ambientIntensity 0.7529
            transparency 0.0
            shininess 0.5
        }
    }
    geometry IndexedFaceSet {
        ccw TRUE
        solid FALSE
        coord DEF co Coordinate {
            point [
                0.3426 -0.0354 -1.1811, 0.3367 -0.0212 -1.1811, 0.3937 -0.0059 -1.1811, 0.3346 -0.0059 -1.1811, 0.3367 0.0094 -1.1811, 0.3784 -0.063 -1.1811, 0.3642 -0.0571 -1.1811, 0.3519 -0.0477 -1.1811, 0.4232 -0.0571 -1.1811, 0.409 -0.063 -1.1811, 0.3937 -0.065 -1.1811, 0.4507 -0.0212 -1.1811, 0.4448 -0.0354 -1.1811, 0.4355 -0.0477 -1.1811, 0.4448 0.0236 -1.1811, 0.4507 0.0094 -1.1811, 0.4528 -0.0059 -1.1811, 0.409 0.0511 -1.1811, 0.4232 0.0452 -1.1811, 0.4355 0.0358 -1.1811, 0.3642 0.0452 -1.1811, 0.3784 0.0511 -1.1811, 0.3937 0.0531 -1.1811, 0.3426 0.0236 -1.1811, 0.3519 0.0358 -1.1811, 0.2953 -0.0059 0.1575, 0.2986 -0.0314 -1.1417, 0.2986 -0.0314 0.1575, 0.3085 -0.0551 -1.1417, 0.3085 -0.0551 0.1575, 0.3241 -0.0755 -1.1417, 0.3241 -0.0755 0.1575, 0.3445 -0.0911 -1.1417, 0.3445 -0.0911 0.1575, 0.3682 -0.101 -1.1417, 0.3682 -0.101 0.1575, 0.3937 -0.1043 -1.1417, 0.3937 -0.1043 0.1575, 0.4192 -0.101 -1.1417, 0.4192 -0.101 0.1575, 0.4429 -0.0911 -1.1417, 0.4429 -0.0911 0.1575, 0.4633 -0.0755 -1.1417, 0.4633 -0.0755 0.1575, 0.4789 -0.0551 -1.1417, 0.4789 -0.0551 0.1575, 0.4888 -0.0314 -1.1417, 0.4888 -0.0314 0.1575, 0.4921 -0.0059 -1.1417, 0.4921 -0.0059 0.1575, 0.4888 0.0196 -1.1417, 0.4888 0.0196 0.1575, 0.4789 0.0433 -1.1417, 0.4789 0.0433 0.1575, 0.4633 0.0637 -1.1417, 0.4633 0.0637 0.1575, 0.4429 0.0793 -1.1417, 0.4429 0.0793 0.1575, 0.4192 0.0892 -1.1417, 0.4192 0.0892 0.1575, 0.3937 0.0925 -1.1417, 0.3937 0.0925 0.1575, 0.3682 0.0892 -1.1417, 0.3682 0.0892 0.1575, 0.3445 0.0793 -1.1417, 0.3445 0.0793 0.1575, 0.3241 0.0637 -1.1417, 0.3241 0.0637 0.1575, 0.3085 0.0433 -1.1417, 0.3085 0.0433 0.1575, 0.2986 0.0196 -1.1417, 0.2986 0.0196 0.1575, 0.2953 -0.0059 -1.1417, 0.2953 -0.0059 2.1654, 0.2986 -0.0314 0.8268, 0.2986 -0.0314 2.1654, 0.3085 -0.0551 0.8268, 0.3085 -0.0551 2.1654, 0.3241 -0.0755 0.8268, 0.3241 -0.0755 2.1654, 0.3445 -0.0911 0.8268, 0.3445 -0.0911 2.1654, 0.3682 -0.101 0.8268, 0.3682 -0.101 2.1654, 0.3937 -0.1043 0.8268, 0.3937 -0.1043 2.1654, 0.4192 -0.101 0.8268, 0.4192 -0.101 2.1654, 0.4429 -0.0911 0.8268, 0.4429 -0.0911 2.1654, 0.4633 -0.0755 0.8268, 0.4633 -0.0755 2.1654, 0.4789 -0.0551 0.8268, 0.4789 -0.0551 2.1654, 0.4888 -0.0314 0.8268, 0.4888 -0.0314 2.1654, 0.4921 -0.0059 0.8268, 0.4921 -0.0059 2.1654, 0.4888 0.0196 0.8268, 0.4888 0.0196 2.1654, 0.4789 0.0433 0.8268, 0.4789 0.0433 2.1654, 0.4633 0.0637 0.8268, 0.4633 0.0637 2.1654, 0.4429 0.0793 0.8268, 0.4429 0.0793 2.1654, 0.4192 0.0892 0.8268, 0.4192 0.0892 2.1654, 0.3937 0.0925 0.8268, 0.3937 0.0925 2.1654, 0.3682 0.0892 0.8268, 0.3682 0.0892 2.1654, 0.3445 0.0793 0.8268, 0.3445 0.0793 2.1654, 0.3241 0.0637 0.8268, 0.3241 0.0637 2.1654, 0.3085 0.0433 0.8268, 0.3085 0.0433 2.1654, 0.2986 0.0196 0.8268, 0.2986 0.0196 2.1654, 0.2953 -0.0059 0.8268, 0.3426 0.0236 2.2047, 0.3367 0.0094 2.2047, 0.3937 -0.0059 2.2047, 0.3346 -0.0059 2.2047, 0.3367 -0.0212 2.2047, 0.3784 0.0511 2.2047, 0.3642 0.0452 2.2047, 0.3519 0.0358 2.2047, 0.4232 0.0452 2.2047, 0.409 0.0511 2.2047, 0.3937 0.0531 2.2047, 0.4507 0.0094 2.2047, 0.4448 0.0236 2.2047, 0.4355 0.0358 2.2047, 0.4448 -0.0354 2.2047, 0.4507 -0.0212 2.2047, 0.4528 -0.0059 2.2047, 0.409 -0.063 2.2047, 0.4232 -0.0571 2.2047, 0.4355 -0.0477 2.2047, 0.3642 -0.0571 2.2047, 0.3784 -0.063 2.2047, 0.3937 -0.065 2.2047, 0.3426 -0.0354 2.2047, 0.3519 -0.0477 2.2047, -0.4448 -0.0354 -1.1811, -0.4507 -0.0212 -1.1811, -0.3937 -0.0059 -1.1811, -0.4528 -0.0059 -1.1811, -0.4507 0.0094 -1.1811, -0.409 -0.063 -1.1811, -0.4232 -0.0571 -1.1811, -0.4355 -0.0477 -1.1811, -0.3642 -0.0571 -1.1811, -0.3784 -0.063 -1.1811, -0.3937 -0.065 -1.1811, -0.3367 -0.0212 -1.1811, -0.3426 -0.0354 -1.1811, -0.3519 -0.0477 -1.1811, -0.3426 0.0236 -1.1811, -0.3367 0.0094 -1.1811, -0.3346 -0.0059 -1.1811, -0.3784 0.0511 -1.1811, -0.3642 0.0452 -1.1811, -0.3519 0.0358 -1.1811, -0.4232 0.0452 -1.1811, -0.409 0.0511 -1.1811, -0.3937 0.0531 -1.1811, -0.4448 0.0236 -1.1811, -0.4355 0.0358 -1.1811, -0.4921 -0.0059 0.1575, -0.4888 -0.0314 -1.1417, -0.4888 -0.0314 0.1575, -0.4789 -0.0551 -1.1417, -0.4789 -0.0551 0.1575, -0.4633 -0.0755 -1.1417, -0.4633 -0.0755 0.1575, -0.4429 -0.0911 -1.1417, -0.4429 -0.0911 0.1575, -0.4192 -0.101 -1.1417, -0.4192 -0.101 0.1575, -0.3937 -0.1043 -1.1417, -0.3937 -0.1043 0.1575, -0.3682 -0.101 -1.1417, -0.3682 -0.101 0.1575, -0.3445 -0.0911 -1.1417, -0.3445 -0.0911 0.1575, -0.3241 -0.0755 -1.1417, -0.3241 -0.0755 0.1575, -0.3085 -0.0551 -1.1417, -0.3085 -0.0551 0.1575, -0.2986 -0.0314 -1.1417, -0.2986 -0.0314 0.1575, -0.2953 -0.0059 -1.1417, -0.2953 -0.0059 0.1575, -0.2986 0.0196 -1.1417, -0.2986 0.0196 0.1575, -0.3085 0.0433 -1.1417, -0.3085 0.0433 0.1575, -0.3241 0.0637 -1.1417, -0.3241 0.0637 0.1575, -0.3445 0.0793 -1.1417, -0.3445 0.0793 0.1575, -0.3682 0.0892 -1.1417, -0.3682 0.0892 0.1575, -0.3937 0.0925 -1.1417, -0.3937 0.0925 0.1575, -0.4192 0.0892 -1.1417, -0.4192 0.0892 0.1575, -0.4429 0.0793 -1.1417, -0.4429 0.0793 0.1575, -0.4633 0.0637 -1.1417, -0.4633 0.0637 0.1575, -0.4789 0.0433 -1.1417, -0.4789 0.0433 0.1575, -0.4888 0.0196 -1.1417, -0.4888 0.0196 0.1575, -0.4921 -0.0059 -1.1417, -0.4921 -0.0059 2.1654, -0.4888 -0.0314 0.8268, -0.4888 -0.0314 2.1654, -0.4789 -0.0551 0.8268, -0.4789 -0.0551 2.1654, -0.4633 -0.0755 0.8268, -0.4633 -0.0755 2.1654, -0.4429 -0.0911 0.8268, -0.4429 -0.0911 2.1654, -0.4192 -0.101 0.8268, -0.4192 -0.101 2.1654, -0.3937 -0.1043 0.8268, -0.3937 -0.1043 2.1654, -0.3682 -0.101 0.8268, -0.3682 -0.101 2.1654, -0.3445 -0.0911 0.8268, -0.3445 -0.0911 2.1654, -0.3241 -0.0755 0.8268, -0.3241 -0.0755 2.1654, -0.3085 -0.0551 0.8268, -0.3085 -0.0551 2.1654, -0.2986 -0.0314 0.8268, -0.2986 -0.0314 2.1654, -0.2953 -0.0059 0.8268, -0.2953 -0.0059 2.1654, -0.2986 0.0196 0.8268, -0.2986 0.0196 2.1654, -0.3085 0.0433 0.8268, -0.3085 0.0433 2.1654, -0.3241 0.0637 0.8268, -0.3241 0.0637 2.1654, -0.3445 0.0793 0.8268, -0.3445 0.0793 2.1654, -0.3682 0.0892 0.8268, -0.3682 0.0892 2.1654, -0.3937 0.0925 0.8268, -0.3937 0.0925 2.1654, -0.4192 0.0892 0.8268, -0.4192 0.0892 2.1654, -0.4429 0.0793 0.8268, -0.4429 0.0793 2.1654, -0.4633 0.0637 0.8268, -0.4633 0.0637 2.1654, -0.4789 0.0433 0.8268, -0.4789 0.0433 2.1654, -0.4888 0.0196 0.8268, -0.4888 0.0196 2.1654, -0.4921 -0.0059 0.8268, -0.4448 0.0236 2.2047, -0.4507 0.0094 2.2047, -0.3937 -0.0059 2.2047, -0.4528 -0.0059 2.2047, -0.4507 -0.0212 2.2047, -0.409 0.0511 2.2047, -0.4232 0.0452 2.2047, -0.4355 0.0358 2.2047, -0.3642 0.0452 2.2047, -0.3784 0.0511 2.2047, -0.3937 0.0531 2.2047, -0.3367 0.0094 2.2047, -0.3426 0.0236 2.2047, -0.3519 0.0358 2.2047, -0.3426 -0.0354 2.2047, -0.3367 -0.0212 2.2047, -0.3346 -0.0059 2.2047, -0.3784 -0.063 2.2047, -0.3642 -0.0571 2.2047, -0.3519 -0.0477 2.2047, -0.4232 -0.0571 2.2047, -0.409 -0.063 2.2047, -0.3937 -0.065 2.2047, -0.4448 -0.0354 2.2047, -0.4355 -0.0477 2.2047, -1.2322 -0.0354 -1.1811, -1.2381 -0.0212 -1.1811, -1.1811 -0.0059 -1.1811, -1.2402 -0.0059 -1.1811, -1.2381 0.0094 -1.1811, -1.1964 -0.063 -1.1811, -1.2106 -0.0571 -1.1811, -1.2229 -0.0477 -1.1811, -1.1516 -0.0571 -1.1811, -1.1658 -0.063 -1.1811, -1.1811 -0.065 -1.1811, -1.1241 -0.0212 -1.1811, -1.13 -0.0354 -1.1811, -1.1393 -0.0477 -1.1811, -1.13 0.0236 -1.1811, -1.1241 0.0094 -1.1811, -1.122 -0.0059 -1.1811, -1.1658 0.0511 -1.1811, -1.1516 0.0452 -1.1811, -1.1393 0.0358 -1.1811, -1.2106 0.0452 -1.1811, -1.1964 0.0511 -1.1811, -1.1811 0.0531 -1.1811, -1.2322 0.0236 -1.1811, -1.2229 0.0358 -1.1811, -1.2795 -0.0059 0.1575, -1.2762 -0.0314 -1.1417, -1.2762 -0.0314 0.1575, -1.2663 -0.0551 -1.1417, -1.2663 -0.0551 0.1575, -1.2507 -0.0755 -1.1417, -1.2507 -0.0755 0.1575, -1.2303 -0.0911 -1.1417, -1.2303 -0.0911 0.1575, -1.2066 -0.101 -1.1417, -1.2066 -0.101 0.1575, -1.1811 -0.1043 -1.1417, -1.1811 -0.1043 0.1575, -1.1556 -0.101 -1.1417, -1.1556 -0.101 0.1575, -1.1319 -0.0911 -1.1417, -1.1319 -0.0911 0.1575, -1.1115 -0.0755 -1.1417, -1.1115 -0.0755 0.1575, -1.0959 -0.0551 -1.1417, -1.0959 -0.0551 0.1575, -1.086 -0.0314 -1.1417, -1.086 -0.0314 0.1575, -1.0827 -0.0059 -1.1417, -1.0827 -0.0059 0.1575, -1.086 0.0196 -1.1417, -1.086 0.0196 0.1575, -1.0959 0.0433 -1.1417, -1.0959 0.0433 0.1575, -1.1115 0.0637 -1.1417, -1.1115 0.0637 0.1575, -1.1319 0.0793 -1.1417, -1.1319 0.0793 0.1575, -1.1556 0.0892 -1.1417, -1.1556 0.0892 0.1575, -1.1811 0.0925 -1.1417, -1.1811 0.0925 0.1575, -1.2066 0.0892 -1.1417, -1.2066 0.0892 0.1575, -1.2303 0.0793 -1.1417, -1.2303 0.0793 0.1575, -1.2507 0.0637 -1.1417, -1.2507 0.0637 0.1575, -1.2663 0.0433 -1.1417, -1.2663 0.0433 0.1575, -1.2762 0.0196 -1.1417, -1.2762 0.0196 0.1575, -1.2795 -0.0059 -1.1417, -1.2795 -0.0059 2.1654, -1.2762 -0.0314 0.8268, -1.2762 -0.0314 2.1654, -1.2663 -0.0551 0.8268, -1.2663 -0.0551 2.1654, -1.2507 -0.0755 0.8268, -1.2507 -0.0755 2.1654, -1.2303 -0.0911 0.8268, -1.2303 -0.0911 2.1654, -1.2066 -0.101 0.8268, -1.2066 -0.101 2.1654, -1.1811 -0.1043 0.8268, -1.1811 -0.1043 2.1654, -1.1556 -0.101 0.8268, -1.1556 -0.101 2.1654, -1.1319 -0.0911 0.8268, -1.1319 -0.0911 2.1654, -1.1115 -0.0755 0.8268, -1.1115 -0.0755 2.1654, -1.0959 -0.0551 0.8268, -1.0959 -0.0551 2.1654, -1.086 -0.0314 0.8268, -1.086 -0.0314 2.1654, -1.0827 -0.0059 0.8268, -1.0827 -0.0059 2.1654, -1.086 0.0196 0.8268, -1.086 0.0196 2.1654, -1.0959 0.0433 0.8268, -1.0959 0.0433 2.1654, -1.1115 0.0637 0.8268, -1.1115 0.0637 2.1654, -1.1319 0.0793 0.8268, -1.1319 0.0793 2.1654, -1.1556 0.0892 0.8268, -1.1556 0.0892 2.1654, -1.1811 0.0925 0.8268, -1.1811 0.0925 2.1654, -1.2066 0.0892 0.8268, -1.2066 0.0892 2.1654, -1.2303 0.0793 0.8268, -1.2303 0.0793 2.1654, -1.2507 0.0637 0.8268, -1.2507 0.0637 2.1654, -1.2663 0.0433 0.8268, -1.2663 0.0433 2.1654, -1.2762 0.0196 0.8268, -1.2762 0.0196 2.1654, -1.2795 -0.0059 0.8268, -1.2322 0.0236 2.2047, -1.2381 0.0094 2.2047, -1.1811 -0.0059 2.2047, -1.2402 -0.0059 2.2047, -1.2381 -0.0212 2.2047, -1.1964 0.0511 2.2047, -1.2106 0.0452 2.2047, -1.2229 0.0358 2.2047, -1.1516 0.0452 2.2047, -1.1658 0.0511 2.2047, -1.1811 0.0531 2.2047, -1.1241 0.0094 2.2047, -1.13 0.0236 2.2047, -1.1393 0.0358 2.2047, -1.13 -0.0354 2.2047, -1.1241 -0.0212 2.2047, -1.122 -0.0059 2.2047, -1.1658 -0.063 2.2047, -1.1516 -0.0571 2.2047, -1.1393 -0.0477 2.2047, -1.2106 -0.0571 2.2047, -1.1964 -0.063 2.2047, -1.1811 -0.065 2.2047, -1.2322 -0.0354 2.2047, -1.2229 -0.0477 2.2047, -2.0196 -0.0354 -1.1811, -2.0255 -0.0212 -1.1811, -1.9685 -0.0059 -1.1811, -2.0276 -0.0059 -1.1811, -2.0255 0.0094 -1.1811, -1.9838 -0.063 -1.1811, -1.998 -0.0571 -1.1811, -2.0103 -0.0477 -1.1811, -1.939 -0.0571 -1.1811, -1.9532 -0.063 -1.1811, -1.9685 -0.065 -1.1811, -1.9115 -0.0212 -1.1811, -1.9174 -0.0354 -1.1811, -1.9267 -0.0477 -1.1811, -1.9174 0.0236 -1.1811, -1.9115 0.0094 -1.1811, -1.9094 -0.0059 -1.1811, -1.9532 0.0511 -1.1811, -1.939 0.0452 -1.1811, -1.9267 0.0358 -1.1811, -1.998 0.0452 -1.1811, -1.9838 0.0511 -1.1811, -1.9685 0.0531 -1.1811, -2.0196 0.0236 -1.1811, -2.0103 0.0358 -1.1811, -2.0669 -0.0059 0.1575, -2.0636 -0.0314 -1.1417, -2.0636 -0.0314 0.1575, -2.0537 -0.0551 -1.1417, -2.0537 -0.0551 0.1575, -2.0381 -0.0755 -1.1417, -2.0381 -0.0755 0.1575, -2.0177 -0.0911 -1.1417, -2.0177 -0.0911 0.1575, -1.994 -0.101 -1.1417, -1.994 -0.101 0.1575, -1.9685 -0.1043 -1.1417, -1.9685 -0.1043 0.1575, -1.943 -0.101 -1.1417, -1.943 -0.101 0.1575, -1.9193 -0.0911 -1.1417, -1.9193 -0.0911 0.1575, -1.8989 -0.0755 -1.1417, -1.8989 -0.0755 0.1575, -1.8833 -0.0551 -1.1417, -1.8833 -0.0551 0.1575, -1.8734 -0.0314 -1.1417, -1.8734 -0.0314 0.1575, -1.8701 -0.0059 -1.1417, -1.8701 -0.0059 0.1575, -1.8734 0.0196 -1.1417, -1.8734 0.0196 0.1575, -1.8833 0.0433 -1.1417, -1.8833 0.0433 0.1575, -1.8989 0.0637 -1.1417, -1.8989 0.0637 0.1575, -1.9193 0.0793 -1.1417, -1.9193 0.0793 0.1575, -1.943 0.0892 -1.1417, -1.943 0.0892 0.1575, -1.9685 0.0925 -1.1417, -1.9685 0.0925 0.1575, -1.994 0.0892 -1.1417, -1.994 0.0892 0.1575, -2.0177 0.0793 -1.1417, -2.0177 0.0793 0.1575, -2.0381 0.0637 -1.1417, -2.0381 0.0637 0.1575, -2.0537 0.0433 -1.1417, -2.0537 0.0433 0.1575, -2.0636 0.0196 -1.1417, -2.0636 0.0196 0.1575, -2.0669 -0.0059 -1.1417, -2.0669 -0.0059 2.1654, -2.0636 -0.0314 0.8268, -2.0636 -0.0314 2.1654, -2.0537 -0.0551 0.8268, -2.0537 -0.0551 2.1654, -2.0381 -0.0755 0.8268, -2.0381 -0.0755 2.1654, -2.0177 -0.0911 0.8268, -2.0177 -0.0911 2.1654, -1.994 -0.101 0.8268, -1.994 -0.101 2.1654, -1.9685 -0.1043 0.8268, -1.9685 -0.1043 2.1654, -1.943 -0.101 0.8268, -1.943 -0.101 2.1654, -1.9193 -0.0911 0.8268, -1.9193 -0.0911 2.1654, -1.8989 -0.0755 0.8268, -1.8989 -0.0755 2.1654, -1.8833 -0.0551 0.8268, -1.8833 -0.0551 2.1654, -1.8734 -0.0314 0.8268, -1.8734 -0.0314 2.1654, -1.8701 -0.0059 0.8268, -1.8701 -0.0059 2.1654, -1.8734 0.0196 0.8268, -1.8734 0.0196 2.1654, -1.8833 0.0433 0.8268, -1.8833 0.0433 2.1654, -1.8989 0.0637 0.8268, -1.8989 0.0637 2.1654, -1.9193 0.0793 0.8268, -1.9193 0.0793 2.1654, -1.943 0.0892 0.8268, -1.943 0.0892 2.1654, -1.9685 0.0925 0.8268, -1.9685 0.0925 2.1654, -1.994 0.0892 0.8268, -1.994 0.0892 2.1654, -2.0177 0.0793 0.8268, -2.0177 0.0793 2.1654, -2.0381 0.0637 0.8268, -2.0381 0.0637 2.1654, -2.0537 0.0433 0.8268, -2.0537 0.0433 2.1654, -2.0636 0.0196 0.8268, -2.0636 0.0196 2.1654, -2.0669 -0.0059 0.8268, -2.0196 0.0236 2.2047, -2.0255 0.0094 2.2047, -1.9685 -0.0059 2.2047, -2.0276 -0.0059 2.2047, -2.0255 -0.0212 2.2047, -1.9838 0.0511 2.2047, -1.998 0.0452 2.2047, -2.0103 0.0358 2.2047, -1.939 0.0452 2.2047, -1.9532 0.0511 2.2047, -1.9685 0.0531 2.2047, -1.9115 0.0094 2.2047, -1.9174 0.0236 2.2047, -1.9267 0.0358 2.2047, -1.9174 -0.0354 2.2047, -1.9115 -0.0212 2.2047, -1.9094 -0.0059 2.2047, -1.9532 -0.063 2.2047, -1.939 -0.0571 2.2047, -1.9267 -0.0477 2.2047, -1.998 -0.0571 2.2047, -1.9838 -0.063 2.2047, -1.9685 -0.065 2.2047, -2.0196 -0.0354 2.2047, -2.0103 -0.0477 2.2047, -2.807 -0.0354 -1.1811, -2.8129 -0.0212 -1.1811, -2.7559 -0.0059 -1.1811, -2.815 -0.0059 -1.1811, -2.8129 0.0094 -1.1811, -2.7712 -0.063 -1.1811, -2.7854 -0.0571 -1.1811, -2.7977 -0.0477 -1.1811, -2.7264 -0.0571 -1.1811, -2.7406 -0.063 -1.1811, -2.7559 -0.065 -1.1811, -2.6989 -0.0212 -1.1811, -2.7048 -0.0354 -1.1811, -2.7141 -0.0477 -1.1811, -2.7048 0.0236 -1.1811, -2.6989 0.0094 -1.1811, -2.6969 -0.0059 -1.1811, -2.7406 0.0511 -1.1811, -2.7264 0.0452 -1.1811, -2.7141 0.0358 -1.1811, -2.7854 0.0452 -1.1811, -2.7712 0.0511 -1.1811, -2.7559 0.0531 -1.1811, -2.807 0.0236 -1.1811, -2.7977 0.0358 -1.1811, -2.8543 -0.0059 0.1575, -2.851 -0.0314 -1.1417, -2.851 -0.0314 0.1575, -2.8411 -0.0551 -1.1417, -2.8411 -0.0551 0.1575, -2.8255 -0.0755 -1.1417, -2.8255 -0.0755 0.1575, -2.8051 -0.0911 -1.1417, -2.8051 -0.0911 0.1575, -2.7814 -0.101 -1.1417, -2.7814 -0.101 0.1575, -2.7559 -0.1043 -1.1417, -2.7559 -0.1043 0.1575, -2.7304 -0.101 -1.1417, -2.7304 -0.101 0.1575, -2.7067 -0.0911 -1.1417, -2.7067 -0.0911 0.1575, -2.6863 -0.0755 -1.1417, -2.6863 -0.0755 0.1575, -2.6707 -0.0551 -1.1417, -2.6707 -0.0551 0.1575, -2.6608 -0.0314 -1.1417, -2.6608 -0.0314 0.1575, -2.6575 -0.0059 -1.1417, -2.6575 -0.0059 0.1575, -2.6608 0.0196 -1.1417, -2.6608 0.0196 0.1575, -2.6707 0.0433 -1.1417, -2.6707 0.0433 0.1575, -2.6863 0.0637 -1.1417, -2.6863 0.0637 0.1575, -2.7067 0.0793 -1.1417, -2.7067 0.0793 0.1575, -2.7304 0.0892 -1.1417, -2.7304 0.0892 0.1575, -2.7559 0.0925 -1.1417, -2.7559 0.0925 0.1575, -2.7814 0.0892 -1.1417, -2.7814 0.0892 0.1575, -2.8051 0.0793 -1.1417, -2.8051 0.0793 0.1575, -2.8255 0.0637 -1.1417, -2.8255 0.0637 0.1575, -2.8411 0.0433 -1.1417, -2.8411 0.0433 0.1575, -2.851 0.0196 -1.1417, -2.851 0.0196 0.1575, -2.8543 -0.0059 -1.1417, -2.8543 -0.0059 2.1654, -2.851 -0.0314 0.8268, -2.851 -0.0314 2.1654, -2.8411 -0.0551 0.8268, -2.8411 -0.0551 2.1654, -2.8255 -0.0755 0.8268, -2.8255 -0.0755 2.1654, -2.8051 -0.0911 0.8268, -2.8051 -0.0911 2.1654, -2.7814 -0.101 0.8268, -2.7814 -0.101 2.1654, -2.7559 -0.1043 0.8268, -2.7559 -0.1043 2.1654, -2.7304 -0.101 0.8268, -2.7304 -0.101 2.1654, -2.7067 -0.0911 0.8268, -2.7067 -0.0911 2.1654, -2.6863 -0.0755 0.8268, -2.6863 -0.0755 2.1654, -2.6707 -0.0551 0.8268, -2.6707 -0.0551 2.1654, -2.6608 -0.0314 0.8268, -2.6608 -0.0314 2.1654, -2.6575 -0.0059 0.8268, -2.6575 -0.0059 2.1654, -2.6608 0.0196 0.8268, -2.6608 0.0196 2.1654, -2.6707 0.0433 0.8268, -2.6707 0.0433 2.1654, -2.6863 0.0637 0.8268, -2.6863 0.0637 2.1654, -2.7067 0.0793 0.8268, -2.7067 0.0793 2.1654, -2.7304 0.0892 0.8268, -2.7304 0.0892 2.1654, -2.7559 0.0925 0.8268, -2.7559 0.0925 2.1654, -2.7814 0.0892 0.8268, -2.7814 0.0892 2.1654, -2.8051 0.0793 0.8268, -2.8051 0.0793 2.1654, -2.8255 0.0637 0.8268, -2.8255 0.0637 2.1654, -2.8411 0.0433 0.8268, -2.8411 0.0433 2.1654, -2.851 0.0196 0.8268, -2.851 0.0196 2.1654, -2.8543 -0.0059 0.8268, -2.807 0.0236 2.2047, -2.8129 0.0094 2.2047, -2.7559 -0.0059 2.2047, -2.815 -0.0059 2.2047, -2.8129 -0.0212 2.2047, -2.7712 0.0511 2.2047, -2.7854 0.0452 2.2047, -2.7977 0.0358 2.2047, -2.7264 0.0452 2.2047, -2.7406 0.0511 2.2047, -2.7559 0.0531 2.2047, -2.6989 0.0094 2.2047, -2.7048 0.0236 2.2047, -2.7141 0.0358 2.2047, -2.7048 -0.0354 2.2047, -2.6989 -0.0212 2.2047, -2.6969 -0.0059 2.2047, -2.7406 -0.063 2.2047, -2.7264 -0.0571 2.2047, -2.7141 -0.0477 2.2047, -2.7854 -0.0571 2.2047, -2.7712 -0.063 2.2047, -2.7559 -0.065 2.2047, -2.807 -0.0354 2.2047, -2.7977 -0.0477 2.2047, 1.13 -0.0354 -1.1811, 1.1241 -0.0212 -1.1811, 1.1811 -0.0059 -1.1811, 1.122 -0.0059 -1.1811, 1.1241 0.0094 -1.1811, 1.1658 -0.063 -1.1811, 1.1516 -0.0571 -1.1811, 1.1393 -0.0477 -1.1811, 1.2106 -0.0571 -1.1811, 1.1964 -0.063 -1.1811, 1.1811 -0.065 -1.1811, 1.2381 -0.0212 -1.1811, 1.2322 -0.0354 -1.1811, 1.2229 -0.0477 -1.1811, 1.2322 0.0236 -1.1811, 1.2381 0.0094 -1.1811, 1.2402 -0.0059 -1.1811, 1.1964 0.0511 -1.1811, 1.2106 0.0452 -1.1811, 1.2229 0.0358 -1.1811, 1.1516 0.0452 -1.1811, 1.1658 0.0511 -1.1811, 1.1811 0.0531 -1.1811, 1.13 0.0236 -1.1811, 1.1393 0.0358 -1.1811, 1.0827 -0.0059 0.1575, 1.086 -0.0314 -1.1417, 1.086 -0.0314 0.1575, 1.0959 -0.0551 -1.1417, 1.0959 -0.0551 0.1575, 1.1115 -0.0755 -1.1417, 1.1115 -0.0755 0.1575, 1.1319 -0.0911 -1.1417, 1.1319 -0.0911 0.1575, 1.1556 -0.101 -1.1417, 1.1556 -0.101 0.1575, 1.1811 -0.1043 -1.1417, 1.1811 -0.1043 0.1575, 1.2066 -0.101 -1.1417, 1.2066 -0.101 0.1575, 1.2303 -0.0911 -1.1417, 1.2303 -0.0911 0.1575, 1.2507 -0.0755 -1.1417, 1.2507 -0.0755 0.1575, 1.2663 -0.0551 -1.1417, 1.2663 -0.0551 0.1575, 1.2762 -0.0314 -1.1417, 1.2762 -0.0314 0.1575, 1.2795 -0.0059 -1.1417, 1.2795 -0.0059 0.1575, 1.2762 0.0196 -1.1417, 1.2762 0.0196 0.1575, 1.2663 0.0433 -1.1417, 1.2663 0.0433 0.1575, 1.2507 0.0637 -1.1417, 1.2507 0.0637 0.1575, 1.2303 0.0793 -1.1417, 1.2303 0.0793 0.1575, 1.2066 0.0892 -1.1417, 1.2066 0.0892 0.1575, 1.1811 0.0925 -1.1417, 1.1811 0.0925 0.1575, 1.1556 0.0892 -1.1417, 1.1556 0.0892 0.1575, 1.1319 0.0793 -1.1417, 1.1319 0.0793 0.1575, 1.1115 0.0637 -1.1417, 1.1115 0.0637 0.1575, 1.0959 0.0433 -1.1417, 1.0959 0.0433 0.1575, 1.086 0.0196 -1.1417, 1.086 0.0196 0.1575, 1.0827 -0.0059 -1.1417, 1.0827 -0.0059 2.1654, 1.086 -0.0314 0.8268, 1.086 -0.0314 2.1654, 1.0959 -0.0551 0.8268, 1.0959 -0.0551 2.1654, 1.1115 -0.0755 0.8268, 1.1115 -0.0755 2.1654, 1.1319 -0.0911 0.8268, 1.1319 -0.0911 2.1654, 1.1556 -0.101 0.8268, 1.1556 -0.101 2.1654, 1.1811 -0.1043 0.8268, 1.1811 -0.1043 2.1654, 1.2066 -0.101 0.8268, 1.2066 -0.101 2.1654, 1.2303 -0.0911 0.8268, 1.2303 -0.0911 2.1654, 1.2507 -0.0755 0.8268, 1.2507 -0.0755 2.1654, 1.2663 -0.0551 0.8268, 1.2663 -0.0551 2.1654, 1.2762 -0.0314 0.8268, 1.2762 -0.0314 2.1654, 1.2795 -0.0059 0.8268, 1.2795 -0.0059 2.1654, 1.2762 0.0196 0.8268, 1.2762 0.0196 2.1654, 1.2663 0.0433 0.8268, 1.2663 0.0433 2.1654, 1.2507 0.0637 0.8268, 1.2507 0.0637 2.1654, 1.2303 0.0793 0.8268, 1.2303 0.0793 2.1654, 1.2066 0.0892 0.8268, 1.2066 0.0892 2.1654, 1.1811 0.0925 0.8268, 1.1811 0.0925 2.1654, 1.1556 0.0892 0.8268, 1.1556 0.0892 2.1654, 1.1319 0.0793 0.8268, 1.1319 0.0793 2.1654, 1.1115 0.0637 0.8268, 1.1115 0.0637 2.1654, 1.0959 0.0433 0.8268, 1.0959 0.0433 2.1654, 1.086 0.0196 0.8268, 1.086 0.0196 2.1654, 1.0827 -0.0059 0.8268, 1.13 0.0236 2.2047, 1.1241 0.0094 2.2047, 1.1811 -0.0059 2.2047, 1.122 -0.0059 2.2047, 1.1241 -0.0212 2.2047, 1.1658 0.0511 2.2047, 1.1516 0.0452 2.2047, 1.1393 0.0358 2.2047, 1.2106 0.0452 2.2047, 1.1964 0.0511 2.2047, 1.1811 0.0531 2.2047, 1.2381 0.0094 2.2047, 1.2322 0.0236 2.2047, 1.2229 0.0358 2.2047, 1.2322 -0.0354 2.2047, 1.2381 -0.0212 2.2047, 1.2402 -0.0059 2.2047, 1.1964 -0.063 2.2047, 1.2106 -0.0571 2.2047, 1.2229 -0.0477 2.2047, 1.1516 -0.0571 2.2047, 1.1658 -0.063 2.2047, 1.1811 -0.065 2.2047, 1.13 -0.0354 2.2047, 1.1393 -0.0477 2.2047, 1.9174 -0.0354 -1.1811, 1.9115 -0.0212 -1.1811, 1.9685 -0.0059 -1.1811, 1.9094 -0.0059 -1.1811, 1.9115 0.0094 -1.1811, 1.9532 -0.063 -1.1811, 1.939 -0.0571 -1.1811, 1.9267 -0.0477 -1.1811, 1.998 -0.0571 -1.1811, 1.9838 -0.063 -1.1811, 1.9685 -0.065 -1.1811, 2.0255 -0.0212 -1.1811, 2.0196 -0.0354 -1.1811, 2.0103 -0.0477 -1.1811, 2.0196 0.0236 -1.1811, 2.0255 0.0094 -1.1811, 2.0276 -0.0059 -1.1811, 1.9838 0.0511 -1.1811, 1.998 0.0452 -1.1811, 2.0103 0.0358 -1.1811, 1.939 0.0452 -1.1811, 1.9532 0.0511 -1.1811, 1.9685 0.0531 -1.1811, 1.9174 0.0236 -1.1811, 1.9267 0.0358 -1.1811, 1.8701 -0.0059 0.1575, 1.8734 -0.0314 -1.1417, 1.8734 -0.0314 0.1575, 1.8833 -0.0551 -1.1417, 1.8833 -0.0551 0.1575, 1.8989 -0.0755 -1.1417, 1.8989 -0.0755 0.1575, 1.9193 -0.0911 -1.1417, 1.9193 -0.0911 0.1575, 1.943 -0.101 -1.1417, 1.943 -0.101 0.1575, 1.9685 -0.1043 -1.1417, 1.9685 -0.1043 0.1575, 1.994 -0.101 -1.1417, 1.994 -0.101 0.1575, 2.0177 -0.0911 -1.1417, 2.0177 -0.0911 0.1575, 2.0381 -0.0755 -1.1417, 2.0381 -0.0755 0.1575, 2.0537 -0.0551 -1.1417, 2.0537 -0.0551 0.1575, 2.0636 -0.0314 -1.1417, 2.0636 -0.0314 0.1575, 2.0669 -0.0059 -1.1417, 2.0669 -0.0059 0.1575, 2.0636 0.0196 -1.1417, 2.0636 0.0196 0.1575, 2.0537 0.0433 -1.1417, 2.0537 0.0433 0.1575, 2.0381 0.0637 -1.1417, 2.0381 0.0637 0.1575, 2.0177 0.0793 -1.1417, 2.0177 0.0793 0.1575, 1.994 0.0892 -1.1417, 1.994 0.0892 0.1575, 1.9685 0.0925 -1.1417, 1.9685 0.0925 0.1575, 1.943 0.0892 -1.1417, 1.943 0.0892 0.1575, 1.9193 0.0793 -1.1417, 1.9193 0.0793 0.1575, 1.8989 0.0637 -1.1417, 1.8989 0.0637 0.1575, 1.8833 0.0433 -1.1417, 1.8833 0.0433 0.1575, 1.8734 0.0196 -1.1417, 1.8734 0.0196 0.1575, 1.8701 -0.0059 -1.1417, 1.8701 -0.0059 2.1654, 1.8734 -0.0314 0.8268, 1.8734 -0.0314 2.1654, 1.8833 -0.0551 0.8268, 1.8833 -0.0551 2.1654, 1.8989 -0.0755 0.8268, 1.8989 -0.0755 2.1654, 1.9193 -0.0911 0.8268, 1.9193 -0.0911 2.1654, 1.943 -0.101 0.8268, 1.943 -0.101 2.1654, 1.9685 -0.1043 0.8268, 1.9685 -0.1043 2.1654, 1.994 -0.101 0.8268, 1.994 -0.101 2.1654, 2.0177 -0.0911 0.8268, 2.0177 -0.0911 2.1654, 2.0381 -0.0755 0.8268, 2.0381 -0.0755 2.1654, 2.0537 -0.0551 0.8268, 2.0537 -0.0551 2.1654, 2.0636 -0.0314 0.8268, 2.0636 -0.0314 2.1654, 2.0669 -0.0059 0.8268, 2.0669 -0.0059 2.1654, 2.0636 0.0196 0.8268, 2.0636 0.0196 2.1654, 2.0537 0.0433 0.8268, 2.0537 0.0433 2.1654, 2.0381 0.0637 0.8268, 2.0381 0.0637 2.1654, 2.0177 0.0793 0.8268, 2.0177 0.0793 2.1654, 1.994 0.0892 0.8268, 1.994 0.0892 2.1654, 1.9685 0.0925 0.8268, 1.9685 0.0925 2.1654, 1.943 0.0892 0.8268, 1.943 0.0892 2.1654, 1.9193 0.0793 0.8268, 1.9193 0.0793 2.1654, 1.8989 0.0637 0.8268, 1.8989 0.0637 2.1654, 1.8833 0.0433 0.8268, 1.8833 0.0433 2.1654, 1.8734 0.0196 0.8268, 1.8734 0.0196 2.1654, 1.8701 -0.0059 0.8268, 1.9174 0.0236 2.2047, 1.9115 0.0094 2.2047, 1.9685 -0.0059 2.2047, 1.9094 -0.0059 2.2047, 1.9115 -0.0212 2.2047, 1.9532 0.0511 2.2047, 1.939 0.0452 2.2047, 1.9267 0.0358 2.2047, 1.998 0.0452 2.2047, 1.9838 0.0511 2.2047, 1.9685 0.0531 2.2047, 2.0255 0.0094 2.2047, 2.0196 0.0236 2.2047, 2.0103 0.0358 2.2047, 2.0196 -0.0354 2.2047, 2.0255 -0.0212 2.2047, 2.0276 -0.0059 2.2047, 1.9838 -0.063 2.2047, 1.998 -0.0571 2.2047, 2.0103 -0.0477 2.2047, 1.939 -0.0571 2.2047, 1.9532 -0.063 2.2047, 1.9685 -0.065 2.2047, 1.9174 -0.0354 2.2047, 1.9267 -0.0477 2.2047, 2.7048 -0.0354 -1.1811, 2.6989 -0.0212 -1.1811, 2.7559 -0.0059 -1.1811, 2.6969 -0.0059 -1.1811, 2.6989 0.0094 -1.1811, 2.7406 -0.063 -1.1811, 2.7264 -0.0571 -1.1811, 2.7141 -0.0477 -1.1811, 2.7854 -0.0571 -1.1811, 2.7712 -0.063 -1.1811, 2.7559 -0.065 -1.1811, 2.8129 -0.0212 -1.1811, 2.807 -0.0354 -1.1811, 2.7977 -0.0477 -1.1811, 2.807 0.0236 -1.1811, 2.8129 0.0094 -1.1811, 2.815 -0.0059 -1.1811, 2.7712 0.0511 -1.1811, 2.7854 0.0452 -1.1811, 2.7977 0.0358 -1.1811, 2.7264 0.0452 -1.1811, 2.7406 0.0511 -1.1811, 2.7559 0.0531 -1.1811, 2.7048 0.0236 -1.1811, 2.7141 0.0358 -1.1811, 2.6575 -0.0059 0.1575, 2.6608 -0.0314 -1.1417, 2.6608 -0.0314 0.1575, 2.6707 -0.0551 -1.1417, 2.6707 -0.0551 0.1575, 2.6863 -0.0755 -1.1417, 2.6863 -0.0755 0.1575, 2.7067 -0.0911 -1.1417, 2.7067 -0.0911 0.1575, 2.7304 -0.101 -1.1417, 2.7304 -0.101 0.1575, 2.7559 -0.1043 -1.1417, 2.7559 -0.1043 0.1575, 2.7814 -0.101 -1.1417, 2.7814 -0.101 0.1575, 2.8051 -0.0911 -1.1417, 2.8051 -0.0911 0.1575, 2.8255 -0.0755 -1.1417, 2.8255 -0.0755 0.1575, 2.8411 -0.0551 -1.1417, 2.8411 -0.0551 0.1575, 2.851 -0.0314 -1.1417, 2.851 -0.0314 0.1575, 2.8543 -0.0059 -1.1417, 2.8543 -0.0059 0.1575, 2.851 0.0196 -1.1417, 2.851 0.0196 0.1575, 2.8411 0.0433 -1.1417, 2.8411 0.0433 0.1575, 2.8255 0.0637 -1.1417, 2.8255 0.0637 0.1575, 2.8051 0.0793 -1.1417, 2.8051 0.0793 0.1575, 2.7814 0.0892 -1.1417, 2.7814 0.0892 0.1575, 2.7559 0.0925 -1.1417, 2.7559 0.0925 0.1575, 2.7304 0.0892 -1.1417, 2.7304 0.0892 0.1575, 2.7067 0.0793 -1.1417, 2.7067 0.0793 0.1575, 2.6863 0.0637 -1.1417, 2.6863 0.0637 0.1575, 2.6707 0.0433 -1.1417, 2.6707 0.0433 0.1575, 2.6608 0.0196 -1.1417, 2.6608 0.0196 0.1575, 2.6575 -0.0059 -1.1417, 2.6575 -0.0059 2.1654, 2.6608 -0.0314 0.8268, 2.6608 -0.0314 2.1654, 2.6707 -0.0551 0.8268, 2.6707 -0.0551 2.1654, 2.6863 -0.0755 0.8268, 2.6863 -0.0755 2.1654, 2.7067 -0.0911 0.8268, 2.7067 -0.0911 2.1654, 2.7304 -0.101 0.8268, 2.7304 -0.101 2.1654, 2.7559 -0.1043 0.8268, 2.7559 -0.1043 2.1654, 2.7814 -0.101 0.8268, 2.7814 -0.101 2.1654, 2.8051 -0.0911 0.8268, 2.8051 -0.0911 2.1654, 2.8255 -0.0755 0.8268, 2.8255 -0.0755 2.1654, 2.8411 -0.0551 0.8268, 2.8411 -0.0551 2.1654, 2.851 -0.0314 0.8268, 2.851 -0.0314 2.1654, 2.8543 -0.0059 0.8268, 2.8543 -0.0059 2.1654, 2.851 0.0196 0.8268, 2.851 0.0196 2.1654, 2.8411 0.0433 0.8268, 2.8411 0.0433 2.1654, 2.8255 0.0637 0.8268, 2.8255 0.0637 2.1654, 2.8051 0.0793 0.8268, 2.8051 0.0793 2.1654, 2.7814 0.0892 0.8268, 2.7814 0.0892 2.1654, 2.7559 0.0925 0.8268, 2.7559 0.0925 2.1654, 2.7304 0.0892 0.8268, 2.7304 0.0892 2.1654, 2.7067 0.0793 0.8268, 2.7067 0.0793 2.1654, 2.6863 0.0637 0.8268, 2.6863 0.0637 2.1654, 2.6707 0.0433 0.8268, 2.6707 0.0433 2.1654, 2.6608 0.0196 0.8268, 2.6608 0.0196 2.1654, 2.6575 -0.0059 0.8268, 2.7048 0.0236 2.2047, 2.6989 0.0094 2.2047, 2.7559 -0.0059 2.2047, 2.6969 -0.0059 2.2047, 2.6989 -0.0212 2.2047, 2.7406 0.0511 2.2047, 2.7264 0.0452 2.2047, 2.7141 0.0358 2.2047, 2.7854 0.0452 2.2047, 2.7712 0.0511 2.2047, 2.7559 0.0531 2.2047, 2.8129 0.0094 2.2047, 2.807 0.0236 2.2047, 2.7977 0.0358 2.2047, 2.807 -0.0354 2.2047, 2.8129 -0.0212 2.2047, 2.815 -0.0059 2.2047, 2.7712 -0.063 2.2047, 2.7854 -0.0571 2.2047, 2.7977 -0.0477 2.2047, 2.7264 -0.0571 2.2047, 2.7406 -0.063 2.2047, 2.7559 -0.065 2.2047, 2.7048 -0.0354 2.2047, 2.7141 -0.0477 2.2047
            ]
        }
        coordIndex [
            0,1,2,-1,2,1,3,-1,2,3,4,-1,5,6,2,-1,2,6,7,-1,2,7,0,-1,8,9,2,-1,2,9,10,-1,2,10,5,-1,11,12,2,-1,2,12,13,-1,2,13,8,-1,14,15,2,-1,2,15,16,-1,2,16,11,-1,17,18,2,-1,2,18,19,-1,2,19,14,-1,20,21,2,-1,2,21,22,-1,2,22,17,-1,4,23,2,-1,2,23,24,-1,2,24,20,-1,25,26,27,-1,27,26,28,-1,27,28,29,-1,29,28,30,-1,29,30,31,-1,31,30,32,-1,31,32,33,-1,33,32,34,-1,33,34,35,-1,35,34,36,-1,35,36,37,-1,37,36,38,-1,37,38,39,-1,39,38,40,-1,39,40,41,-1,41,40,42,-1,41,42,43,-1,43,42,44,-1,43,44,45,-1,45,44,46,-1,45,46,47,-1,47,46,48,-1,47,48,49,-1,49,48,50,-1,49,50,51,-1,51,50,52,-1,51,52,53,-1,53,52,54,-1,53,54,55,-1,55,54,56,-1,55,56,57,-1,57,56,58,-1,57,58,59,-1,59,58,60,-1,59,60,61,-1,61,60,62,-1,61,62,63,-1,63,62,64,-1,63,64,65,-1,65,64,66,-1,65,66,67,-1,67,66,68,-1,67,68,69,-1,69,68,70,-1,69,70,71,-1,71,70,72,-1,71,72,25,-1,25,72,26,-1,73,74,75,-1,75,74,76,-1,75,76,77,-1,77,76,78,-1,77,78,79,-1,79,78,80,-1,79,80,81,-1,81,80,82,-1,81,82,83,-1,83,82,84,-1,83,84,85,-1,85,84,86,-1,85,86,87,-1,87,86,88,-1,87,88,89,-1,89,88,90,-1,89,90,91,-1,91,90,92,-1,91,92,93,-1,93,92,94,-1,93,94,95,-1,95,94,96,-1,95,96,97,-1,97,96,98,-1,97,98,99,-1,99,98,100,-1,99,100,101,-1,101,100,102,-1,101,102,103,-1,103,102,104,-1,103,104,105,-1,105,104,106,-1,105,106,107,-1,107,106,108,-1,107,108,109,-1,109,108,110,-1,109,110,111,-1,111,110,112,-1,111,112,113,-1,113,112,114,-1,113,114,115,-1,115,114,116,-1,115,116,117,-1,117,116,118,-1,117,118,119,-1,119,118,120,-1,119,120,73,-1,73,120,74,-1,121,122,123,-1,123,122,124,-1,123,124,125,-1,126,127,123,-1,123,127,128,-1,123,128,121,-1,129,130,123,-1,123,130,131,-1,123,131,126,-1,132,133,123,-1,123,133,134,-1,123,134,129,-1,135,136,123,-1,123,136,137,-1,123,137,132,-1,138,139,123,-1,123,139,140,-1,123,140,135,-1,141,142,123,-1,123,142,143,-1,123,143,138,-1,125,144,123,-1,123,144,145,-1,123,145,141,-1,97,136,95,-1,95,136,135,-1,95,135,93,-1,93,135,140,-1,93,140,91,-1,91,140,139,-1,91,139,89,-1,89,139,138,-1,89,138,87,-1,87,138,143,-1,87,143,85,-1,85,143,142,-1,85,142,83,-1,83,142,141,-1,83,141,81,-1,81,141,145,-1,81,145,79,-1,79,145,144,-1,79,144,77,-1,77,144,125,-1,77,125,75,-1,75,125,124,-1,75,124,73,-1,73,124,122,-1,73,122,119,-1,119,122,121,-1,119,121,117,-1,117,121,128,-1,117,128,115,-1,115,128,127,-1,115,127,113,-1,113,127,126,-1,113,126,111,-1,111,126,131,-1,111,131,109,-1,109,131,130,-1,109,130,107,-1,107,130,129,-1,107,129,105,-1,105,129,134,-1,105,134,103,-1,103,134,133,-1,103,133,101,-1,101,133,132,-1,101,132,99,-1,99,132,137,-1,99,137,97,-1,97,137,136,-1,72,1,26,-1,26,1,0,-1,26,0,28,-1,28,0,7,-1,28,7,30,-1,30,7,6,-1,30,6,32,-1,32,6,5,-1,32,5,34,-1,34,5,10,-1,34,10,36,-1,36,10,9,-1,36,9,38,-1,38,9,8,-1,38,8,40,-1,40,8,13,-1,40,13,42,-1,42,13,12,-1,42,12,44,-1,44,12,11,-1,44,11,46,-1,46,11,16,-1,46,16,48,-1,48,16,15,-1,48,15,50,-1,50,15,14,-1,50,14,52,-1,52,14,19,-1,52,19,54,-1,54,19,18,-1,54,18,56,-1,56,18,17,-1,56,17,58,-1,58,17,22,-1,58,22,60,-1,60,22,21,-1,60,21,62,-1,62,21,20,-1,62,20,64,-1,64,20,24,-1,64,24,66,-1,66,24,23,-1,66,23,68,-1,68,23,4,-1,68,4,70,-1,70,4,3,-1,70,3,72,-1,72,3,1,-1,146,147,148,-1,148,147,149,-1,148,149,150,-1,151,152,148,-1,148,152,153,-1,148,153,146,-1,154,155,148,-1,148,155,156,-1,148,156,151,-1,157,158,148,-1,148,158,159,-1,148,159,154,-1,160,161,148,-1,148,161,162,-1,148,162,157,-1,163,164,148,-1,148,164,165,-1,148,165,160,-1,166,167,148,-1,148,167,168,-1,148,168,163,-1,150,169,148,-1,148,169,170,-1,148,170,166,-1,171,172,173,-1,173,172,174,-1,173,174,175,-1,175,174,176,-1,175,176,177,-1,177,176,178,-1,177,178,179,-1,179,178,180,-1,179,180,181,-1,181,180,182,-1,181,182,183,-1,183,182,184,-1,183,184,185,-1,185,184,186,-1,185,186,187,-1,187,186,188,-1,187,188,189,-1,189,188,190,-1,189,190,191,-1,191,190,192,-1,191,192,193,-1,193,192,194,-1,193,194,195,-1,195,194,196,-1,195,196,197,-1,197,196,198,-1,197,198,199,-1,199,198,200,-1,199,200,201,-1,201,200,202,-1,201,202,203,-1,203,202,204,-1,203,204,205,-1,205,204,206,-1,205,206,207,-1,207,206,208,-1,207,208,209,-1,209,208,210,-1,209,210,211,-1,211,210,212,-1,211,212,213,-1,213,212,214,-1,213,214,215,-1,215,214,216,-1,215,216,217,-1,217,216,218,-1,217,218,171,-1,171,218,172,-1,219,220,221,-1,221,220,222,-1,221,222,223,-1,223,222,224,-1,223,224,225,-1,225,224,226,-1,225,226,227,-1,227,226,228,-1,227,228,229,-1,229,228,230,-1,229,230,231,-1,231,230,232,-1,231,232,233,-1,233,232,234,-1,233,234,235,-1,235,234,236,-1,235,236,237,-1,237,236,238,-1,237,238,239,-1,239,238,240,-1,239,240,241,-1,241,240,242,-1,241,242,243,-1,243,242,244,-1,243,244,245,-1,245,244,246,-1,245,246,247,-1,247,246,248,-1,247,248,249,-1,249,248,250,-1,249,250,251,-1,251,250,252,-1,251,252,253,-1,253,252,254,-1,253,254,255,-1,255,254,256,-1,255,256,257,-1,257,256,258,-1,257,258,259,-1,259,258,260,-1,259,260,261,-1,261,260,262,-1,261,262,263,-1,263,262,264,-1,263,264,265,-1,265,264,266,-1,265,266,219,-1,219,266,220,-1,267,268,269,-1,269,268,270,-1,269,270,271,-1,272,273,269,-1,269,273,274,-1,269,274,267,-1,275,276,269,-1,269,276,277,-1,269,277,272,-1,278,279,269,-1,269,279,280,-1,269,280,275,-1,281,282,269,-1,269,282,283,-1,269,283,278,-1,284,285,269,-1,269,285,286,-1,269,286,281,-1,287,288,269,-1,269,288,289,-1,269,289,284,-1,271,290,269,-1,269,290,291,-1,269,291,287,-1,292,293,294,-1,294,293,295,-1,294,295,296,-1,297,298,294,-1,294,298,299,-1,294,299,292,-1,300,301,294,-1,294,301,302,-1,294,302,297,-1,303,304,294,-1,294,304,305,-1,294,305,300,-1,306,307,294,-1,294,307,308,-1,294,308,303,-1,309,310,294,-1,294,310,311,-1,294,311,306,-1,312,313,294,-1,294,313,314,-1,294,314,309,-1,296,315,294,-1,294,315,316,-1,294,316,312,-1,317,318,319,-1,319,318,320,-1,319,320,321,-1,321,320,322,-1,321,322,323,-1,323,322,324,-1,323,324,325,-1,325,324,326,-1,325,326,327,-1,327,326,328,-1,327,328,329,-1,329,328,330,-1,329,330,331,-1,331,330,332,-1,331,332,333,-1,333,332,334,-1,333,334,335,-1,335,334,336,-1,335,336,337,-1,337,336,338,-1,337,338,339,-1,339,338,340,-1,339,340,341,-1,341,340,342,-1,341,342,343,-1,343,342,344,-1,343,344,345,-1,345,344,346,-1,345,346,347,-1,347,346,348,-1,347,348,349,-1,349,348,350,-1,349,350,351,-1,351,350,352,-1,351,352,353,-1,353,352,354,-1,353,354,355,-1,355,354,356,-1,355,356,357,-1,357,356,358,-1,357,358,359,-1,359,358,360,-1,359,360,361,-1,361,360,362,-1,361,362,363,-1,363,362,364,-1,363,364,317,-1,317,364,318,-1,365,366,367,-1,367,366,368,-1,367,368,369,-1,369,368,370,-1,369,370,371,-1,371,370,372,-1,371,372,373,-1,373,372,374,-1,373,374,375,-1,375,374,376,-1,375,376,377,-1,377,376,378,-1,377,378,379,-1,379,378,380,-1,379,380,381,-1,381,380,382,-1,381,382,383,-1,383,382,384,-1,383,384,385,-1,385,384,386,-1,385,386,387,-1,387,386,388,-1,387,388,389,-1,389,388,390,-1,389,390,391,-1,391,390,392,-1,391,392,393,-1,393,392,394,-1,393,394,395,-1,395,394,396,-1,395,396,397,-1,397,396,398,-1,397,398,399,-1,399,398,400,-1,399,400,401,-1,401,400,402,-1,401,402,403,-1,403,402,404,-1,403,404,405,-1,405,404,406,-1,405,406,407,-1,407,406,408,-1,407,408,409,-1,409,408,410,-1,409,410,411,-1,411,410,412,-1,411,412,365,-1,365,412,366,-1,413,414,415,-1,415,414,416,-1,415,416,417,-1,418,419,415,-1,415,419,420,-1,415,420,413,-1,421,422,415,-1,415,422,423,-1,415,423,418,-1,424,425,415,-1,415,425,426,-1,415,426,421,-1,427,428,415,-1,415,428,429,-1,415,429,424,-1,430,431,415,-1,415,431,432,-1,415,432,427,-1,433,434,415,-1,415,434,435,-1,415,435,430,-1,417,436,415,-1,415,436,437,-1,415,437,433,-1,438,439,440,-1,440,439,441,-1,440,441,442,-1,443,444,440,-1,440,444,445,-1,440,445,438,-1,446,447,440,-1,440,447,448,-1,440,448,443,-1,449,450,440,-1,440,450,451,-1,440,451,446,-1,452,453,440,-1,440,453,454,-1,440,454,449,-1,455,456,440,-1,440,456,457,-1,440,457,452,-1,458,459,440,-1,440,459,460,-1,440,460,455,-1,442,461,440,-1,440,461,462,-1,440,462,458,-1,463,464,465,-1,465,464,466,-1,465,466,467,-1,467,466,468,-1,467,468,469,-1,469,468,470,-1,469,470,471,-1,471,470,472,-1,471,472,473,-1,473,472,474,-1,473,474,475,-1,475,474,476,-1,475,476,477,-1,477,476,478,-1,477,478,479,-1,479,478,480,-1,479,480,481,-1,481,480,482,-1,481,482,483,-1,483,482,484,-1,483,484,485,-1,485,484,486,-1,485,486,487,-1,487,486,488,-1,487,488,489,-1,489,488,490,-1,489,490,491,-1,491,490,492,-1,491,492,493,-1,493,492,494,-1,493,494,495,-1,495,494,496,-1,495,496,497,-1,497,496,498,-1,497,498,499,-1,499,498,500,-1,499,500,501,-1,501,500,502,-1,501,502,503,-1,503,502,504,-1,503,504,505,-1,505,504,506,-1,505,506,507,-1,507,506,508,-1,507,508,509,-1,509,508,510,-1,509,510,463,-1,463,510,464,-1,511,512,513,-1,513,512,514,-1,513,514,515,-1,515,514,516,-1,515,516,517,-1,517,516,518,-1,517,518,519,-1,519,518,520,-1,519,520,521,-1,521,520,522,-1,521,522,523,-1,523,522,524,-1,523,524,525,-1,525,524,526,-1,525,526,527,-1,527,526,528,-1,527,528,529,-1,529,528,530,-1,529,530,531,-1,531,530,532,-1,531,532,533,-1,533,532,534,-1,533,534,535,-1,535,534,536,-1,535,536,537,-1,537,536,538,-1,537,538,539,-1,539,538,540,-1,539,540,541,-1,541,540,542,-1,541,542,543,-1,543,542,544,-1,543,544,545,-1,545,544,546,-1,545,546,547,-1,547,546,548,-1,547,548,549,-1,549,548,550,-1,549,550,551,-1,551,550,552,-1,551,552,553,-1,553,552,554,-1,553,554,555,-1,555,554,556,-1,555,556,557,-1,557,556,558,-1,557,558,511,-1,511,558,512,-1,559,560,561,-1,561,560,562,-1,561,562,563,-1,564,565,561,-1,561,565,566,-1,561,566,559,-1,567,568,561,-1,561,568,569,-1,561,569,564,-1,570,571,561,-1,561,571,572,-1,561,572,567,-1,573,574,561,-1,561,574,575,-1,561,575,570,-1,576,577,561,-1,561,577,578,-1,561,578,573,-1,579,580,561,-1,561,580,581,-1,561,581,576,-1,563,582,561,-1,561,582,583,-1,561,583,579,-1,584,585,586,-1,586,585,587,-1,586,587,588,-1,589,590,586,-1,586,590,591,-1,586,591,584,-1,592,593,586,-1,586,593,594,-1,586,594,589,-1,595,596,586,-1,586,596,597,-1,586,597,592,-1,598,599,586,-1,586,599,600,-1,586,600,595,-1,601,602,586,-1,586,602,603,-1,586,603,598,-1,604,605,586,-1,586,605,606,-1,586,606,601,-1,588,607,586,-1,586,607,608,-1,586,608,604,-1,609,610,611,-1,611,610,612,-1,611,612,613,-1,613,612,614,-1,613,614,615,-1,615,614,616,-1,615,616,617,-1,617,616,618,-1,617,618,619,-1,619,618,620,-1,619,620,621,-1,621,620,622,-1,621,622,623,-1,623,622,624,-1,623,624,625,-1,625,624,626,-1,625,626,627,-1,627,626,628,-1,627,628,629,-1,629,628,630,-1,629,630,631,-1,631,630,632,-1,631,632,633,-1,633,632,634,-1,633,634,635,-1,635,634,636,-1,635,636,637,-1,637,636,638,-1,637,638,639,-1,639,638,640,-1,639,640,641,-1,641,640,642,-1,641,642,643,-1,643,642,644,-1,643,644,645,-1,645,644,646,-1,645,646,647,-1,647,646,648,-1,647,648,649,-1,649,648,650,-1,649,650,651,-1,651,650,652,-1,651,652,653,-1,653,652,654,-1,653,654,655,-1,655,654,656,-1,655,656,609,-1,609,656,610,-1,657,658,659,-1,659,658,660,-1,659,660,661,-1,661,660,662,-1,661,662,663,-1,663,662,664,-1,663,664,665,-1,665,664,666,-1,665,666,667,-1,667,666,668,-1,667,668,669,-1,669,668,670,-1,669,670,671,-1,671,670,672,-1,671,672,673,-1,673,672,674,-1,673,674,675,-1,675,674,676,-1,675,676,677,-1,677,676,678,-1,677,678,679,-1,679,678,680,-1,679,680,681,-1,681,680,682,-1,681,682,683,-1,683,682,684,-1,683,684,685,-1,685,684,686,-1,685,686,687,-1,687,686,688,-1,687,688,689,-1,689,688,690,-1,689,690,691,-1,691,690,692,-1,691,692,693,-1,693,692,694,-1,693,694,695,-1,695,694,696,-1,695,696,697,-1,697,696,698,-1,697,698,699,-1,699,698,700,-1,699,700,701,-1,701,700,702,-1,701,702,703,-1,703,702,704,-1,703,704,657,-1,657,704,658,-1,705,706,707,-1,707,706,708,-1,707,708,709,-1,710,711,707,-1,707,711,712,-1,707,712,705,-1,713,714,707,-1,707,714,715,-1,707,715,710,-1,716,717,707,-1,707,717,718,-1,707,718,713,-1,719,720,707,-1,707,720,721,-1,707,721,716,-1,722,723,707,-1,707,723,724,-1,707,724,719,-1,725,726,707,-1,707,726,727,-1,707,727,722,-1,709,728,707,-1,707,728,729,-1,707,729,725,-1,730,731,732,-1,732,731,733,-1,732,733,734,-1,735,736,732,-1,732,736,737,-1,732,737,730,-1,738,739,732,-1,732,739,740,-1,732,740,735,-1,741,742,732,-1,732,742,743,-1,732,743,738,-1,744,745,732,-1,732,745,746,-1,732,746,741,-1,747,748,732,-1,732,748,749,-1,732,749,744,-1,750,751,732,-1,732,751,752,-1,732,752,747,-1,734,753,732,-1,732,753,754,-1,732,754,750,-1,755,756,757,-1,757,756,758,-1,757,758,759,-1,759,758,760,-1,759,760,761,-1,761,760,762,-1,761,762,763,-1,763,762,764,-1,763,764,765,-1,765,764,766,-1,765,766,767,-1,767,766,768,-1,767,768,769,-1,769,768,770,-1,769,770,771,-1,771,770,772,-1,771,772,773,-1,773,772,774,-1,773,774,775,-1,775,774,776,-1,775,776,777,-1,777,776,778,-1,777,778,779,-1,779,778,780,-1,779,780,781,-1,781,780,782,-1,781,782,783,-1,783,782,784,-1,783,784,785,-1,785,784,786,-1,785,786,787,-1,787,786,788,-1,787,788,789,-1,789,788,790,-1,789,790,791,-1,791,790,792,-1,791,792,793,-1,793,792,794,-1,793,794,795,-1,795,794,796,-1,795,796,797,-1,797,796,798,-1,797,798,799,-1,799,798,800,-1,799,800,801,-1,801,800,802,-1,801,802,755,-1,755,802,756,-1,803,804,805,-1,805,804,806,-1,805,806,807,-1,807,806,808,-1,807,808,809,-1,809,808,810,-1,809,810,811,-1,811,810,812,-1,811,812,813,-1,813,812,814,-1,813,814,815,-1,815,814,816,-1,815,816,817,-1,817,816,818,-1,817,818,819,-1,819,818,820,-1,819,820,821,-1,821,820,822,-1,821,822,823,-1,823,822,824,-1,823,824,825,-1,825,824,826,-1,825,826,827,-1,827,826,828,-1,827,828,829,-1,829,828,830,-1,829,830,831,-1,831,830,832,-1,831,832,833,-1,833,832,834,-1,833,834,835,-1,835,834,836,-1,835,836,837,-1,837,836,838,-1,837,838,839,-1,839,838,840,-1,839,840,841,-1,841,840,842,-1,841,842,843,-1,843,842,844,-1,843,844,845,-1,845,844,846,-1,845,846,847,-1,847,846,848,-1,847,848,849,-1,849,848,850,-1,849,850,803,-1,803,850,804,-1,851,852,853,-1,853,852,854,-1,853,854,855,-1,856,857,853,-1,853,857,858,-1,853,858,851,-1,859,860,853,-1,853,860,861,-1,853,861,856,-1,862,863,853,-1,853,863,864,-1,853,864,859,-1,865,866,853,-1,853,866,867,-1,853,867,862,-1,868,869,853,-1,853,869,870,-1,853,870,865,-1,871,872,853,-1,853,872,873,-1,853,873,868,-1,855,874,853,-1,853,874,875,-1,853,875,871,-1,876,877,878,-1,878,877,879,-1,878,879,880,-1,881,882,878,-1,878,882,883,-1,878,883,876,-1,884,885,878,-1,878,885,886,-1,878,886,881,-1,887,888,878,-1,878,888,889,-1,878,889,884,-1,890,891,878,-1,878,891,892,-1,878,892,887,-1,893,894,878,-1,878,894,895,-1,878,895,890,-1,896,897,878,-1,878,897,898,-1,878,898,893,-1,880,899,878,-1,878,899,900,-1,878,900,896,-1,901,902,903,-1,903,902,904,-1,903,904,905,-1,905,904,906,-1,905,906,907,-1,907,906,908,-1,907,908,909,-1,909,908,910,-1,909,910,911,-1,911,910,912,-1,911,912,913,-1,913,912,914,-1,913,914,915,-1,915,914,916,-1,915,916,917,-1,917,916,918,-1,917,918,919,-1,919,918,920,-1,919,920,921,-1,921,920,922,-1,921,922,923,-1,923,922,924,-1,923,924,925,-1,925,924,926,-1,925,926,927,-1,927,926,928,-1,927,928,929,-1,929,928,930,-1,929,930,931,-1,931,930,932,-1,931,932,933,-1,933,932,934,-1,933,934,935,-1,935,934,936,-1,935,936,937,-1,937,936,938,-1,937,938,939,-1,939,938,940,-1,939,940,941,-1,941,940,942,-1,941,942,943,-1,943,942,944,-1,943,944,945,-1,945,944,946,-1,945,946,947,-1,947,946,948,-1,947,948,901,-1,901,948,902,-1,949,950,951,-1,951,950,952,-1,951,952,953,-1,953,952,954,-1,953,954,955,-1,955,954,956,-1,955,956,957,-1,957,956,958,-1,957,958,959,-1,959,958,960,-1,959,960,961,-1,961,960,962,-1,961,962,963,-1,963,962,964,-1,963,964,965,-1,965,964,966,-1,965,966,967,-1,967,966,968,-1,967,968,969,-1,969,968,970,-1,969,970,971,-1,971,970,972,-1,971,972,973,-1,973,972,974,-1,973,974,975,-1,975,974,976,-1,975,976,977,-1,977,976,978,-1,977,978,979,-1,979,978,980,-1,979,980,981,-1,981,980,982,-1,981,982,983,-1,983,982,984,-1,983,984,985,-1,985,984,986,-1,985,986,987,-1,987,986,988,-1,987,988,989,-1,989,988,990,-1,989,990,991,-1,991,990,992,-1,991,992,993,-1,993,992,994,-1,993,994,995,-1,995,994,996,-1,995,996,949,-1,949,996,950,-1,997,998,999,-1,999,998,1000,-1,999,1000,1001,-1,1002,1003,999,-1,999,1003,1004,-1,999,1004,997,-1,1005,1006,999,-1,999,1006,1007,-1,999,1007,1002,-1,1008,1009,999,-1,999,1009,1010,-1,999,1010,1005,-1,1011,1012,999,-1,999,1012,1013,-1,999,1013,1008,-1,1014,1015,999,-1,999,1015,1016,-1,999,1016,1011,-1,1017,1018,999,-1,999,1018,1019,-1,999,1019,1014,-1,1001,1020,999,-1,999,1020,1021,-1,999,1021,1017,-1,1022,1023,1024,-1,1024,1023,1025,-1,1024,1025,1026,-1,1027,1028,1024,-1,1024,1028,1029,-1,1024,1029,1022,-1,1030,1031,1024,-1,1024,1031,1032,-1,1024,1032,1027,-1,1033,1034,1024,-1,1024,1034,1035,-1,1024,1035,1030,-1,1036,1037,1024,-1,1024,1037,1038,-1,1024,1038,1033,-1,1039,1040,1024,-1,1024,1040,1041,-1,1024,1041,1036,-1,1042,1043,1024,-1,1024,1043,1044,-1,1024,1044,1039,-1,1026,1045,1024,-1,1024,1045,1046,-1,1024,1046,1042,-1,1047,1048,1049,-1,1049,1048,1050,-1,1049,1050,1051,-1,1051,1050,1052,-1,1051,1052,1053,-1,1053,1052,1054,-1,1053,1054,1055,-1,1055,1054,1056,-1,1055,1056,1057,-1,1057,1056,1058,-1,1057,1058,1059,-1,1059,1058,1060,-1,1059,1060,1061,-1,1061,1060,1062,-1,1061,1062,1063,-1,1063,1062,1064,-1,1063,1064,1065,-1,1065,1064,1066,-1,1065,1066,1067,-1,1067,1066,1068,-1,1067,1068,1069,-1,1069,1068,1070,-1,1069,1070,1071,-1,1071,1070,1072,-1,1071,1072,1073,-1,1073,1072,1074,-1,1073,1074,1075,-1,1075,1074,1076,-1,1075,1076,1077,-1,1077,1076,1078,-1,1077,1078,1079,-1,1079,1078,1080,-1,1079,1080,1081,-1,1081,1080,1082,-1,1081,1082,1083,-1,1083,1082,1084,-1,1083,1084,1085,-1,1085,1084,1086,-1,1085,1086,1087,-1,1087,1086,1088,-1,1087,1088,1089,-1,1089,1088,1090,-1,1089,1090,1091,-1,1091,1090,1092,-1,1091,1092,1093,-1,1093,1092,1094,-1,1093,1094,1047,-1,1047,1094,1048,-1,1095,1096,1097,-1,1097,1096,1098,-1,1097,1098,1099,-1,1099,1098,1100,-1,1099,1100,1101,-1,1101,1100,1102,-1,1101,1102,1103,-1,1103,1102,1104,-1,1103,1104,1105,-1,1105,1104,1106,-1,1105,1106,1107,-1,1107,1106,1108,-1,1107,1108,1109,-1,1109,1108,1110,-1,1109,1110,1111,-1,1111,1110,1112,-1,1111,1112,1113,-1,1113,1112,1114,-1,1113,1114,1115,-1,1115,1114,1116,-1,1115,1116,1117,-1,1117,1116,1118,-1,1117,1118,1119,-1,1119,1118,1120,-1,1119,1120,1121,-1,1121,1120,1122,-1,1121,1122,1123,-1,1123,1122,1124,-1,1123,1124,1125,-1,1125,1124,1126,-1,1125,1126,1127,-1,1127,1126,1128,-1,1127,1128,1129,-1,1129,1128,1130,-1,1129,1130,1131,-1,1131,1130,1132,-1,1131,1132,1133,-1,1133,1132,1134,-1,1133,1134,1135,-1,1135,1134,1136,-1,1135,1136,1137,-1,1137,1136,1138,-1,1137,1138,1139,-1,1139,1138,1140,-1,1139,1140,1141,-1,1141,1140,1142,-1,1141,1142,1095,-1,1095,1142,1096,-1,1143,1144,1145,-1,1145,1144,1146,-1,1145,1146,1147,-1,1148,1149,1145,-1,1145,1149,1150,-1,1145,1150,1143,-1,1151,1152,1145,-1,1145,1152,1153,-1,1145,1153,1148,-1,1154,1155,1145,-1,1145,1155,1156,-1,1145,1156,1151,-1,1157,1158,1145,-1,1145,1158,1159,-1,1145,1159,1154,-1,1160,1161,1145,-1,1145,1161,1162,-1,1145,1162,1157,-1,1163,1164,1145,-1,1145,1164,1165,-1,1145,1165,1160,-1,1147,1166,1145,-1,1145,1166,1167,-1,1145,1167,1163,-1,243,282,241,-1,241,282,281,-1,241,281,239,-1,239,281,286,-1,239,286,237,-1,237,286,285,-1,237,285,235,-1,235,285,284,-1,235,284,233,-1,233,284,289,-1,233,289,231,-1,231,289,288,-1,231,288,229,-1,229,288,287,-1,229,287,227,-1,227,287,291,-1,227,291,225,-1,225,291,290,-1,225,290,223,-1,223,290,271,-1,223,271,221,-1,221,271,270,-1,221,270,219,-1,219,270,268,-1,219,268,265,-1,265,268,267,-1,265,267,263,-1,263,267,274,-1,263,274,261,-1,261,274,273,-1,261,273,259,-1,259,273,272,-1,259,272,257,-1,257,272,277,-1,257,277,255,-1,255,277,276,-1,255,276,253,-1,253,276,275,-1,253,275,251,-1,251,275,280,-1,251,280,249,-1,249,280,279,-1,249,279,247,-1,247,279,278,-1,247,278,245,-1,245,278,283,-1,245,283,243,-1,243,283,282,-1,218,147,172,-1,172,147,146,-1,172,146,174,-1,174,146,153,-1,174,153,176,-1,176,153,152,-1,176,152,178,-1,178,152,151,-1,178,151,180,-1,180,151,156,-1,180,156,182,-1,182,156,155,-1,182,155,184,-1,184,155,154,-1,184,154,186,-1,186,154,159,-1,186,159,188,-1,188,159,158,-1,188,158,190,-1,190,158,157,-1,190,157,192,-1,192,157,162,-1,192,162,194,-1,194,162,161,-1,194,161,196,-1,196,161,160,-1,196,160,198,-1,198,160,165,-1,198,165,200,-1,200,165,164,-1,200,164,202,-1,202,164,163,-1,202,163,204,-1,204,163,168,-1,204,168,206,-1,206,168,167,-1,206,167,208,-1,208,167,166,-1,208,166,210,-1,210,166,170,-1,210,170,212,-1,212,170,169,-1,212,169,214,-1,214,169,150,-1,214,150,216,-1,216,150,149,-1,216,149,218,-1,218,149,147,-1,389,428,387,-1,387,428,427,-1,387,427,385,-1,385,427,432,-1,385,432,383,-1,383,432,431,-1,383,431,381,-1,381,431,430,-1,381,430,379,-1,379,430,435,-1,379,435,377,-1,377,435,434,-1,377,434,375,-1,375,434,433,-1,375,433,373,-1,373,433,437,-1,373,437,371,-1,371,437,436,-1,371,436,369,-1,369,436,417,-1,369,417,367,-1,367,417,416,-1,367,416,365,-1,365,416,414,-1,365,414,411,-1,411,414,413,-1,411,413,409,-1,409,413,420,-1,409,420,407,-1,407,420,419,-1,407,419,405,-1,405,419,418,-1,405,418,403,-1,403,418,423,-1,403,423,401,-1,401,423,422,-1,401,422,399,-1,399,422,421,-1,399,421,397,-1,397,421,426,-1,397,426,395,-1,395,426,425,-1,395,425,393,-1,393,425,424,-1,393,424,391,-1,391,424,429,-1,391,429,389,-1,389,429,428,-1,364,293,318,-1,318,293,292,-1,318,292,320,-1,320,292,299,-1,320,299,322,-1,322,299,298,-1,322,298,324,-1,324,298,297,-1,324,297,326,-1,326,297,302,-1,326,302,328,-1,328,302,301,-1,328,301,330,-1,330,301,300,-1,330,300,332,-1,332,300,305,-1,332,305,334,-1,334,305,304,-1,334,304,336,-1,336,304,303,-1,336,303,338,-1,338,303,308,-1,338,308,340,-1,340,308,307,-1,340,307,342,-1,342,307,306,-1,342,306,344,-1,344,306,311,-1,344,311,346,-1,346,311,310,-1,346,310,348,-1,348,310,309,-1,348,309,350,-1,350,309,314,-1,350,314,352,-1,352,314,313,-1,352,313,354,-1,354,313,312,-1,354,312,356,-1,356,312,316,-1,356,316,358,-1,358,316,315,-1,358,315,360,-1,360,315,296,-1,360,296,362,-1,362,296,295,-1,362,295,364,-1,364,295,293,-1,535,574,533,-1,533,574,573,-1,533,573,531,-1,531,573,578,-1,531,578,529,-1,529,578,577,-1,529,577,527,-1,527,577,576,-1,527,576,525,-1,525,576,581,-1,525,581,523,-1,523,581,580,-1,523,580,521,-1,521,580,579,-1,521,579,519,-1,519,579,583,-1,519,583,517,-1,517,583,582,-1,517,582,515,-1,515,582,563,-1,515,563,513,-1,513,563,562,-1,513,562,511,-1,511,562,560,-1,511,560,557,-1,557,560,559,-1,557,559,555,-1,555,559,566,-1,555,566,553,-1,553,566,565,-1,553,565,551,-1,551,565,564,-1,551,564,549,-1,549,564,569,-1,549,569,547,-1,547,569,568,-1,547,568,545,-1,545,568,567,-1,545,567,543,-1,543,567,572,-1,543,572,541,-1,541,572,571,-1,541,571,539,-1,539,571,570,-1,539,570,537,-1,537,570,575,-1,537,575,535,-1,535,575,574,-1,510,439,464,-1,464,439,438,-1,464,438,466,-1,466,438,445,-1,466,445,468,-1,468,445,444,-1,468,444,470,-1,470,444,443,-1,470,443,472,-1,472,443,448,-1,472,448,474,-1,474,448,447,-1,474,447,476,-1,476,447,446,-1,476,446,478,-1,478,446,451,-1,478,451,480,-1,480,451,450,-1,480,450,482,-1,482,450,449,-1,482,449,484,-1,484,449,454,-1,484,454,486,-1,486,454,453,-1,486,453,488,-1,488,453,452,-1,488,452,490,-1,490,452,457,-1,490,457,492,-1,492,457,456,-1,492,456,494,-1,494,456,455,-1,494,455,496,-1,496,455,460,-1,496,460,498,-1,498,460,459,-1,498,459,500,-1,500,459,458,-1,500,458,502,-1,502,458,462,-1,502,462,504,-1,504,462,461,-1,504,461,506,-1,506,461,442,-1,506,442,508,-1,508,442,441,-1,508,441,510,-1,510,441,439,-1,681,720,679,-1,679,720,719,-1,679,719,677,-1,677,719,724,-1,677,724,675,-1,675,724,723,-1,675,723,673,-1,673,723,722,-1,673,722,671,-1,671,722,727,-1,671,727,669,-1,669,727,726,-1,669,726,667,-1,667,726,725,-1,667,725,665,-1,665,725,729,-1,665,729,663,-1,663,729,728,-1,663,728,661,-1,661,728,709,-1,661,709,659,-1,659,709,708,-1,659,708,657,-1,657,708,706,-1,657,706,703,-1,703,706,705,-1,703,705,701,-1,701,705,712,-1,701,712,699,-1,699,712,711,-1,699,711,697,-1,697,711,710,-1,697,710,695,-1,695,710,715,-1,695,715,693,-1,693,715,714,-1,693,714,691,-1,691,714,713,-1,691,713,689,-1,689,713,718,-1,689,718,687,-1,687,718,717,-1,687,717,685,-1,685,717,716,-1,685,716,683,-1,683,716,721,-1,683,721,681,-1,681,721,720,-1,656,585,610,-1,610,585,584,-1,610,584,612,-1,612,584,591,-1,612,591,614,-1,614,591,590,-1,614,590,616,-1,616,590,589,-1,616,589,618,-1,618,589,594,-1,618,594,620,-1,620,594,593,-1,620,593,622,-1,622,593,592,-1,622,592,624,-1,624,592,597,-1,624,597,626,-1,626,597,596,-1,626,596,628,-1,628,596,595,-1,628,595,630,-1,630,595,600,-1,630,600,632,-1,632,600,599,-1,632,599,634,-1,634,599,598,-1,634,598,636,-1,636,598,603,-1,636,603,638,-1,638,603,602,-1,638,602,640,-1,640,602,601,-1,640,601,642,-1,642,601,606,-1,642,606,644,-1,644,606,605,-1,644,605,646,-1,646,605,604,-1,646,604,648,-1,648,604,608,-1,648,608,650,-1,650,608,607,-1,650,607,652,-1,652,607,588,-1,652,588,654,-1,654,588,587,-1,654,587,656,-1,656,587,585,-1,827,866,825,-1,825,866,865,-1,825,865,823,-1,823,865,870,-1,823,870,821,-1,821,870,869,-1,821,869,819,-1,819,869,868,-1,819,868,817,-1,817,868,873,-1,817,873,815,-1,815,873,872,-1,815,872,813,-1,813,872,871,-1,813,871,811,-1,811,871,875,-1,811,875,809,-1,809,875,874,-1,809,874,807,-1,807,874,855,-1,807,855,805,-1,805,855,854,-1,805,854,803,-1,803,854,852,-1,803,852,849,-1,849,852,851,-1,849,851,847,-1,847,851,858,-1,847,858,845,-1,845,858,857,-1,845,857,843,-1,843,857,856,-1,843,856,841,-1,841,856,861,-1,841,861,839,-1,839,861,860,-1,839,860,837,-1,837,860,859,-1,837,859,835,-1,835,859,864,-1,835,864,833,-1,833,864,863,-1,833,863,831,-1,831,863,862,-1,831,862,829,-1,829,862,867,-1,829,867,827,-1,827,867,866,-1,802,731,756,-1,756,731,730,-1,756,730,758,-1,758,730,737,-1,758,737,760,-1,760,737,736,-1,760,736,762,-1,762,736,735,-1,762,735,764,-1,764,735,740,-1,764,740,766,-1,766,740,739,-1,766,739,768,-1,768,739,738,-1,768,738,770,-1,770,738,743,-1,770,743,772,-1,772,743,742,-1,772,742,774,-1,774,742,741,-1,774,741,776,-1,776,741,746,-1,776,746,778,-1,778,746,745,-1,778,745,780,-1,780,745,744,-1,780,744,782,-1,782,744,749,-1,782,749,784,-1,784,749,748,-1,784,748,786,-1,786,748,747,-1,786,747,788,-1,788,747,752,-1,788,752,790,-1,790,752,751,-1,790,751,792,-1,792,751,750,-1,792,750,794,-1,794,750,754,-1,794,754,796,-1,796,754,753,-1,796,753,798,-1,798,753,734,-1,798,734,800,-1,800,734,733,-1,800,733,802,-1,802,733,731,-1,973,1012,971,-1,971,1012,1011,-1,971,1011,969,-1,969,1011,1016,-1,969,1016,967,-1,967,1016,1015,-1,967,1015,965,-1,965,1015,1014,-1,965,1014,963,-1,963,1014,1019,-1,963,1019,961,-1,961,1019,1018,-1,961,1018,959,-1,959,1018,1017,-1,959,1017,957,-1,957,1017,1021,-1,957,1021,955,-1,955,1021,1020,-1,955,1020,953,-1,953,1020,1001,-1,953,1001,951,-1,951,1001,1000,-1,951,1000,949,-1,949,1000,998,-1,949,998,995,-1,995,998,997,-1,995,997,993,-1,993,997,1004,-1,993,1004,991,-1,991,1004,1003,-1,991,1003,989,-1,989,1003,1002,-1,989,1002,987,-1,987,1002,1007,-1,987,1007,985,-1,985,1007,1006,-1,985,1006,983,-1,983,1006,1005,-1,983,1005,981,-1,981,1005,1010,-1,981,1010,979,-1,979,1010,1009,-1,979,1009,977,-1,977,1009,1008,-1,977,1008,975,-1,975,1008,1013,-1,975,1013,973,-1,973,1013,1012,-1,948,877,902,-1,902,877,876,-1,902,876,904,-1,904,876,883,-1,904,883,906,-1,906,883,882,-1,906,882,908,-1,908,882,881,-1,908,881,910,-1,910,881,886,-1,910,886,912,-1,912,886,885,-1,912,885,914,-1,914,885,884,-1,914,884,916,-1,916,884,889,-1,916,889,918,-1,918,889,888,-1,918,888,920,-1,920,888,887,-1,920,887,922,-1,922,887,892,-1,922,892,924,-1,924,892,891,-1,924,891,926,-1,926,891,890,-1,926,890,928,-1,928,890,895,-1,928,895,930,-1,930,895,894,-1,930,894,932,-1,932,894,893,-1,932,893,934,-1,934,893,898,-1,934,898,936,-1,936,898,897,-1,936,897,938,-1,938,897,896,-1,938,896,940,-1,940,896,900,-1,940,900,942,-1,942,900,899,-1,942,899,944,-1,944,899,880,-1,944,880,946,-1,946,880,879,-1,946,879,948,-1,948,879,877,-1,1119,1158,1117,-1,1117,1158,1157,-1,1117,1157,1115,-1,1115,1157,1162,-1,1115,1162,1113,-1,1113,1162,1161,-1,1113,1161,1111,-1,1111,1161,1160,-1,1111,1160,1109,-1,1109,1160,1165,-1,1109,1165,1107,-1,1107,1165,1164,-1,1107,1164,1105,-1,1105,1164,1163,-1,1105,1163,1103,-1,1103,1163,1167,-1,1103,1167,1101,-1,1101,1167,1166,-1,1101,1166,1099,-1,1099,1166,1147,-1,1099,1147,1097,-1,1097,1147,1146,-1,1097,1146,1095,-1,1095,1146,1144,-1,1095,1144,1141,-1,1141,1144,1143,-1,1141,1143,1139,-1,1139,1143,1150,-1,1139,1150,1137,-1,1137,1150,1149,-1,1137,1149,1135,-1,1135,1149,1148,-1,1135,1148,1133,-1,1133,1148,1153,-1,1133,1153,1131,-1,1131,1153,1152,-1,1131,1152,1129,-1,1129,1152,1151,-1,1129,1151,1127,-1,1127,1151,1156,-1,1127,1156,1125,-1,1125,1156,1155,-1,1125,1155,1123,-1,1123,1155,1154,-1,1123,1154,1121,-1,1121,1154,1159,-1,1121,1159,1119,-1,1119,1159,1158,-1,1094,1023,1048,-1,1048,1023,1022,-1,1048,1022,1050,-1,1050,1022,1029,-1,1050,1029,1052,-1,1052,1029,1028,-1,1052,1028,1054,-1,1054,1028,1027,-1,1054,1027,1056,-1,1056,1027,1032,-1,1056,1032,1058,-1,1058,1032,1031,-1,1058,1031,1060,-1,1060,1031,1030,-1,1060,1030,1062,-1,1062,1030,1035,-1,1062,1035,1064,-1,1064,1035,1034,-1,1064,1034,1066,-1,1066,1034,1033,-1,1066,1033,1068,-1,1068,1033,1038,-1,1068,1038,1070,-1,1070,1038,1037,-1,1070,1037,1072,-1,1072,1037,1036,-1,1072,1036,1074,-1,1074,1036,1041,-1,1074,1041,1076,-1,1076,1041,1040,-1,1076,1040,1078,-1,1078,1040,1039,-1,1078,1039,1080,-1,1080,1039,1044,-1,1080,1044,1082,-1,1082,1044,1043,-1,1082,1043,1084,-1,1084,1043,1042,-1,1084,1042,1086,-1,1086,1042,1046,-1,1086,1046,1088,-1,1088,1046,1045,-1,1088,1045,1090,-1,1090,1045,1026,-1,1090,1026,1092,-1,1092,1026,1025,-1,1092,1025,1094,-1,1094,1025,1023,-1,
        ]
    }
}
Shape{
    appearance Appearance {
        material  Material 	{
            diffuseColor 1.0 1.0 1.0
            specularColor 0.5019607843137255 0.5019607843137255 0.5019607843137255
            ambientIntensity 1.0
            transparency 0.0
            shininess 0.5
        }
    }
    geometry IndexedFaceSet {
        ccw TRUE
        solid FALSE
        coord DEF co Coordinate {
            point [
                -3.3465 0.4862 2.3032, -3.4449 0.5846 2.4016, -3.3465 0.2106 2.3032, -3.4449 0.2106 2.4016, -2.7559 0.5846 2.4016, -2.7559 0.4862 2.3032, 3.3465 -0.9705 2.3032, 3.4449 -1.0689 2.4016, 3.3465 -0.1831 2.3032, 3.4449 -0.1831 2.4016, -3.3465 -0.9705 2.3032, -3.4449 -1.0689 2.4016, -3.4449 -0.1831 2.4016, -3.3465 -0.1831 2.3032, 3.3465 0.4862 2.3032, 3.4449 0.5846 2.4016, 2.7559 0.4862 2.3032, 2.7559 0.5846 2.4016, 3.4449 0.2106 2.4016, 3.3465 0.2106 2.3032
            ]
        }
        coordIndex [
            0,1,2,-1,2,1,3,-1,1,0,4,-1,4,0,5,-1,6,7,8,-1,8,7,9,-1,10,11,6,-1,6,11,7,-1,11,10,12,-1,12,10,13,-1,14,15,16,-1,16,15,17,-1,15,14,18,-1,18,14,19,-1,
        ]
    }
}
Shape{
    appearance Appearance {
        material  Material 	{
            diffuseColor 0.25098039215686274 0.25098039215686274 0.25098039215686274
            specularColor 0.12549019607843137 0.12549019607843137 0.12549019607843137
            ambientIntensity 0.251
            transparency 0.0
            shininess 0.5
        }
    }
    geometry IndexedFaceSet {
        ccw TRUE
        solid FALSE
        coord DEF co Coordinate {
            point [
                -3.3465 -0.6286 0.0433, -3.3465 -0.6286 0.0394, -3.5433 -0.6286 0.0433, -3.5433 -0.6286 0.0394, -3.3465 -0.6022 0.0433, -3.3465 -0.6022 0.0394, -3.5217 -0.6022 0.0433, -3.5217 -0.6022 0.0394, -3.5217 -0.5278 0.0433, -3.5217 -0.5278 0.0394, -3.5433 -0.5278 0.0433, -3.5433 -0.5278 0.0394, -3.3657 -0.4107 0.0394, -3.3657 -0.4107 0.0433, -3.3678 -0.43 0.0433, -3.3678 -0.43 0.0394, -3.3732 -0.4448 0.0433, -3.3732 -0.4448 0.0394, -3.3823 -0.4584 0.0433, -3.3823 -0.4584 0.0394, -3.3954 -0.4703 0.0433, -3.3954 -0.4703 0.0394, -3.4106 -0.4784 0.0433, -3.4106 -0.4784 0.0394, -3.4317 -0.4837 0.0433, -3.4317 -0.4837 0.0394, -3.447 -0.4846 0.0433, -3.447 -0.4846 0.0394, -3.3783 -0.3646 0.0394, -3.3783 -0.3646 0.0433, -3.3688 -0.3867 0.0433, -3.3688 -0.3867 0.0394, -3.3519 -0.3646 0.0394, -3.3519 -0.3646 0.0433, -3.3441 -0.4109 0.0394, -3.3441 -0.4109 0.0433, -3.3457 -0.3873 0.0433, -3.3457 -0.3873 0.0394, -3.4486 -0.511 0.0394, -3.4486 -0.511 0.0433, -3.4206 -0.5082 0.0433, -3.4206 -0.5082 0.0394, -3.3983 -0.5006 0.0433, -3.3983 -0.5006 0.0394, -3.3796 -0.4889 0.0433, -3.3796 -0.4889 0.0394, -3.3626 -0.471 0.0433, -3.3626 -0.471 0.0394, -3.3519 -0.4523 0.0433, -3.3519 -0.4523 0.0394, -3.3456 -0.4303 0.0433, -3.3456 -0.4303 0.0394, -3.5433 -0.4425 0.0394, -3.5433 -0.4425 0.0433, -3.5358 -0.4638 0.0433, -3.5358 -0.4638 0.0394, -3.5252 -0.4794 0.0433, -3.5252 -0.4794 0.0394, -3.5104 -0.493 0.0433, -3.5104 -0.493 0.0394, -3.4917 -0.5034 0.0433, -3.4917 -0.5034 0.0394, -3.4705 -0.5093 0.0433, -3.4705 -0.5093 0.0394, -3.5331 -0.3646 0.0394, -3.5331 -0.3646 0.0433, -3.5394 -0.378 0.0433, -3.5394 -0.378 0.0394, -3.5433 -0.3924 0.0433, -3.5433 -0.3924 0.0394, -3.5115 -0.3646 0.0394, -3.5115 -0.3646 0.0433, -3.5241 -0.4151 0.0394, -3.5241 -0.4151 0.0433, -3.5212 -0.389 0.0433, -3.5212 -0.389 0.0394, -3.5135 -0.3681 0.0433, -3.5135 -0.3681 0.0394, -3.4683 -0.4826 0.0433, -3.4683 -0.4826 0.0394, -3.4852 -0.4773 0.0433, -3.4852 -0.4773 0.0394, -3.4989 -0.4691 0.0433, -3.4989 -0.4691 0.0394, -3.5086 -0.4599 0.0433, -3.5086 -0.4599 0.0394, -3.5168 -0.4478 0.0433, -3.5168 -0.4478 0.0394, -3.522 -0.4334 0.0433, -3.522 -0.4334 0.0394, -3.3465 -0.3262 0.0433, -3.3465 -0.3262 0.0394, -3.5433 -0.3262 0.0433, -3.5433 -0.3262 0.0394, -3.3465 -0.2253 0.0433, -3.3465 -0.2253 0.0394, -3.3681 -0.2253 0.0433, -3.3681 -0.2253 0.0394, -3.3681 -0.2997 0.0433, -3.3681 -0.2997 0.0394, -3.4329 -0.2997 0.0433, -3.4329 -0.2997 0.0394, -3.4329 -0.2301 0.0433, -3.4329 -0.2301 0.0394, -3.4545 -0.2301 0.0433, -3.4545 -0.2301 0.0394, -3.4545 -0.2997 0.0433, -3.4545 -0.2997 0.0394, -3.5217 -0.2997 0.0433, -3.5217 -0.2997 0.0394, -3.5217 -0.2205 0.0433, -3.5217 -0.2205 0.0394, -3.5433 -0.2205 0.0433, -3.5433 -0.2205 0.0394, -3.3465 -0.1266 0.0433, -3.3465 -0.1266 0.0394, -3.3465 -0.1821 0.0433, -3.3465 -0.1821 0.0394, -3.3495 -0.0981 0.0433, -3.3495 -0.0981 0.0394, -3.3576 -0.0751 0.0433, -3.3576 -0.0751 0.0394, -3.3719 -0.0537 0.0433, -3.3719 -0.0537 0.0394, -3.3721 -0.0535 0.0433, -3.3721 -0.0535 0.0394, -3.3876 -0.0395 0.0433, -3.3876 -0.0395 0.0394, -3.4048 -0.0303 0.0433, -3.4048 -0.0303 0.0394, -3.4243 -0.025 0.0433, -3.4243 -0.025 0.0394, -3.4424 -0.0237 0.0433, -3.4424 -0.0237 0.0394, -3.4687 -0.0264 0.0433, -3.4687 -0.0264 0.0394, -3.4893 -0.0335 0.0433, -3.4893 -0.0335 0.0394, -3.5066 -0.0445 0.0433, -3.5066 -0.0445 0.0394, -3.5222 -0.0606 0.0433, -3.5222 -0.0606 0.0394, -3.5342 -0.081 0.0433, -3.5342 -0.081 0.0394, -3.5411 -0.1036 0.0433, -3.5411 -0.1036 0.0394, -3.5433 -0.1286 0.0433, -3.5433 -0.1286 0.0394, -3.5433 -0.1821 0.0433, -3.5433 -0.1821 0.0394, -3.3956 -0.0632 0.0433, -3.3855 -0.0727 0.0433, -3.3762 -0.0871 0.0433, -3.3705 -0.1034 0.0433, -3.3681 -0.1267 0.0433, -3.3681 -0.1557 0.0433, -3.5217 -0.1557 0.0433, -3.5217 -0.1278 0.0433, -3.5198 -0.1069 0.0433, -3.5146 -0.0904 0.0433, -3.5066 -0.0769 0.0433, -3.4956 -0.0658 0.0433, -3.4822 -0.0577 0.0433, -3.4665 -0.0525 0.0433, -3.443 -0.0501 0.0433, -3.4234 -0.0518 0.0433, -3.4078 -0.0564 0.0433, -3.5217 -0.1278 0.0394, -3.5217 -0.1557 0.0394, -3.5198 -0.1069 0.0394, -3.5146 -0.0904 0.0394, -3.5066 -0.0769 0.0394, -3.4956 -0.0658 0.0394, -3.4822 -0.0577 0.0394, -3.4665 -0.0525 0.0394, -3.443 -0.0501 0.0394, -3.4234 -0.0518 0.0394, -3.4078 -0.0564 0.0394, -3.3956 -0.0632 0.0394, -3.3855 -0.0727 0.0394, -3.3762 -0.0871 0.0394, -3.3705 -0.1034 0.0394, -3.3681 -0.1267 0.0394, -3.3681 -0.1557 0.0394, -3.4665 0.045 0.0433, -3.4881 0.0383 0.0433, -3.4665 0.1108 0.0433, -3.4881 0.1196 0.0433, -3.3843 0.0743 0.0433, -3.3465 0.0651 0.0433, -3.5433 -0.0093 0.0433, -3.5433 0.0195 0.0433, -3.3774 0.0762 0.0433, -3.3705 0.0775 0.0433, -3.3465 0.0916 0.0433, -3.3705 0.0781 0.0433, -3.3774 0.0794 0.0433, -3.3843 0.0812 0.0433, -3.5433 0.1684 0.0433, -3.5433 0.1396 0.0433, -3.4881 0.1196 0.0394, -3.5433 0.1396 0.0394, -3.4881 0.0383 0.0394, -3.5433 0.0195 0.0394, -3.3465 0.0651 0.0394, -3.5433 -0.0093 0.0394, -3.3465 0.0916 0.0394, -3.5433 0.1684 0.0394, -3.3843 0.0812 0.0394, -3.3774 0.0794 0.0394, -3.3705 0.0781 0.0394, -3.3705 0.0775 0.0394, -3.3774 0.0762 0.0394, -3.3843 0.0743 0.0394, -3.4665 0.045 0.0394, -3.4665 0.1108 0.0394
            ]
        }
        coordIndex [
            0,1,2,-1,2,1,3,-1,4,5,0,-1,0,5,1,-1,6,7,4,-1,4,7,5,-1,8,9,6,-1,6,9,7,-1,10,11,8,-1,8,11,9,-1,4,0,6,-1,6,0,2,-1,6,2,8,-1,8,2,10,-1,12,13,14,-1,12,14,15,-1,15,14,16,-1,15,16,17,-1,17,16,18,-1,17,18,19,-1,19,18,20,-1,19,20,21,-1,21,20,22,-1,21,22,23,-1,23,22,24,-1,23,24,25,-1,25,24,26,-1,25,26,27,-1,28,29,30,-1,28,30,31,-1,31,30,13,-1,31,13,12,-1,32,33,28,-1,28,33,29,-1,34,35,36,-1,34,36,37,-1,37,36,33,-1,37,33,32,-1,38,39,40,-1,38,40,41,-1,41,40,42,-1,41,42,43,-1,43,42,44,-1,43,44,45,-1,45,44,46,-1,45,46,47,-1,47,46,48,-1,47,48,49,-1,49,48,50,-1,49,50,51,-1,51,50,35,-1,51,35,34,-1,52,53,54,-1,52,54,55,-1,55,54,56,-1,55,56,57,-1,57,56,58,-1,57,58,59,-1,59,58,60,-1,59,60,61,-1,61,60,62,-1,61,62,63,-1,63,62,39,-1,63,39,38,-1,64,65,66,-1,64,66,67,-1,67,66,68,-1,67,68,69,-1,70,71,64,-1,64,71,65,-1,72,73,74,-1,72,74,75,-1,75,74,76,-1,75,76,77,-1,77,76,71,-1,77,71,70,-1,27,26,78,-1,27,78,79,-1,79,78,80,-1,79,80,81,-1,81,80,82,-1,81,82,83,-1,83,82,84,-1,83,84,85,-1,85,84,86,-1,85,86,87,-1,87,86,88,-1,87,88,89,-1,89,88,73,-1,89,73,72,-1,29,33,30,-1,30,33,36,-1,30,36,13,-1,13,36,35,-1,13,35,14,-1,14,35,50,-1,14,50,16,-1,16,50,48,-1,16,48,18,-1,18,48,46,-1,18,46,20,-1,20,46,44,-1,20,44,22,-1,22,44,42,-1,22,42,24,-1,24,42,40,-1,24,40,26,-1,26,40,39,-1,26,39,78,-1,78,39,62,-1,78,62,80,-1,80,62,60,-1,80,60,82,-1,82,60,58,-1,82,58,84,-1,84,58,56,-1,84,56,86,-1,86,56,54,-1,86,54,88,-1,88,54,53,-1,88,53,73,-1,73,53,68,-1,73,68,74,-1,74,68,66,-1,74,66,76,-1,76,66,65,-1,76,65,71,-1,90,91,92,-1,92,91,93,-1,94,95,90,-1,90,95,91,-1,96,97,94,-1,94,97,95,-1,98,99,96,-1,96,99,97,-1,100,101,98,-1,98,101,99,-1,102,103,100,-1,100,103,101,-1,104,105,102,-1,102,105,103,-1,106,107,104,-1,104,107,105,-1,108,109,106,-1,106,109,107,-1,110,111,108,-1,108,111,109,-1,112,113,110,-1,110,113,111,-1,92,112,110,-1,110,108,92,-1,92,108,106,-1,92,106,90,-1,96,94,98,-1,98,94,90,-1,98,90,100,-1,100,90,106,-1,100,106,102,-1,102,106,104,-1,114,115,116,-1,116,115,117,-1,115,114,118,-1,115,118,119,-1,119,118,120,-1,119,120,121,-1,121,120,122,-1,121,122,123,-1,123,122,124,-1,123,124,125,-1,125,124,126,-1,125,126,127,-1,127,126,128,-1,127,128,129,-1,129,128,130,-1,129,130,131,-1,131,130,132,-1,131,132,133,-1,133,132,134,-1,133,134,135,-1,135,134,136,-1,135,136,137,-1,137,136,138,-1,137,138,139,-1,139,138,140,-1,139,140,141,-1,141,140,142,-1,141,142,143,-1,143,142,144,-1,143,144,145,-1,145,144,146,-1,145,146,147,-1,148,116,149,-1,149,116,117,-1,128,126,150,-1,150,126,124,-1,150,124,151,-1,151,124,122,-1,151,122,152,-1,152,122,120,-1,152,120,153,-1,153,120,118,-1,153,118,154,-1,154,118,114,-1,154,114,155,-1,155,114,116,-1,155,116,156,-1,156,116,148,-1,156,148,157,-1,157,148,146,-1,157,146,158,-1,158,146,144,-1,158,144,159,-1,159,144,142,-1,159,142,160,-1,160,142,140,-1,160,140,161,-1,161,140,138,-1,161,138,162,-1,162,138,136,-1,162,136,163,-1,163,136,134,-1,163,134,164,-1,164,134,132,-1,164,132,165,-1,165,132,130,-1,165,130,166,-1,166,130,128,-1,166,128,150,-1,157,167,156,-1,156,167,168,-1,167,157,158,-1,167,158,169,-1,169,158,159,-1,169,159,170,-1,170,159,160,-1,170,160,171,-1,171,160,161,-1,171,161,172,-1,172,161,162,-1,172,162,173,-1,173,162,163,-1,173,163,174,-1,174,163,164,-1,174,164,175,-1,175,164,165,-1,175,165,176,-1,176,165,166,-1,176,166,177,-1,177,166,150,-1,177,150,178,-1,178,150,151,-1,178,151,179,-1,179,151,152,-1,179,152,180,-1,180,152,153,-1,180,153,181,-1,181,153,154,-1,181,154,182,-1,155,183,154,-1,154,183,182,-1,168,183,156,-1,156,183,155,-1,184,185,186,-1,186,185,187,-1,188,189,184,-1,184,189,190,-1,184,190,185,-1,185,190,191,-1,188,192,189,-1,189,192,193,-1,189,193,194,-1,194,193,195,-1,194,195,196,-1,196,197,194,-1,194,197,186,-1,194,186,198,-1,198,186,187,-1,198,187,199,-1,187,200,199,-1,199,200,201,-1,185,202,187,-1,187,202,200,-1,191,203,185,-1,185,203,202,-1,189,204,190,-1,190,204,205,-1,194,206,189,-1,189,206,204,-1,198,207,194,-1,194,207,206,-1,208,197,196,-1,208,196,209,-1,209,196,195,-1,209,195,210,-1,193,211,195,-1,195,211,210,-1,211,193,192,-1,211,192,212,-1,212,192,188,-1,212,188,213,-1,184,214,188,-1,188,214,213,-1,186,215,184,-1,184,215,214,-1,208,215,197,-1,197,215,186,-1,
        ]
    }
}
Shape{
    appearance Appearance {
        material  Material 	{
            diffuseColor 1.0 1.0 1.0
            specularColor 0.5019607843137255 0.5019607843137255 0.5019607843137255
            ambientIntensity 1.0
            transparency 0.0
            shininess 0.5
        }
    }
    geometry IndexedFaceSet {
        ccw TRUE
        solid FALSE
        coord DEF co Coordinate {
            point [
                -3.3681 -0.1557 0.0394, -3.5217 -0.1557 0.0394, -3.3681 -0.1267 0.0394, -3.5217 -0.1278 0.0394, -3.4665 -0.0525 0.0394, -3.443 -0.0501 0.0394, -3.4234 -0.0518 0.0394, -3.4078 -0.0564 0.0394, -3.3705 -0.1034 0.0394, -3.5198 -0.1069 0.0394, -3.5146 -0.0904 0.0394, -3.5066 -0.0769 0.0394, -3.3956 -0.0632 0.0394, -3.3855 -0.0727 0.0394, -3.3762 -0.0871 0.0394, -3.4956 -0.0658 0.0394, -3.4822 -0.0577 0.0394, -3.4665 0.045 0.0394, -3.4665 0.1108 0.0394, -3.3843 0.0743 0.0394, -3.3843 0.0812 0.0394, -3.3774 0.0762 0.0394, -3.3774 0.0794 0.0394, -3.3705 0.0775 0.0394, -3.3705 0.0781 0.0394
            ]
        }
        coordIndex [
            0,1,2,-1,2,1,3,-1,4,5,2,-1,5,6,2,-1,2,6,7,-1,2,7,8,-1,3,9,2,-1,2,9,10,-1,2,10,11,-1,12,13,7,-1,7,13,14,-1,7,14,8,-1,11,15,2,-1,2,15,16,-1,2,16,4,-1,17,18,19,-1,19,18,20,-1,19,20,21,-1,21,20,22,-1,21,22,23,-1,23,22,24,-1,
        ]
    }
}
