#VRML V2.0 utf8
# 3D model generated by easyeda2kicad.py (https://github.com/uPesy/easyeda2kicad.py)

Shape{
    appearance Appearance {
        material  Material 	{
            diffuseColor 1.0 1.0 1.0
            specularColor 0.5019607843137255 0.5019607843137255 0.5019607843137255
            ambientIntensity 1.0
            transparency 0.0
            shininess 0.5
        }
    }
    geometry IndexedFaceSet {
        ccw TRUE
        solid FALSE
        coord DEF co Coordinate {
            point [
                0.2677 0.0888 -0.0394, 0.2616 0.0888 -0.0394, 0.2677 0.1086 -0.0394, 0.0696 0.1086 -0.0394, 0.2677 0.126 -0.0394, 0.0696 -0.6299 -0.0394, 0.2677 -0.126 -0.0394, 0.7874 -0.6299 -0.0394, 0.5197 -0.126 -0.0394, 0.7874 0.1086 -0.0394, 0.2445 0.0142 -0.0394, 0.2472 -0.0121 -0.0394, 0.2458 -0.0306 -0.0394, 0.2374 0.0348 -0.0394, 0.2261 0.0524 -0.0394, 0.2099 0.068 -0.0394, 0.2174 -0.0824 -0.0394, 0.2314 -0.067 -0.0394, 0.1443 -0.1081 -0.0394, 0.0888 -0.1081 -0.0394, 0.0888 0.0888 -0.0394, 0.1728 -0.105 -0.0394, 0.1958 -0.0969 -0.0394, 0.2172 -0.0826 -0.0394, 0.1893 0.0799 -0.0394, 0.1667 0.0867 -0.0394, 0.1423 0.0888 -0.0394, 0.2677 0.0727 -0.0394, 0.2405 -0.05 -0.0394, 0.5197 0.1086 -0.0394, 0.5197 0.126 -0.0394, 0.7874 1.1417 -0.0394, 0.0696 1.1417 -0.0394, -0.2569 0.0888 -0.0394, -0.2485 0.1086 -0.0394, -0.2569 0.0672 -0.0394, -0.2485 -0.6299 -0.0394, -0.2677 0.126 -0.0394, -0.2677 0.1086 -0.0394, -0.2677 0.0888 -0.0394, -3.1496 0.1086 -0.0394, -3.4173 0.1086 -0.0394, -3.4173 0.126 -0.0394, -3.4173 -0.126 -0.0394, -3.1496 -0.6299 -0.0394, -3.6693 -0.126 -0.0394, -4.3307 -0.6299 -0.0394, -3.6693 0.1086 -0.0394, -4.3307 0.1086 -0.0394, -3.6693 0.126 -0.0394, -4.3307 1.1417 -0.0394, -3.1496 1.1417 -0.0394, -2.3622 0.1086 -0.0394, -2.6299 0.1086 -0.0394, -2.6299 0.126 -0.0394, -2.0945 0.1086 -0.0394, -2.3622 -0.6299 -0.0394, -2.0945 -0.126 -0.0394, -1.5748 -0.6299 -0.0394, -1.8425 -0.126 -0.0394, -1.5748 0.1086 -0.0394, -1.8425 0.1086 -0.0394, -1.8425 0.126 -0.0394, -2.0945 0.126 -0.0394, -2.3622 1.1417 -0.0394, -1.5748 1.1417 -0.0394, -2.6299 -0.126 -0.0394, -2.8819 -0.126 -0.0394, -2.8819 0.1086 -0.0394, -2.8819 0.126 -0.0394, -0.7874 0.1086 -0.0394, -1.0551 0.1086 -0.0394, -1.0551 0.126 -0.0394, -1.0551 -0.126 -0.0394, -0.7874 -0.6299 -0.0394, -1.3071 -0.126 -0.0394, -1.3071 0.1086 -0.0394, -1.3071 0.126 -0.0394, -0.7874 1.1417 -0.0394, 1.5748 0.1086 -0.0394, 1.3071 0.1086 -0.0394, 1.3071 0.126 -0.0394, 1.3071 -0.126 -0.0394, 1.5748 -0.6299 -0.0394, 1.0551 -0.126 -0.0394, 1.0551 0.1086 -0.0394, 1.0551 0.126 -0.0394, 1.5748 1.1417 -0.0394, 2.3622 0.1086 -0.0394, 2.0945 0.1086 -0.0394, 2.0945 0.126 -0.0394, 2.6299 0.1086 -0.0394, 2.3622 -0.6299 -0.0394, 2.6299 -0.126 -0.0394, 3.1496 -0.6299 -0.0394, 2.8819 -0.126 -0.0394, 3.1496 0.1086 -0.0394, 2.8819 0.1086 -0.0394, 2.8819 0.126 -0.0394, 2.6299 0.126 -0.0394, 2.3622 1.1417 -0.0394, 3.1496 1.1417 -0.0394, 2.0945 -0.126 -0.0394, 1.8425 -0.126 -0.0394, 1.8425 0.1086 -0.0394, 1.8425 0.126 -0.0394, 4.0 -0.6299 -0.0394, 3.4173 -0.126 -0.0394, 3.4173 0.1086 -0.0394, 3.4173 0.126 -0.0394, 3.6693 0.126 -0.0394, 4.0 1.1417 -0.0394, 3.6693 0.1086 -0.0394, -0.0745 1.1417 -0.0394, -0.0745 0.1086 -0.0394, -0.2485 1.1417 -0.0394, 4.3307 1.1417 -0.0394, 4.3307 0.1086 -0.0394, 4.0 0.1086 -0.0394, 3.6693 -0.126 -0.0394, -0.2297 -0.0562 -0.0394, -0.2182 -0.0746 -0.0394, -0.2004 -0.0917 -0.0394, -0.1164 -0.1088 -0.0394, -0.0937 -0.1027 -0.0394, -0.0745 -0.6299 -0.0394, -0.0937 -0.0763 -0.0394, -0.0937 0.057 -0.0394, -0.1158 -0.0857 -0.0394, -0.0972 0.0589 -0.0394, -0.1398 -0.0889 -0.0394, -0.1591 -0.0867 -0.0394, -0.207 0.072 -0.0394, -0.2218 0.0564 -0.0394, -0.2323 0.0377 -0.0394, -0.2382 0.0169 -0.0394, -0.2401 -0.0059 -0.0394, -0.2373 -0.0339 -0.0394, -0.1478 0.0912 -0.0394, -0.1721 0.0887 -0.0394, -0.1912 0.0821 -0.0394, -0.1739 -0.0814 -0.0394, -0.1875 -0.0722 -0.0394, -0.1994 -0.0591 -0.0394, -0.2137 -0.0075 -0.0394, -0.2117 0.0138 -0.0394, -0.2064 0.0307 -0.0394, -0.1626 0.0675 -0.0394, -0.1442 0.0696 -0.0394, -0.1769 0.0622 -0.0394, -0.189 0.0541 -0.0394, -0.1982 0.0444 -0.0394, -0.1181 0.0667 -0.0394, -0.0937 0.0786 -0.0394, -0.1146 0.0872 -0.0394, -0.1424 0.0911 -0.0394, -0.2075 -0.0439 -0.0394, -0.2128 -0.0229 -0.0394, -0.1817 -0.1025 -0.0394, -0.1598 -0.1088 -0.0394, -0.14 -0.1105 -0.0394, -0.2677 0.0672 -0.0394, -0.2677 -0.126 -0.0394, -0.5197 -0.126 -0.0394, -0.5197 0.1086 -0.0394, -0.5197 0.126 -0.0394, 0.0456 -0.1081 -0.0394, -0.0553 -0.1081 -0.0394, 0.0456 -0.0865 -0.0394, 0.0504 0.0672 -0.0394, 0.0504 0.0888 -0.0394, -0.0553 0.0888 -0.0394, -0.0288 -0.0 -0.0394, -0.0288 0.0672 -0.0394, 0.0408 -0.0 -0.0394, 0.0408 -0.0216 -0.0394, -0.0288 -0.0216 -0.0394, -0.0288 -0.0865 -0.0394, 4.3307 -0.6299 -0.0394, 4.3307 -0.6299 0.5, 4.1466 -0.6299 0.8465, 3.7726 -0.6299 0.8465, 4.1466 -0.6299 1.6181, 4.3307 -0.6299 2.3228, 3.7726 -0.6299 1.6181, 3.0984 -0.6299 2.3228, 3.0984 -0.6299 0.6535, -3.0984 -0.6299 0.6535, -4.3307 -0.6299 0.5, -4.0236 -0.6299 1.6181, -4.3307 -0.6299 2.3228, -4.0236 -0.6299 0.8465, -3.6496 -0.6299 0.8465, -3.6496 -0.6299 1.6181, -3.0984 -0.6299 2.3228, 4.0945 -0.3937 2.3228, 4.0945 -0.3937 1.6181, 3.0984 -0.3937 2.3228, 3.7726 -0.3937 1.6181, 4.0945 -0.3937 0.8465, 4.0945 -0.3937 0.6102, 3.8819 -0.3937 0.6102, -3.6496 -0.3937 0.8465, -3.1496 -0.3937 0.6102, -4.0236 -0.3937 0.8465, -4.0945 -0.3937 0.6102, -4.0236 -0.3937 1.6181, -4.0945 -0.3937 2.3228, -3.6496 -0.3937 1.6181, -3.0984 -0.3937 2.3228, -3.0984 -0.3937 0.6535, 3.0984 -0.3937 0.6535, 3.1496 -0.3937 0.6102, 2.3622 -0.3937 0.6102, 3.7726 -0.3937 0.8465, 1.5748 -0.3937 0.6102, 0.0 -0.3937 0.6102, -0.7874 -0.3937 0.6102, -1.5748 -0.3937 0.6102, -2.3622 -0.3937 0.6102, 4.0945 -0.0866 2.3228, 4.3307 -0.0866 2.3228, 4.3307 0.3071 1.6772, 4.0945 0.3071 1.6772, 4.0945 0.3004 1.6262, 4.3307 0.3004 1.6262, 4.0945 0.2807 1.5787, 4.3307 0.2807 1.5787, 4.0945 0.2494 1.538, 4.3307 0.2494 1.538, 4.0945 0.2087 1.5067, 4.3307 0.2087 1.5067, 4.0945 0.1612 1.487, 4.3307 0.1612 1.487, 4.0945 0.1102 1.4803, 4.3307 0.1102 1.4803, 4.0945 0.0593 1.487, 4.3307 0.0593 1.487, 4.0945 0.0118 1.5067, 4.3307 0.0118 1.5067, 4.0945 -0.029 1.538, 4.3307 -0.029 1.538, 4.0945 -0.0602 1.5787, 4.3307 -0.0602 1.5787, 4.0945 -0.0799 1.6262, 4.3307 -0.0799 1.6262, 4.0945 -0.0866 1.6772, 4.3307 -0.0866 1.6772, 4.0945 0.3071 2.2638, 4.3307 0.3071 2.3228, 4.1535 0.3071 2.3228, 4.3307 -0.4803 0.5, 4.3307 1.1417 2.3228, 4.3307 -0.4803 0.2835, 4.3307 -0.6299 0.2835, -4.3307 -0.6299 0.2835, -4.3307 1.1417 2.3228, -4.3307 -0.0799 1.6262, -4.3307 -0.0602 1.5787, -4.3307 -0.029 1.538, -4.3307 0.0118 1.5067, -4.3307 -0.4803 0.5, -4.3307 0.0593 1.487, -4.3307 0.1102 1.4803, -4.3307 0.1612 1.487, -4.3307 0.2087 1.5067, -4.3307 0.2494 1.538, -4.3307 -0.0866 1.6772, -4.3307 -0.0866 2.3228, -4.3307 -0.4803 0.2835, -4.3307 0.2807 1.5787, -4.3307 0.3004 1.6262, -4.3307 0.3071 1.6772, -4.3307 0.3071 2.3228, -4.0945 -0.0866 2.3228, 4.1535 0.9646 2.3228, -4.1535 0.9646 2.3228, -4.1535 0.3071 2.3228, -4.0945 0.3071 1.6772, -4.0945 0.3004 1.6262, -4.0945 0.2807 1.5787, -4.0945 0.2494 1.538, -4.0945 0.2087 1.5067, -4.0945 0.1612 1.487, -4.0945 0.1102 1.4803, -4.0945 0.0593 1.487, -4.0945 0.0118 1.5067, -4.0945 -0.029 1.538, -4.0945 -0.0602 1.5787, -4.0945 -0.0799 1.6262, -4.0945 -0.0866 1.6772, -4.0945 0.3071 2.2638, 4.0945 0.5158 0.6102, 4.0945 0.9055 0.6102, 4.0945 0.9055 2.2638, -4.0945 0.9055 0.6102, -4.0945 0.5158 0.6102, -4.0945 0.9055 2.2638, -3.1496 0.9055 0.6102, -2.3622 0.9055 0.6102, -1.5748 0.9055 0.6102, -0.7874 0.9055 0.6102, 0.0 0.9055 0.6102, 1.5748 0.9055 0.6102, 2.3622 0.9055 0.6102, 3.1496 0.9055 0.6102, 3.8819 0.9055 0.6102, -3.4173 -0.126 0.6102, -3.1496 0.5158 0.6102, -3.6693 -0.126 0.6102, -3.6693 0.126 0.6102, -3.4173 0.126 0.6102, -2.8819 0.126 0.6102, -2.8819 -0.126 0.6102, -2.6299 -0.126 0.6102, -2.6299 0.126 0.6102, -2.3622 0.5158 0.6102, -2.0945 0.126 0.6102, -2.0945 -0.126 0.6102, -1.8425 -0.126 0.6102, -1.8425 0.126 0.6102, -1.5748 0.5158 0.6102, -1.3071 -0.126 0.6102, -1.0551 -0.126 0.6102, -1.0551 0.126 0.6102, -0.7874 0.5158 0.6102, -1.3071 0.126 0.6102, -0.5197 0.126 0.6102, -0.5197 -0.126 0.6102, -0.2677 -0.126 0.6102, -0.2677 0.126 0.6102, 0.0 0.5158 0.6102, 0.5197 0.126 0.6102, 1.5748 0.5158 0.6102, 0.2677 0.126 0.6102, 0.2677 -0.126 0.6102, 0.5197 -0.126 0.6102, 1.0551 -0.126 0.6102, 1.0551 0.126 0.6102, 1.3071 0.126 0.6102, 1.3071 -0.126 0.6102, 1.8425 0.126 0.6102, 1.8425 -0.126 0.6102, 2.0945 -0.126 0.6102, 2.0945 0.126 0.6102, 2.3622 0.5158 0.6102, 2.6299 0.126 0.6102, 2.6299 -0.126 0.6102, 2.8819 -0.126 0.6102, 2.8819 0.126 0.6102, 3.1496 0.5158 0.6102, 3.8819 0.5158 0.6102, 3.6693 -0.126 0.6102, 3.4173 -0.126 0.6102, 3.4173 0.126 0.6102, 3.6693 0.126 0.6102, 4.1466 -0.3937 0.8465, 4.1466 -0.3937 1.6181
            ]
        }
        coordIndex [
            0,1,2,-1,2,1,3,-1,2,3,4,-1,5,6,7,-1,7,6,8,-1,7,8,9,-1,10,1,11,-1,11,1,12,-1,10,13,1,-1,1,13,14,-1,1,14,15,-1,16,17,6,-1,18,5,19,-1,19,5,3,-1,19,3,20,-1,18,21,5,-1,5,21,22,-1,5,22,6,-1,6,22,23,-1,6,23,16,-1,15,24,1,-1,1,24,25,-1,1,25,3,-1,3,25,26,-1,3,26,20,-1,1,27,12,-1,12,27,6,-1,12,6,28,-1,28,6,17,-1,8,29,9,-1,9,29,30,-1,9,30,31,-1,31,30,32,-1,33,34,35,-1,35,34,36,-1,37,34,38,-1,38,34,33,-1,38,33,39,-1,40,41,42,-1,41,40,43,-1,43,40,44,-1,43,44,45,-1,45,44,46,-1,45,46,47,-1,47,46,48,-1,47,48,49,-1,49,48,50,-1,49,50,42,-1,42,50,51,-1,42,51,40,-1,52,53,54,-1,52,55,56,-1,56,55,57,-1,56,57,58,-1,58,57,59,-1,58,59,60,-1,60,59,61,-1,60,61,62,-1,63,64,62,-1,62,64,65,-1,62,65,60,-1,53,52,66,-1,66,52,56,-1,66,56,67,-1,67,56,44,-1,67,44,68,-1,68,44,40,-1,68,40,69,-1,69,40,51,-1,69,51,54,-1,54,51,64,-1,54,64,52,-1,52,64,63,-1,52,63,55,-1,70,71,72,-1,71,70,73,-1,73,70,74,-1,73,74,75,-1,75,74,58,-1,75,58,76,-1,76,58,60,-1,76,60,77,-1,77,60,65,-1,77,65,72,-1,72,65,78,-1,72,78,70,-1,79,80,81,-1,80,79,82,-1,82,79,83,-1,82,83,84,-1,84,83,7,-1,84,7,85,-1,85,7,9,-1,85,9,86,-1,86,9,31,-1,86,31,81,-1,81,31,87,-1,81,87,79,-1,88,89,90,-1,88,91,92,-1,92,91,93,-1,92,93,94,-1,94,93,95,-1,94,95,96,-1,96,95,97,-1,96,97,98,-1,99,100,98,-1,98,100,101,-1,98,101,96,-1,89,88,102,-1,102,88,92,-1,102,92,103,-1,103,92,83,-1,103,83,104,-1,104,83,79,-1,104,79,105,-1,105,79,87,-1,105,87,90,-1,90,87,100,-1,90,100,88,-1,88,100,99,-1,88,99,91,-1,106,94,107,-1,107,94,108,-1,108,94,96,-1,108,96,109,-1,109,96,101,-1,109,101,110,-1,110,101,111,-1,110,111,112,-1,30,4,32,-1,32,4,3,-1,32,3,113,-1,113,3,114,-1,113,114,115,-1,116,117,111,-1,111,117,118,-1,111,118,112,-1,112,118,119,-1,120,121,36,-1,36,121,122,-1,123,124,125,-1,125,124,126,-1,125,126,127,-1,127,126,128,-1,127,128,129,-1,129,128,130,-1,129,130,131,-1,132,133,34,-1,34,133,134,-1,134,135,34,-1,34,135,136,-1,34,136,36,-1,36,136,137,-1,36,137,120,-1,138,139,34,-1,34,139,140,-1,34,140,132,-1,131,141,129,-1,129,141,142,-1,129,142,143,-1,144,145,129,-1,129,145,146,-1,147,148,149,-1,149,148,150,-1,146,151,129,-1,129,151,150,-1,129,150,152,-1,152,150,148,-1,153,154,114,-1,114,154,155,-1,143,156,129,-1,129,156,157,-1,129,157,144,-1,122,158,36,-1,36,158,159,-1,36,159,125,-1,125,159,160,-1,125,160,123,-1,161,35,162,-1,162,35,36,-1,162,36,163,-1,163,36,74,-1,163,74,164,-1,164,74,70,-1,164,70,165,-1,165,70,78,-1,165,78,37,-1,37,78,115,-1,37,115,34,-1,34,115,114,-1,34,114,138,-1,138,114,155,-1,166,5,167,-1,167,5,125,-1,167,125,114,-1,114,125,127,-1,114,127,153,-1,166,168,5,-1,5,168,169,-1,5,169,3,-1,3,169,170,-1,3,170,114,-1,114,170,171,-1,114,171,167,-1,172,173,174,-1,174,173,169,-1,174,169,175,-1,175,169,168,-1,175,168,176,-1,176,168,177,-1,117,178,118,-1,118,178,106,-1,118,106,119,-1,119,106,107,-1,179,180,181,-1,180,179,182,-1,182,179,183,-1,182,183,184,-1,184,183,185,-1,184,185,181,-1,181,185,186,-1,181,186,179,-1,179,186,187,-1,179,187,188,-1,189,190,191,-1,191,190,188,-1,191,188,192,-1,192,188,187,-1,192,187,193,-1,193,187,194,-1,193,194,189,-1,189,194,190,-1,195,196,197,-1,197,196,198,-1,199,200,201,-1,202,203,204,-1,204,203,205,-1,204,205,206,-1,206,205,207,-1,206,207,208,-1,208,207,209,-1,208,209,210,-1,211,212,213,-1,199,201,214,-1,214,201,212,-1,214,212,198,-1,198,212,211,-1,198,211,197,-1,213,215,211,-1,211,215,216,-1,211,216,210,-1,210,216,217,-1,210,217,218,-1,202,208,203,-1,203,208,210,-1,203,210,219,-1,219,210,218,-1,197,185,195,-1,195,185,183,-1,195,183,220,-1,220,183,221,-1,222,223,224,-1,222,224,225,-1,225,224,226,-1,225,226,227,-1,227,226,228,-1,227,228,229,-1,229,228,230,-1,229,230,231,-1,231,230,232,-1,231,232,233,-1,233,232,234,-1,233,234,235,-1,235,234,236,-1,235,236,237,-1,237,236,238,-1,237,238,239,-1,239,238,240,-1,239,240,241,-1,241,240,242,-1,241,242,243,-1,243,242,244,-1,243,244,245,-1,245,244,246,-1,245,246,247,-1,223,222,248,-1,248,222,249,-1,248,249,250,-1,221,247,220,-1,220,247,246,-1,231,233,251,-1,252,251,253,-1,116,252,117,-1,117,252,253,-1,117,253,178,-1,178,253,254,-1,233,235,251,-1,251,235,237,-1,251,237,179,-1,179,237,239,-1,179,239,241,-1,231,251,229,-1,229,251,252,-1,229,252,227,-1,241,243,179,-1,179,243,245,-1,179,245,183,-1,183,245,247,-1,183,247,221,-1,249,222,252,-1,252,222,225,-1,252,225,227,-1,48,46,255,-1,256,50,48,-1,257,258,188,-1,258,259,188,-1,188,259,260,-1,188,260,261,-1,261,260,262,-1,261,262,263,-1,263,264,261,-1,261,264,265,-1,261,265,266,-1,257,188,267,-1,267,188,190,-1,267,190,268,-1,255,269,48,-1,48,269,261,-1,48,261,256,-1,256,261,266,-1,256,266,270,-1,270,271,256,-1,256,271,272,-1,256,272,273,-1,274,268,207,-1,207,268,190,-1,207,190,209,-1,209,190,194,-1,252,116,111,-1,111,101,252,-1,252,101,100,-1,252,100,87,-1,87,31,252,-1,252,31,32,-1,252,32,256,-1,256,32,113,-1,113,115,256,-1,256,115,78,-1,256,78,65,-1,65,64,256,-1,256,64,51,-1,256,51,50,-1,255,46,44,-1,44,56,255,-1,255,56,58,-1,255,58,74,-1,74,36,255,-1,255,36,125,-1,255,125,254,-1,254,125,5,-1,5,7,254,-1,254,7,83,-1,254,83,92,-1,92,94,254,-1,254,94,106,-1,254,106,178,-1,250,249,275,-1,275,249,252,-1,275,252,276,-1,276,252,256,-1,276,256,277,-1,277,256,273,-1,278,272,271,-1,278,271,279,-1,279,271,270,-1,279,270,280,-1,280,270,266,-1,280,266,281,-1,281,266,265,-1,281,265,282,-1,282,265,264,-1,282,264,283,-1,283,264,263,-1,283,263,284,-1,284,263,262,-1,284,262,285,-1,285,262,260,-1,285,260,286,-1,286,260,259,-1,286,259,287,-1,287,259,258,-1,287,258,288,-1,288,258,257,-1,288,257,289,-1,289,257,267,-1,289,267,290,-1,278,291,272,-1,272,291,277,-1,272,277,273,-1,267,268,290,-1,290,268,274,-1,261,269,251,-1,251,269,253,-1,188,261,179,-1,179,261,251,-1,255,254,269,-1,269,254,253,-1,240,238,199,-1,196,195,220,-1,199,238,200,-1,200,238,236,-1,200,236,292,-1,220,246,196,-1,196,246,244,-1,196,244,199,-1,199,244,242,-1,199,242,240,-1,236,234,292,-1,292,234,232,-1,292,232,293,-1,293,232,230,-1,293,230,228,-1,228,226,293,-1,293,226,224,-1,293,224,294,-1,294,224,223,-1,294,223,248,-1,288,205,287,-1,287,205,286,-1,279,280,295,-1,280,281,295,-1,295,281,282,-1,295,282,296,-1,282,283,296,-1,296,283,284,-1,296,284,205,-1,205,284,285,-1,205,285,286,-1,288,289,205,-1,205,289,290,-1,205,290,207,-1,207,290,274,-1,279,295,278,-1,278,295,297,-1,278,297,291,-1,295,298,297,-1,297,298,299,-1,299,300,297,-1,297,300,301,-1,297,301,294,-1,301,302,294,-1,294,302,303,-1,294,303,304,-1,304,305,294,-1,294,305,306,-1,294,306,293,-1,201,200,292,-1,307,203,308,-1,203,307,205,-1,205,307,309,-1,205,309,296,-1,296,309,310,-1,296,310,308,-1,308,310,311,-1,308,311,307,-1,312,308,313,-1,313,308,203,-1,313,203,314,-1,314,203,219,-1,314,219,315,-1,315,219,316,-1,315,316,312,-1,312,316,308,-1,317,316,318,-1,318,316,219,-1,318,219,319,-1,319,219,218,-1,319,218,320,-1,320,218,321,-1,320,321,317,-1,317,321,316,-1,322,218,323,-1,323,218,217,-1,323,217,324,-1,324,217,325,-1,324,325,326,-1,326,325,321,-1,326,321,322,-1,322,321,218,-1,327,325,328,-1,328,325,217,-1,328,217,329,-1,329,217,216,-1,329,216,330,-1,330,216,331,-1,330,331,327,-1,327,331,325,-1,332,333,334,-1,334,333,331,-1,334,331,335,-1,335,331,216,-1,335,216,336,-1,216,215,336,-1,336,215,337,-1,336,337,332,-1,332,337,338,-1,332,338,333,-1,333,338,339,-1,333,339,215,-1,215,339,340,-1,215,340,337,-1,341,333,342,-1,342,333,215,-1,342,215,343,-1,343,215,213,-1,343,213,344,-1,344,213,345,-1,344,345,341,-1,341,345,333,-1,346,345,347,-1,347,345,213,-1,347,213,348,-1,348,213,212,-1,348,212,349,-1,349,212,350,-1,349,350,346,-1,346,350,345,-1,292,351,201,-1,201,351,352,-1,201,352,212,-1,212,352,353,-1,212,353,350,-1,350,353,354,-1,350,354,351,-1,351,354,355,-1,351,355,352,-1,292,293,351,-1,351,293,306,-1,351,306,350,-1,350,306,305,-1,350,305,345,-1,345,305,304,-1,345,304,333,-1,333,304,303,-1,333,303,331,-1,331,303,302,-1,331,302,325,-1,325,302,301,-1,325,301,321,-1,321,301,300,-1,321,300,316,-1,316,300,299,-1,316,299,308,-1,308,299,298,-1,308,298,296,-1,296,298,295,-1,202,204,192,-1,192,204,191,-1,204,206,191,-1,191,206,189,-1,206,208,189,-1,189,208,193,-1,208,202,193,-1,193,202,192,-1,197,211,185,-1,185,211,186,-1,211,210,186,-1,186,210,187,-1,210,209,187,-1,187,209,194,-1,356,357,199,-1,199,357,196,-1,357,182,196,-1,196,182,184,-1,196,184,198,-1,357,356,182,-1,182,356,180,-1,214,181,199,-1,199,181,180,-1,199,180,356,-1,214,198,181,-1,181,198,184,-1,297,276,291,-1,291,276,277,-1,294,275,297,-1,297,275,276,-1,275,294,250,-1,250,294,248,-1,
        ]
    }
}
Shape{
    appearance Appearance {
        material  Material 	{
            diffuseColor 0.6470588235294118 0.6196078431372549 0.5882352941176471
            specularColor 0.45098039215686275 0.43529411764705883 0.4117647058823529
            ambientIntensity 0.6242
            transparency 0.0
            shininess 0.5
        }
    }
    geometry IndexedFaceSet {
        ccw TRUE
        solid FALSE
        coord DEF co Coordinate {
            point [
                3.4646 0.0787 1.9291, 3.4646 -0.0787 1.9291, 3.622 0.0787 1.9291, 3.622 -0.0787 1.9291, 3.6693 -0.126 1.7717, 3.6693 -0.126 0.6102, 3.6693 0.126 1.7717, 3.6693 0.126 0.6102, 3.4173 0.126 1.7717, 3.4173 0.126 0.6102, 3.4173 -0.126 1.7717, 3.4173 -0.126 0.6102, 3.6693 -0.126 -1.1417, 3.6693 -0.126 -0.0394, 3.4173 -0.126 -1.1417, 3.4173 -0.126 -0.0394, 3.4173 0.126 -1.1417, 3.4173 0.126 -0.0394, 3.6693 0.126 -1.1417, 3.6693 0.126 -0.0394, 3.6693 0.1086 -0.0394, 3.4173 0.1086 -0.0394, 3.4646 -0.0787 -1.2992, 3.4646 0.0787 -1.2992, 3.622 -0.0787 -1.2992, 3.622 0.0787 -1.2992, 2.6772 0.0787 1.9291, 2.6772 -0.0787 1.9291, 2.8346 0.0787 1.9291, 2.8346 -0.0787 1.9291, 2.8819 -0.126 1.7717, 2.8819 -0.126 0.6102, 2.8819 0.126 1.7717, 2.8819 0.126 0.6102, 2.6299 0.126 1.7717, 2.6299 0.126 0.6102, 2.6299 -0.126 1.7717, 2.6299 -0.126 0.6102, 2.8819 -0.126 -1.1417, 2.8819 -0.126 -0.0394, 2.6299 -0.126 -1.1417, 2.6299 -0.126 -0.0394, 2.6299 0.126 -1.1417, 2.6299 0.126 -0.0394, 2.8819 0.126 -1.1417, 2.8819 0.126 -0.0394, 2.8819 0.1086 -0.0394, 2.6299 0.1086 -0.0394, 2.6772 -0.0787 -1.2992, 2.6772 0.0787 -1.2992, 2.8346 -0.0787 -1.2992, 2.8346 0.0787 -1.2992, 1.8898 0.0787 1.9291, 1.8898 -0.0787 1.9291, 2.0472 0.0787 1.9291, 2.0472 -0.0787 1.9291, 2.0945 -0.126 1.7717, 2.0945 -0.126 0.6102, 2.0945 0.126 1.7717, 2.0945 0.126 0.6102, 1.8425 0.126 1.7717, 1.8425 0.126 0.6102, 1.8425 -0.126 1.7717, 1.8425 -0.126 0.6102, 2.0945 -0.126 -1.1417, 2.0945 -0.126 -0.0394, 1.8425 -0.126 -1.1417, 1.8425 -0.126 -0.0394, 1.8425 0.126 -1.1417, 1.8425 0.126 -0.0394, 2.0945 0.126 -1.1417, 2.0945 0.126 -0.0394, 2.0945 0.1086 -0.0394, 1.8425 0.1086 -0.0394, 1.8898 -0.0787 -1.2992, 1.8898 0.0787 -1.2992, 2.0472 -0.0787 -1.2992, 2.0472 0.0787 -1.2992, 1.1024 0.0787 1.9291, 1.1024 -0.0787 1.9291, 1.2598 0.0787 1.9291, 1.2598 -0.0787 1.9291, 1.3071 -0.126 1.7717, 1.3071 -0.126 0.6102, 1.3071 0.126 1.7717, 1.3071 0.126 0.6102, 1.0551 0.126 1.7717, 1.0551 0.126 0.6102, 1.0551 -0.126 1.7717, 1.0551 -0.126 0.6102, 1.3071 -0.126 -1.1417, 1.3071 -0.126 -0.0394, 1.0551 -0.126 -1.1417, 1.0551 -0.126 -0.0394, 1.0551 0.126 -1.1417, 1.0551 0.126 -0.0394, 1.3071 0.126 -1.1417, 1.3071 0.126 -0.0394, 1.3071 0.1086 -0.0394, 1.0551 0.1086 -0.0394, 1.1024 -0.0787 -1.2992, 1.1024 0.0787 -1.2992, 1.2598 -0.0787 -1.2992, 1.2598 0.0787 -1.2992, 0.315 0.0787 1.9291, 0.315 -0.0787 1.9291, 0.4724 0.0787 1.9291, 0.4724 -0.0787 1.9291, 0.5197 -0.126 1.7717, 0.5197 -0.126 0.6102, 0.5197 0.126 1.7717, 0.5197 0.126 0.6102, 0.2677 0.126 1.7717, 0.2677 0.126 0.6102, 0.2677 -0.126 1.7717, 0.2677 -0.126 0.6102, 0.5197 -0.126 -1.1417, 0.5197 -0.126 -0.0394, 0.2677 -0.126 -1.1417, 0.2677 -0.126 -0.0394, 0.2677 0.126 -1.1417, 0.2677 0.126 -0.0394, 0.5197 0.126 -1.1417, 0.5197 0.126 -0.0394, 0.5197 0.1086 -0.0394, 0.2677 0.0727 -0.0394, 0.2677 0.0888 -0.0394, 0.2677 0.1086 -0.0394, 0.315 -0.0787 -1.2992, 0.315 0.0787 -1.2992, 0.4724 -0.0787 -1.2992, 0.4724 0.0787 -1.2992, -0.4724 0.0787 1.9291, -0.4724 -0.0787 1.9291, -0.315 0.0787 1.9291, -0.315 -0.0787 1.9291, -0.2677 -0.126 1.7717, -0.2677 -0.126 0.6102, -0.2677 0.126 1.7717, -0.2677 0.126 0.6102, -0.5197 0.126 1.7717, -0.5197 0.126 0.6102, -0.5197 -0.126 1.7717, -0.5197 -0.126 0.6102, -0.2677 -0.126 -1.1417, -0.2677 -0.126 -0.0394, -0.5197 -0.126 -1.1417, -0.5197 -0.126 -0.0394, -0.5197 0.126 -1.1417, -0.5197 0.126 -0.0394, -0.2677 0.126 -1.1417, -0.2677 0.126 -0.0394, -0.2677 0.1086 -0.0394, -0.2677 0.0672 -0.0394, -0.2677 0.0888 -0.0394, -0.5197 0.1086 -0.0394, -0.4724 -0.0787 -1.2992, -0.4724 0.0787 -1.2992, -0.315 -0.0787 -1.2992, -0.315 0.0787 -1.2992, -1.2598 0.0787 1.9291, -1.2598 -0.0787 1.9291, -1.1024 0.0787 1.9291, -1.1024 -0.0787 1.9291, -1.0551 -0.126 1.7717, -1.0551 -0.126 0.6102, -1.0551 0.126 1.7717, -1.0551 0.126 0.6102, -1.3071 0.126 1.7717, -1.3071 0.126 0.6102, -1.3071 -0.126 1.7717, -1.3071 -0.126 0.6102, -1.0551 -0.126 -1.1417, -1.0551 -0.126 -0.0394, -1.3071 -0.126 -1.1417, -1.3071 -0.126 -0.0394, -1.3071 0.126 -1.1417, -1.3071 0.126 -0.0394, -1.0551 0.126 -1.1417, -1.0551 0.126 -0.0394, -1.0551 0.1086 -0.0394, -1.3071 0.1086 -0.0394, -1.2598 -0.0787 -1.2992, -1.2598 0.0787 -1.2992, -1.1024 -0.0787 -1.2992, -1.1024 0.0787 -1.2992, -2.0472 0.0787 1.9291, -2.0472 -0.0787 1.9291, -1.8898 0.0787 1.9291, -1.8898 -0.0787 1.9291, -1.8425 -0.126 1.7717, -1.8425 -0.126 0.6102, -1.8425 0.126 1.7717, -1.8425 0.126 0.6102, -2.0945 0.126 1.7717, -2.0945 0.126 0.6102, -2.0945 -0.126 1.7717, -2.0945 -0.126 0.6102, -1.8425 -0.126 -1.1417, -1.8425 -0.126 -0.0394, -2.0945 -0.126 -1.1417, -2.0945 -0.126 -0.0394, -2.0945 0.126 -1.1417, -2.0945 0.126 -0.0394, -1.8425 0.126 -1.1417, -1.8425 0.126 -0.0394, -1.8425 0.1086 -0.0394, -2.0945 0.1086 -0.0394, -2.0472 -0.0787 -1.2992, -2.0472 0.0787 -1.2992, -1.8898 -0.0787 -1.2992, -1.8898 0.0787 -1.2992, -2.8346 0.0787 1.9291, -2.8346 -0.0787 1.9291, -2.6772 0.0787 1.9291, -2.6772 -0.0787 1.9291, -2.6299 -0.126 1.7717, -2.6299 -0.126 0.6102, -2.6299 0.126 1.7717, -2.6299 0.126 0.6102, -2.8819 0.126 1.7717, -2.8819 0.126 0.6102, -2.8819 -0.126 1.7717, -2.8819 -0.126 0.6102, -2.6299 -0.126 -1.1417, -2.6299 -0.126 -0.0394, -2.8819 -0.126 -1.1417, -2.8819 -0.126 -0.0394, -2.8819 0.126 -1.1417, -2.8819 0.126 -0.0394, -2.6299 0.126 -1.1417, -2.6299 0.126 -0.0394, -2.6299 0.1086 -0.0394, -2.8819 0.1086 -0.0394, -2.8346 -0.0787 -1.2992, -2.8346 0.0787 -1.2992, -2.6772 -0.0787 -1.2992, -2.6772 0.0787 -1.2992, -3.622 0.0787 1.9291, -3.622 -0.0787 1.9291, -3.4646 0.0787 1.9291, -3.4646 -0.0787 1.9291, -3.4173 -0.126 1.7717, -3.4173 -0.126 0.6102, -3.4173 0.126 1.7717, -3.4173 0.126 0.6102, -3.6693 0.126 1.7717, -3.6693 0.126 0.6102, -3.6693 -0.126 1.7717, -3.6693 -0.126 0.6102, -3.4173 -0.126 -1.1417, -3.4173 -0.126 -0.0394, -3.6693 -0.126 -1.1417, -3.6693 -0.126 -0.0394, -3.6693 0.126 -1.1417, -3.6693 0.126 -0.0394, -3.4173 0.126 -1.1417, -3.4173 0.126 -0.0394, -3.4173 0.1086 -0.0394, -3.6693 0.1086 -0.0394, -3.622 -0.0787 -1.2992, -3.622 0.0787 -1.2992, -3.4646 -0.0787 -1.2992, -3.4646 0.0787 -1.2992
            ]
        }
        coordIndex [
            0,1,2,-1,2,1,3,-1,4,5,6,-1,6,5,7,-1,8,9,10,-1,10,9,11,-1,6,7,8,-1,8,7,9,-1,10,11,4,-1,4,11,5,-1,12,13,14,-1,14,13,15,-1,16,17,18,-1,18,17,19,-1,13,12,20,-1,20,12,18,-1,20,18,19,-1,17,16,21,-1,21,16,14,-1,21,14,15,-1,22,23,24,-1,24,23,25,-1,18,25,16,-1,16,25,23,-1,12,24,18,-1,18,24,25,-1,22,14,23,-1,23,14,16,-1,14,22,12,-1,12,22,24,-1,4,3,10,-1,10,3,1,-1,6,2,4,-1,4,2,3,-1,0,8,1,-1,1,8,10,-1,8,0,6,-1,6,0,2,-1,26,27,28,-1,28,27,29,-1,30,31,32,-1,32,31,33,-1,34,35,36,-1,36,35,37,-1,32,33,34,-1,34,33,35,-1,36,37,30,-1,30,37,31,-1,38,39,40,-1,40,39,41,-1,42,43,44,-1,44,43,45,-1,39,38,46,-1,46,38,44,-1,46,44,45,-1,43,42,47,-1,47,42,40,-1,47,40,41,-1,48,49,50,-1,50,49,51,-1,52,53,54,-1,54,53,55,-1,56,57,58,-1,58,57,59,-1,60,61,62,-1,62,61,63,-1,58,59,60,-1,60,59,61,-1,62,63,56,-1,56,63,57,-1,64,65,66,-1,66,65,67,-1,68,69,70,-1,70,69,71,-1,65,64,72,-1,72,64,70,-1,72,70,71,-1,69,68,73,-1,73,68,66,-1,73,66,67,-1,74,75,76,-1,76,75,77,-1,78,79,80,-1,80,79,81,-1,82,83,84,-1,84,83,85,-1,86,87,88,-1,88,87,89,-1,84,85,86,-1,86,85,87,-1,88,89,82,-1,82,89,83,-1,90,91,92,-1,92,91,93,-1,94,95,96,-1,96,95,97,-1,91,90,98,-1,98,90,96,-1,98,96,97,-1,95,94,99,-1,99,94,92,-1,99,92,93,-1,100,101,102,-1,102,101,103,-1,104,105,106,-1,106,105,107,-1,108,109,110,-1,110,109,111,-1,112,113,114,-1,114,113,115,-1,110,111,112,-1,112,111,113,-1,114,115,108,-1,108,115,109,-1,116,117,118,-1,118,117,119,-1,120,121,122,-1,122,121,123,-1,117,116,124,-1,124,116,122,-1,124,122,123,-1,118,119,120,-1,120,119,125,-1,125,126,120,-1,120,126,127,-1,120,127,121,-1,128,129,130,-1,130,129,131,-1,132,133,134,-1,134,133,135,-1,136,137,138,-1,138,137,139,-1,140,141,142,-1,142,141,143,-1,138,139,140,-1,140,139,141,-1,142,143,136,-1,136,143,137,-1,144,145,146,-1,146,145,147,-1,148,149,150,-1,150,149,151,-1,150,151,152,-1,145,144,153,-1,153,144,150,-1,153,150,154,-1,154,150,152,-1,149,148,155,-1,155,148,146,-1,155,146,147,-1,156,157,158,-1,158,157,159,-1,160,161,162,-1,162,161,163,-1,164,165,166,-1,166,165,167,-1,168,169,170,-1,170,169,171,-1,166,167,168,-1,168,167,169,-1,170,171,164,-1,164,171,165,-1,172,173,174,-1,174,173,175,-1,176,177,178,-1,178,177,179,-1,173,172,180,-1,180,172,178,-1,180,178,179,-1,177,176,181,-1,181,176,174,-1,181,174,175,-1,182,183,184,-1,184,183,185,-1,186,187,188,-1,188,187,189,-1,190,191,192,-1,192,191,193,-1,194,195,196,-1,196,195,197,-1,192,193,194,-1,194,193,195,-1,196,197,190,-1,190,197,191,-1,198,199,200,-1,200,199,201,-1,202,203,204,-1,204,203,205,-1,199,198,206,-1,206,198,204,-1,206,204,205,-1,203,202,207,-1,207,202,200,-1,207,200,201,-1,208,209,210,-1,210,209,211,-1,212,213,214,-1,214,213,215,-1,216,217,218,-1,218,217,219,-1,220,221,222,-1,222,221,223,-1,218,219,220,-1,220,219,221,-1,222,223,216,-1,216,223,217,-1,224,225,226,-1,226,225,227,-1,228,229,230,-1,230,229,231,-1,225,224,232,-1,232,224,230,-1,232,230,231,-1,229,228,233,-1,233,228,226,-1,233,226,227,-1,234,235,236,-1,236,235,237,-1,238,239,240,-1,240,239,241,-1,242,243,244,-1,244,243,245,-1,246,247,248,-1,248,247,249,-1,244,245,246,-1,246,245,247,-1,248,249,242,-1,242,249,243,-1,250,251,252,-1,252,251,253,-1,254,255,256,-1,256,255,257,-1,251,250,258,-1,258,250,256,-1,258,256,257,-1,255,254,259,-1,259,254,252,-1,259,252,253,-1,260,261,262,-1,262,261,263,-1,44,51,42,-1,42,51,49,-1,38,50,44,-1,44,50,51,-1,48,40,49,-1,49,40,42,-1,40,48,38,-1,38,48,50,-1,30,29,36,-1,36,29,27,-1,32,28,30,-1,30,28,29,-1,26,34,27,-1,27,34,36,-1,34,26,32,-1,32,26,28,-1,70,77,68,-1,68,77,75,-1,64,76,70,-1,70,76,77,-1,74,66,75,-1,75,66,68,-1,66,74,64,-1,64,74,76,-1,56,55,62,-1,62,55,53,-1,58,54,56,-1,56,54,55,-1,52,60,53,-1,53,60,62,-1,60,52,58,-1,58,52,54,-1,96,103,94,-1,94,103,101,-1,90,102,96,-1,96,102,103,-1,100,92,101,-1,101,92,94,-1,92,100,90,-1,90,100,102,-1,82,81,88,-1,88,81,79,-1,84,80,82,-1,82,80,81,-1,78,86,79,-1,79,86,88,-1,86,78,84,-1,84,78,80,-1,122,131,120,-1,120,131,129,-1,116,130,122,-1,122,130,131,-1,128,118,129,-1,129,118,120,-1,118,128,116,-1,116,128,130,-1,108,107,114,-1,114,107,105,-1,110,106,108,-1,108,106,107,-1,104,112,105,-1,105,112,114,-1,112,104,110,-1,110,104,106,-1,150,159,148,-1,148,159,157,-1,144,158,150,-1,150,158,159,-1,156,146,157,-1,157,146,148,-1,146,156,144,-1,144,156,158,-1,136,135,142,-1,142,135,133,-1,138,134,136,-1,136,134,135,-1,132,140,133,-1,133,140,142,-1,140,132,138,-1,138,132,134,-1,178,185,176,-1,176,185,183,-1,172,184,178,-1,178,184,185,-1,182,174,183,-1,183,174,176,-1,174,182,172,-1,172,182,184,-1,164,163,170,-1,170,163,161,-1,166,162,164,-1,164,162,163,-1,160,168,161,-1,161,168,170,-1,168,160,166,-1,166,160,162,-1,204,211,202,-1,202,211,209,-1,198,210,204,-1,204,210,211,-1,208,200,209,-1,209,200,202,-1,200,208,198,-1,198,208,210,-1,190,189,196,-1,196,189,187,-1,192,188,190,-1,190,188,189,-1,186,194,187,-1,187,194,196,-1,194,186,192,-1,192,186,188,-1,230,237,228,-1,228,237,235,-1,224,236,230,-1,230,236,237,-1,234,226,235,-1,235,226,228,-1,226,234,224,-1,224,234,236,-1,216,215,222,-1,222,215,213,-1,218,214,216,-1,216,214,215,-1,212,220,213,-1,213,220,222,-1,220,212,218,-1,218,212,214,-1,256,263,254,-1,254,263,261,-1,250,262,256,-1,256,262,263,-1,260,252,261,-1,261,252,254,-1,252,260,250,-1,250,260,262,-1,242,241,248,-1,248,241,239,-1,244,240,242,-1,242,240,241,-1,238,246,239,-1,239,246,248,-1,246,238,244,-1,244,238,240,-1,
        ]
    }
}
Shape{
    appearance Appearance {
        material  Material 	{
            diffuseColor 1.0 1.0 1.0
            specularColor 0.8784313725490196 0.8784313725490196 0.8784313725490196
            ambientIntensity 1.0
            transparency 0.0
            shininess 0.5
        }
    }
    geometry IndexedFaceSet {
        ccw TRUE
        solid FALSE
        coord DEF co Coordinate {
            point [
                -0.2569 0.0672 0.0, -0.2569 0.0888 0.0, -0.2569 0.0672 -0.0394, -0.2569 0.0888 -0.0394, -0.2677 0.0888 -0.0394, -0.3577 0.0888 0.0, -0.3577 0.0888 -0.0394, -0.3577 -0.1081 0.0, -0.3577 -0.1081 -0.0394, -0.3313 -0.1081 0.0, -0.3313 -0.1081 -0.0394, -0.3313 0.0672 0.0, -0.3313 0.0672 -0.0394, -0.2677 0.0672 -0.0394, -0.0937 0.057 0.0, -0.0937 0.0786 0.0, -0.0937 0.057 -0.0394, -0.0937 0.0786 -0.0394, -0.1478 0.0912 0.0, -0.1478 0.0912 -0.0394, -0.1424 0.0911 -0.0394, -0.1424 0.0911 0.0, -0.1146 0.0872 -0.0394, -0.1146 0.0872 0.0, -0.2401 -0.0059 0.0, -0.2401 -0.0059 -0.0394, -0.2382 0.0169 -0.0394, -0.2382 0.0169 0.0, -0.2323 0.0377 -0.0394, -0.2323 0.0377 0.0, -0.2218 0.0564 -0.0394, -0.2218 0.0564 0.0, -0.207 0.072 -0.0394, -0.207 0.072 0.0, -0.1912 0.0821 -0.0394, -0.1912 0.0821 0.0, -0.1721 0.0887 -0.0394, -0.1721 0.0887 0.0, -0.14 -0.1105 0.0, -0.14 -0.1105 -0.0394, -0.1598 -0.1088 -0.0394, -0.1598 -0.1088 0.0, -0.1817 -0.1025 -0.0394, -0.1817 -0.1025 0.0, -0.2004 -0.0917 -0.0394, -0.2004 -0.0917 0.0, -0.2182 -0.0746 -0.0394, -0.2182 -0.0746 0.0, -0.2297 -0.0562 -0.0394, -0.2297 -0.0562 0.0, -0.2373 -0.0339 -0.0394, -0.2373 -0.0339 0.0, -0.0937 -0.1027 0.0, -0.0937 -0.1027 -0.0394, -0.1164 -0.1088 -0.0394, -0.1164 -0.1088 0.0, -0.0937 -0.0763 0.0, -0.0937 -0.0763 -0.0394, -0.1398 -0.0889 0.0, -0.1398 -0.0889 -0.0394, -0.1158 -0.0857 -0.0394, -0.1158 -0.0857 0.0, -0.2137 -0.0075 0.0, -0.2137 -0.0075 -0.0394, -0.2128 -0.0229 -0.0394, -0.2128 -0.0229 0.0, -0.2075 -0.0439 -0.0394, -0.2075 -0.0439 0.0, -0.1994 -0.0591 -0.0394, -0.1994 -0.0591 0.0, -0.1875 -0.0722 -0.0394, -0.1875 -0.0722 0.0, -0.1739 -0.0814 -0.0394, -0.1739 -0.0814 0.0, -0.1591 -0.0867 -0.0394, -0.1591 -0.0867 0.0, -0.1442 0.0696 0.0, -0.1442 0.0696 -0.0394, -0.1626 0.0675 -0.0394, -0.1626 0.0675 0.0, -0.1769 0.0622 -0.0394, -0.1769 0.0622 0.0, -0.189 0.0541 -0.0394, -0.189 0.0541 0.0, -0.1982 0.0444 -0.0394, -0.1982 0.0444 0.0, -0.2064 0.0307 -0.0394, -0.2064 0.0307 0.0, -0.2117 0.0138 -0.0394, -0.2117 0.0138 0.0, -0.0972 0.0589 -0.0394, -0.0972 0.0589 0.0, -0.1181 0.0667 -0.0394, -0.1181 0.0667 0.0, 0.0504 0.0672 0.0, 0.0504 0.0888 0.0, 0.0504 0.0672 -0.0394, 0.0504 0.0888 -0.0394, -0.0553 0.0888 0.0, -0.0553 0.0888 -0.0394, -0.0553 -0.1081 0.0, -0.0553 -0.1081 -0.0394, 0.0456 -0.1081 0.0, 0.0456 -0.1081 -0.0394, 0.0456 -0.0865 0.0, 0.0456 -0.0865 -0.0394, -0.0288 -0.0865 0.0, -0.0288 -0.0865 -0.0394, -0.0288 -0.0216 0.0, -0.0288 -0.0216 -0.0394, 0.0408 -0.0216 0.0, 0.0408 -0.0216 -0.0394, 0.0408 -0.0 0.0, 0.0408 -0.0 -0.0394, -0.0288 -0.0 0.0, -0.0288 -0.0 -0.0394, -0.0288 0.0672 0.0, -0.0288 0.0672 -0.0394, 0.1423 0.0888 0.0, 0.0888 0.0888 0.0, 0.1423 0.0888 -0.0394, 0.0888 0.0888 -0.0394, 0.0888 -0.1081 0.0, 0.0888 -0.1081 -0.0394, 0.1443 -0.1081 0.0, 0.1443 -0.1081 -0.0394, 0.2472 -0.0121 0.0, 0.2472 -0.0121 -0.0394, 0.2458 -0.0306 -0.0394, 0.2458 -0.0306 0.0, 0.2405 -0.05 -0.0394, 0.2405 -0.05 0.0, 0.2314 -0.067 -0.0394, 0.2314 -0.067 0.0, 0.2174 -0.0824 -0.0394, 0.2174 -0.0824 0.0, 0.2172 -0.0826 -0.0394, 0.2172 -0.0826 0.0, 0.1958 -0.0969 -0.0394, 0.1958 -0.0969 0.0, 0.1728 -0.105 -0.0394, 0.1728 -0.105 0.0, 0.1667 0.0867 -0.0394, 0.1667 0.0867 0.0, 0.1893 0.0799 -0.0394, 0.1893 0.0799 0.0, 0.2099 0.068 -0.0394, 0.2099 0.068 0.0, 0.2261 0.0524 -0.0394, 0.2261 0.0524 0.0, 0.2374 0.0348 -0.0394, 0.2374 0.0348 0.0, 0.2445 0.0142 -0.0394, 0.2445 0.0142 0.0, 0.2077 -0.0589 0.0, 0.1981 -0.069 0.0, 0.1838 -0.0783 0.0, 0.1675 -0.084 0.0, 0.1442 -0.0865 0.0, 0.1152 -0.0865 0.0, 0.1152 0.0672 0.0, 0.1431 0.0672 0.0, 0.1639 0.0652 0.0, 0.1805 0.0601 0.0, 0.1939 0.0521 0.0, 0.2049 0.0412 0.0, 0.2132 0.0276 0.0, 0.219 0.0091 0.0, 0.2208 -0.0116 0.0, 0.2191 -0.0311 0.0, 0.2145 -0.0467 0.0, 0.1442 -0.0865 -0.0394, 0.1152 -0.0865 -0.0394, 0.1675 -0.084 -0.0394, 0.1838 -0.0783 -0.0394, 0.1981 -0.069 -0.0394, 0.2077 -0.0589 -0.0394, 0.2145 -0.0467 -0.0394, 0.2191 -0.0311 -0.0394, 0.2208 -0.0116 -0.0394, 0.219 0.0091 -0.0394, 0.2132 0.0276 -0.0394, 0.2049 0.0412 -0.0394, 0.1939 0.0521 -0.0394, 0.1805 0.0601 -0.0394, 0.1639 0.0652 -0.0394, 0.1431 0.0672 -0.0394, 0.1152 0.0672 -0.0394
            ]
        }
        coordIndex [
            0,1,2,-1,2,1,3,-1,3,1,4,-1,4,1,5,-1,4,5,6,-1,5,7,6,-1,6,7,8,-1,7,9,8,-1,8,9,10,-1,9,11,10,-1,10,11,12,-1,12,11,13,-1,13,11,0,-1,13,0,2,-1,9,7,11,-1,11,7,5,-1,11,5,0,-1,0,5,1,-1,13,4,12,-1,12,4,6,-1,12,6,10,-1,10,6,8,-1,14,15,16,-1,16,15,17,-1,18,19,20,-1,18,20,21,-1,21,20,22,-1,21,22,23,-1,23,22,17,-1,23,17,15,-1,24,25,26,-1,24,26,27,-1,27,26,28,-1,27,28,29,-1,29,28,30,-1,29,30,31,-1,31,30,32,-1,31,32,33,-1,33,32,34,-1,33,34,35,-1,35,34,36,-1,35,36,37,-1,37,36,19,-1,37,19,18,-1,38,39,40,-1,38,40,41,-1,41,40,42,-1,41,42,43,-1,43,42,44,-1,43,44,45,-1,45,44,46,-1,45,46,47,-1,47,46,48,-1,47,48,49,-1,49,48,50,-1,49,50,51,-1,51,50,25,-1,51,25,24,-1,52,53,54,-1,52,54,55,-1,55,54,39,-1,55,39,38,-1,52,56,53,-1,53,56,57,-1,58,59,60,-1,58,60,61,-1,61,60,57,-1,61,57,56,-1,62,63,64,-1,62,64,65,-1,65,64,66,-1,65,66,67,-1,67,66,68,-1,67,68,69,-1,69,68,70,-1,69,70,71,-1,71,70,72,-1,71,72,73,-1,73,72,74,-1,73,74,75,-1,75,74,59,-1,75,59,58,-1,76,77,78,-1,76,78,79,-1,79,78,80,-1,79,80,81,-1,81,80,82,-1,81,82,83,-1,83,82,84,-1,83,84,85,-1,85,84,86,-1,85,86,87,-1,87,86,88,-1,87,88,89,-1,89,88,63,-1,89,63,62,-1,14,16,90,-1,14,90,91,-1,91,90,92,-1,91,92,93,-1,93,92,77,-1,93,77,76,-1,79,18,76,-1,76,18,21,-1,76,21,93,-1,93,21,23,-1,93,23,91,-1,91,23,15,-1,91,15,14,-1,56,52,61,-1,61,52,55,-1,61,55,58,-1,58,55,38,-1,58,38,75,-1,75,38,41,-1,75,41,73,-1,73,41,43,-1,73,43,71,-1,71,43,45,-1,71,45,69,-1,69,45,47,-1,69,47,67,-1,67,47,49,-1,67,49,65,-1,65,49,51,-1,65,51,62,-1,62,51,24,-1,62,24,89,-1,89,24,27,-1,89,27,87,-1,87,27,29,-1,87,29,85,-1,85,29,31,-1,85,31,83,-1,83,31,33,-1,83,33,81,-1,81,33,35,-1,81,35,79,-1,79,35,37,-1,79,37,18,-1,94,95,96,-1,96,95,97,-1,95,98,97,-1,97,98,99,-1,98,100,99,-1,99,100,101,-1,100,102,101,-1,101,102,103,-1,102,104,103,-1,103,104,105,-1,104,106,105,-1,105,106,107,-1,106,108,107,-1,107,108,109,-1,108,110,109,-1,109,110,111,-1,110,112,111,-1,111,112,113,-1,112,114,113,-1,113,114,115,-1,114,116,115,-1,115,116,117,-1,116,94,117,-1,117,94,96,-1,98,95,94,-1,94,116,98,-1,98,116,114,-1,98,114,100,-1,104,102,106,-1,106,102,100,-1,106,100,108,-1,108,100,114,-1,108,114,110,-1,110,114,112,-1,118,119,120,-1,120,119,121,-1,119,122,121,-1,121,122,123,-1,122,124,123,-1,123,124,125,-1,126,127,128,-1,126,128,129,-1,129,128,130,-1,129,130,131,-1,131,130,132,-1,131,132,133,-1,133,132,134,-1,133,134,135,-1,135,134,136,-1,135,136,137,-1,137,136,138,-1,137,138,139,-1,139,138,140,-1,139,140,141,-1,141,140,125,-1,141,125,124,-1,118,120,142,-1,118,142,143,-1,143,142,144,-1,143,144,145,-1,145,144,146,-1,145,146,147,-1,147,146,148,-1,147,148,149,-1,149,148,150,-1,149,150,151,-1,151,150,152,-1,151,152,153,-1,153,152,127,-1,153,127,126,-1,131,133,154,-1,154,133,135,-1,154,135,155,-1,155,135,137,-1,155,137,156,-1,156,137,139,-1,156,139,157,-1,157,139,141,-1,157,141,158,-1,158,141,124,-1,158,124,159,-1,159,124,122,-1,159,122,160,-1,160,122,119,-1,160,119,161,-1,161,119,118,-1,161,118,162,-1,162,118,143,-1,162,143,163,-1,163,143,145,-1,163,145,164,-1,164,145,147,-1,164,147,165,-1,165,147,149,-1,165,149,166,-1,166,149,151,-1,166,151,167,-1,167,151,153,-1,167,153,168,-1,168,153,126,-1,168,126,169,-1,169,126,129,-1,169,129,170,-1,170,129,131,-1,170,131,154,-1,158,159,171,-1,171,159,172,-1,158,171,173,-1,158,173,157,-1,157,173,174,-1,157,174,156,-1,156,174,175,-1,156,175,155,-1,155,175,176,-1,155,176,154,-1,154,176,177,-1,154,177,170,-1,170,177,178,-1,170,178,169,-1,169,178,179,-1,169,179,168,-1,168,179,180,-1,168,180,167,-1,167,180,181,-1,167,181,166,-1,166,181,182,-1,166,182,165,-1,165,182,183,-1,165,183,164,-1,164,183,184,-1,164,184,163,-1,163,184,185,-1,163,185,162,-1,162,185,186,-1,162,186,161,-1,160,161,187,-1,187,161,186,-1,159,160,172,-1,172,160,187,-1,
        ]
    }
}
Shape{
    appearance Appearance {
        material  Material 	{
            diffuseColor 1.0 1.0 1.0
            specularColor 0.5019607843137255 0.5019607843137255 0.5019607843137255
            ambientIntensity 1.0
            transparency 0.0
            shininess 0.5
        }
    }
    geometry IndexedFaceSet {
        ccw TRUE
        solid FALSE
        coord DEF co Coordinate {
            point [
                0.1152 -0.0865 -0.0394, 0.1152 0.0672 -0.0394, 0.1442 -0.0865 -0.0394, 0.1431 0.0672 -0.0394, 0.1639 0.0652 -0.0394, 0.2208 -0.0116 -0.0394, 0.2191 -0.0311 -0.0394, 0.2145 -0.0467 -0.0394, 0.1675 -0.084 -0.0394, 0.1805 0.0601 -0.0394, 0.1939 0.0521 -0.0394, 0.2049 0.0412 -0.0394, 0.2132 0.0276 -0.0394, 0.219 0.0091 -0.0394, 0.2077 -0.0589 -0.0394, 0.1981 -0.069 -0.0394, 0.1838 -0.0783 -0.0394
            ]
        }
        coordIndex [
            0,1,2,-1,2,1,3,-1,2,3,4,-1,5,6,2,-1,2,6,7,-1,2,7,8,-1,4,9,2,-1,2,9,10,-1,2,10,11,-1,11,12,2,-1,2,12,13,-1,2,13,5,-1,14,15,7,-1,7,15,16,-1,7,16,8,-1,
        ]
    }
}
Shape{
    appearance Appearance {
        material  Material 	{
            diffuseColor 1.0 1.0 1.0
            specularColor 0.8784313725490196 0.8784313725490196 0.8784313725490196
            ambientIntensity 1.0
            transparency 0.0
            shininess 0.5
        }
    }
    geometry IndexedFaceSet {
        ccw TRUE
        solid FALSE
        coord DEF co Coordinate {
            point [
                0.3092 0.0336 -0.0394, 0.2904 0.0888 -0.0394, 0.2677 0.0888 -0.0394, 0.4393 0.0888 -0.0394, 0.4105 0.0888 -0.0394, 0.3905 0.0336 -0.0394, 0.3484 -0.0841 -0.0394, 0.336 -0.1081 -0.0394, 0.349 -0.0841 -0.0394, 0.3625 -0.1081 -0.0394, 0.3159 0.012 -0.0394, 0.2677 0.0727 -0.0394, 0.3452 -0.0703 -0.0394, 0.3471 -0.0771 -0.0394, 0.3817 0.012 -0.0394, 0.3521 -0.0703 -0.0394, 0.3503 -0.0771 -0.0394, 0.3625 -0.1081 0.0, 0.4393 0.0888 0.0, 0.4105 0.0888 0.0, 0.3905 0.0336 0.0, 0.3092 0.0336 0.0, 0.2904 0.0888 0.0, 0.2616 0.0888 0.0, 0.2616 0.0888 -0.0394, 0.336 -0.1081 0.0, 0.3159 0.012 0.0, 0.3452 -0.0703 0.0, 0.3471 -0.0771 0.0, 0.3484 -0.0841 0.0, 0.349 -0.0841 0.0, 0.3503 -0.0771 0.0, 0.3817 0.012 0.0, 0.3521 -0.0703 0.0
            ]
        }
        coordIndex [
            0,1,2,-1,3,4,5,-1,6,7,8,-1,8,7,9,-1,10,11,12,-1,12,11,7,-1,12,7,13,-1,13,7,6,-1,14,15,9,-1,9,15,16,-1,9,16,8,-1,2,11,0,-1,0,11,10,-1,0,10,5,-1,5,10,14,-1,5,14,3,-1,3,14,9,-1,17,18,9,-1,9,18,3,-1,18,19,3,-1,3,19,4,-1,19,20,4,-1,4,20,5,-1,20,21,5,-1,5,21,0,-1,21,22,0,-1,0,22,1,-1,1,22,2,-1,2,22,23,-1,2,23,24,-1,24,23,11,-1,11,23,25,-1,11,25,7,-1,25,17,7,-1,7,17,9,-1,26,27,25,-1,23,22,21,-1,27,28,25,-1,25,28,29,-1,25,29,17,-1,17,29,30,-1,17,30,31,-1,25,23,26,-1,26,23,21,-1,26,21,32,-1,32,21,20,-1,31,33,17,-1,17,33,32,-1,17,32,18,-1,18,32,20,-1,18,20,19,-1,26,32,10,-1,10,32,14,-1,27,26,12,-1,12,26,10,-1,27,12,13,-1,27,13,28,-1,28,13,6,-1,28,6,29,-1,30,29,8,-1,8,29,6,-1,30,8,16,-1,30,16,31,-1,31,16,15,-1,31,15,33,-1,32,33,14,-1,14,33,15,-1,
        ]
    }
}