#VRML V2.0 utf8
# 3D model generated by easyeda2kicad.py (https://github.com/uPesy/easyeda2kicad.py)

Shape{
    appearance Appearance {
        material  Material 	{
            diffuseColor 0.7764705882352941 0.7568627450980392 0.7372549019607844
            specularColor 0.38823529411764707 0.3764705882352941 0.3686274509803922
            ambientIntensity 0.7605
            transparency 0.0
            shininess 0.5
        }
    }
    geometry IndexedFaceSet {
        ccw TRUE
        solid FALSE
        coord DEF co Coordinate {
            point [
                0.6275 0.4331 0.5512, 0.4921 0.4331 0.5512, 0.6693 0.3913 0.5512, 0.5709 0.2953 0.5512, 0.6693 0.2953 0.5512, 0.5669 0.2362 0.5512, 0.5709 0.2362 0.5512, 0.4508 -0.2537 0.5512, 0.5669 -0.2362 0.5512, 0.4528 -0.2362 0.5512, 0.5669 -0.1969 0.5512, 0.4528 0.2362 0.5512, 0.445 -0.2704 0.5512, 0.4356 -0.2853 0.5512, 0.4231 -0.2978 0.5512, -0.445 0.2704 0.5512, -0.4356 0.2853 0.5512, -0.5669 0.2362 0.5512, -0.4231 0.2978 0.5512, 0.6063 -0.1969 0.5512, 0.6063 0.1969 0.5512, 0.5669 0.1969 0.5512, 0.4508 0.2537 0.5512, -0.4921 0.4331 0.5512, -0.1889 0.3454 0.5512, -0.4921 0.4724 0.5512, -0.1378 0.3688 0.5512, -0.4231 -0.2978 0.5512, -0.4356 -0.2853 0.5512, -0.5669 -0.2362 0.5512, 0.374 -0.315 0.5512, 0.2362 -0.315 0.5512, 0.1889 -0.3454 0.5512, -0.5709 0.2953 0.5512, -0.5709 0.2362 0.5512, -0.2362 0.315 0.5512, -0.374 0.315 0.5512, -0.3915 0.313 0.5512, -0.4082 0.3072 0.5512, 0.6693 -0.3913 0.5512, 0.6693 -0.2953 0.5512, 0.5709 -0.2953 0.5512, -0.5709 -0.2953 0.5512, -0.6693 -0.2953 0.5512, -0.6693 -0.3913 0.5512, 0.2362 0.315 0.5512, 0.374 0.315 0.5512, 0.3915 0.313 0.5512, 0.4082 0.3072 0.5512, 0.4231 0.2978 0.5512, 0.4356 0.2853 0.5512, 0.445 0.2704 0.5512, 0.0281 0.3927 0.5512, 0.4921 0.4724 0.5512, -0.0281 0.3927 0.5512, -0.0838 0.3847 0.5512, -0.6693 0.3913 0.5512, -0.6693 0.2953 0.5512, -0.6275 0.4331 0.5512, -0.5709 -0.2362 0.5512, -0.4508 -0.2537 0.5512, -0.4528 -0.2362 0.5512, -0.5669 0.1969 0.5512, -0.4528 0.2362 0.5512, -0.4508 0.2537 0.5512, -0.445 -0.2704 0.5512, -0.5669 -0.1969 0.5512, -0.6063 -0.1969 0.5512, -0.6063 0.1969 0.5512, 0.0838 0.3847 0.5512, 0.1378 0.3688 0.5512, 0.1889 0.3454 0.5512, -0.4921 -0.4331 0.5512, -0.3915 -0.313 0.5512, -0.4082 -0.3072 0.5512, 0.4082 -0.3072 0.5512, 0.3915 -0.313 0.5512, 0.4921 -0.4331 0.5512, -0.1889 -0.3454 0.5512, -0.2362 -0.315 0.5512, -0.374 -0.315 0.5512, -0.6275 -0.4331 0.5512, -0.1378 -0.3688 0.5512, -0.4921 -0.4724 0.5512, -0.0838 -0.3847 0.5512, 0.5709 -0.2362 0.5512, 0.4921 -0.4724 0.5512, 0.1378 -0.3688 0.5512, 0.6275 -0.4331 0.5512, 0.0838 -0.3847 0.5512, 0.0281 -0.3927 0.5512, -0.0281 -0.3927 0.5512, -0.6693 -0.3913 0.4724, -0.6693 -0.2953 0.4724, -0.5709 -0.2953 0.4724, 0.5709 -0.2953 0.4724, 0.6693 -0.2953 0.4724, 0.6693 -0.3913 0.4724, -0.374 -0.315 0.4724, -0.2362 -0.315 0.4724, -0.1889 -0.3454 0.4724, 0.6693 0.3913 0.4724, 0.6693 0.2953 0.4724, 0.5709 0.2953 0.4724, -0.5709 0.2953 0.4724, -0.6693 0.2953 0.4724, -0.6693 0.3913 0.4724, 0.374 0.315 0.4724, 0.2362 0.315 0.4724, 0.1889 0.3454 0.4724, -0.4508 -0.2537 0.4724, -0.5669 -0.2362 0.4724, -0.4528 -0.2362 0.4724, -0.5669 -0.1969 0.4724, -0.4528 0.2362 0.4724, -0.445 -0.2704 0.4724, -0.4356 -0.2853 0.4724, -0.4231 -0.2978 0.4724, -0.5669 0.2362 0.4724, -0.5709 0.2362 0.4724, 0.4082 0.3072 0.4724, 0.3915 0.313 0.4724, 0.4921 0.4331 0.4724, -0.374 0.315 0.4724, -0.3915 0.313 0.4724, -0.4921 0.4331 0.4724, 0.5709 0.2362 0.4724, 0.5669 0.2362 0.4724, 0.4231 0.2978 0.4724, 0.4356 0.2853 0.4724, 0.445 0.2704 0.4724, -0.2362 0.315 0.4724, -0.6275 0.4331 0.4724, -0.4356 0.2853 0.4724, 0.4921 0.4724 0.4724, 0.1378 0.3688 0.4724, 0.6275 0.4331 0.4724, 0.5669 -0.2362 0.4724, 0.4231 -0.2978 0.4724, 0.4356 -0.2853 0.4724, 0.5709 -0.2362 0.4724, -0.4082 -0.3072 0.4724, -0.3915 -0.313 0.4724, -0.4921 -0.4331 0.4724, -0.4082 0.3072 0.4724, -0.4231 0.2978 0.4724, -0.0281 0.3927 0.4724, -0.4921 0.4724 0.4724, 0.0281 0.3927 0.4724, 0.0838 0.3847 0.4724, 0.4508 -0.2537 0.4724, 0.4528 -0.2362 0.4724, 0.5669 0.1969 0.4724, 0.4528 0.2362 0.4724, 0.4508 0.2537 0.4724, -0.6063 -0.1969 0.4724, -0.6063 0.1969 0.4724, -0.5669 0.1969 0.4724, -0.4508 0.2537 0.4724, -0.445 0.2704 0.4724, -0.0838 0.3847 0.4724, -0.1378 0.3688 0.4724, -0.1889 0.3454 0.4724, 0.4921 -0.4331 0.4724, 0.3915 -0.313 0.4724, 0.4082 -0.3072 0.4724, -0.5709 -0.2362 0.4724, 0.445 -0.2704 0.4724, 0.5669 -0.1969 0.4724, 0.6063 -0.1969 0.4724, 0.6063 0.1969 0.4724, 0.1889 -0.3454 0.4724, 0.2362 -0.315 0.4724, 0.374 -0.315 0.4724, -0.4921 -0.4724 0.4724, -0.1378 -0.3688 0.4724, -0.6275 -0.4331 0.4724, 0.6275 -0.4331 0.4724, 0.1378 -0.3688 0.4724, 0.4921 -0.4724 0.4724, 0.0838 -0.3847 0.4724, -0.0838 -0.3847 0.4724, -0.0281 -0.3927 0.4724, 0.0281 -0.3927 0.4724, -0.3346 0.4921 0.3543, -0.3346 0.5709 0.3543, 0.3346 0.4921 0.3543, 0.3346 0.5709 0.3543, 0.3346 -0.5709 0.3543, -0.3346 -0.5709 0.3543, 0.3346 -0.4921 0.3543, -0.3346 -0.4921 0.3543, 0.4921 -0.4775 0.4718, 0.4921 -0.4979 0.5478, 0.4921 -0.4823 0.4698, 0.4921 -0.5217 0.538, 0.4921 -0.4864 0.4667, 0.4921 -0.542 0.5224, 0.4921 -0.4895 0.4626, 0.4921 -0.5577 0.502, 0.4921 -0.4915 0.4579, 0.4921 -0.5675 0.4782, 0.4921 -0.4921 0.4528, 0.4921 -0.5709 0.4528, -0.4921 -0.4921 0.4528, -0.4921 -0.5709 0.4528, -0.4921 -0.4915 0.4579, -0.4921 -0.5675 0.4782, -0.4921 -0.4895 0.4626, -0.4921 -0.5577 0.502, -0.4921 -0.4864 0.4667, -0.4921 -0.542 0.5224, -0.4921 -0.4823 0.4698, -0.4921 -0.5217 0.538, -0.4921 -0.4775 0.4718, -0.4921 -0.4979 0.5478, -0.4921 -0.4921 0.2756, -0.4921 -0.5709 0.2756, 0.4921 -0.5709 0.2756, 0.4921 -0.4921 0.2756, -0.6496 -0.5709 0.1575, -0.689 -0.5709 0.2756, -0.689 -0.5709 0.1969, -0.374 -0.5709 0.1575, -0.3638 -0.5709 0.1588, -0.3543 -0.5709 0.1628, -0.3462 -0.5709 0.169, -0.3399 -0.5709 0.1772, -0.6876 -0.5709 0.1867, -0.6837 -0.5709 0.1772, -0.6598 -0.5709 0.1588, -0.6774 -0.5709 0.169, -0.6693 -0.5709 0.1628, -0.336 -0.5709 0.1867, -0.3346 -0.5709 0.1969, 0.3346 -0.5709 0.1969, 0.336 -0.5709 0.1867, 0.6496 -0.5709 0.1575, 0.6837 -0.5709 0.1772, 0.6876 -0.5709 0.1867, 0.3399 -0.5709 0.1772, 0.3462 -0.5709 0.169, 0.3543 -0.5709 0.1628, 0.6598 -0.5709 0.1588, 0.6693 -0.5709 0.1628, 0.6774 -0.5709 0.169, 0.689 -0.5709 0.1969, 0.689 -0.5709 0.2756, 0.374 -0.5709 0.1575, 0.3638 -0.5709 0.1588, 0.6496 -0.4921 0.1575, 0.689 -0.4921 0.2756, 0.689 -0.4921 0.1969, 0.3638 -0.4921 0.1588, 0.3543 -0.4921 0.1628, 0.3462 -0.4921 0.169, 0.3399 -0.4921 0.1772, -0.374 -0.4921 0.1575, -0.689 -0.4921 0.2756, -0.6496 -0.4921 0.1575, -0.689 -0.4921 0.1969, -0.6876 -0.4921 0.1867, 0.374 -0.4921 0.1575, -0.3346 -0.4921 0.1969, 0.3346 -0.4921 0.1969, 0.336 -0.4921 0.1867, 0.6837 -0.4921 0.1772, 0.6774 -0.4921 0.169, 0.6693 -0.4921 0.1628, -0.6693 -0.4921 0.1628, -0.6774 -0.4921 0.169, -0.6837 -0.4921 0.1772, 0.6876 -0.4921 0.1867, 0.6598 -0.4921 0.1588, -0.336 -0.4921 0.1867, -0.3399 -0.4921 0.1772, -0.3462 -0.4921 0.169, -0.3543 -0.4921 0.1628, -0.3638 -0.4921 0.1588, -0.6598 -0.4921 0.1588, -0.4921 0.4775 0.4718, -0.4921 0.4979 0.5478, -0.4921 0.4823 0.4698, -0.4921 0.5217 0.538, -0.4921 0.4864 0.4667, -0.4921 0.542 0.5224, -0.4921 0.4895 0.4626, -0.4921 0.5577 0.502, -0.4921 0.4915 0.4579, -0.4921 0.5675 0.4782, -0.4921 0.4921 0.4528, -0.4921 0.5709 0.4528, 0.4921 0.4921 0.4528, 0.4921 0.5709 0.4528, 0.4921 0.4915 0.4579, 0.4921 0.5675 0.4782, 0.4921 0.4895 0.4626, 0.4921 0.5577 0.502, 0.4921 0.4864 0.4667, 0.4921 0.542 0.5224, 0.4921 0.4823 0.4698, 0.4921 0.5217 0.538, 0.4921 0.4775 0.4718, 0.4921 0.4979 0.5478, 0.4921 0.4921 0.2756, 0.4921 0.5709 0.2756, -0.4921 0.5709 0.2756, -0.4921 0.4921 0.2756, 0.6598 0.5709 0.1588, 0.6496 0.5709 0.1575, 0.689 0.5709 0.1969, 0.689 0.5709 0.2756, 0.374 0.5709 0.1575, 0.3638 0.5709 0.1588, 0.6837 0.5709 0.1772, 0.6774 0.5709 0.169, 0.6693 0.5709 0.1628, -0.374 0.5709 0.1575, -0.689 0.5709 0.2756, -0.6496 0.5709 0.1575, 0.3543 0.5709 0.1628, 0.3462 0.5709 0.169, 0.3399 0.5709 0.1772, -0.3346 0.5709 0.1969, 0.3346 0.5709 0.1969, 0.336 0.5709 0.1867, 0.6876 0.5709 0.1867, -0.6837 0.5709 0.1772, -0.6876 0.5709 0.1867, -0.689 0.5709 0.1969, -0.336 0.5709 0.1867, -0.3399 0.5709 0.1772, -0.3462 0.5709 0.169, -0.3543 0.5709 0.1628, -0.3638 0.5709 0.1588, -0.6774 0.5709 0.169, -0.6598 0.5709 0.1588, -0.6693 0.5709 0.1628, 0.374 0.4921 0.1575, 0.689 0.4921 0.2756, 0.6496 0.4921 0.1575, 0.689 0.4921 0.1969, 0.6693 0.4921 0.1628, 0.6774 0.4921 0.169, 0.6837 0.4921 0.1772, 0.3399 0.4921 0.1772, 0.3462 0.4921 0.169, 0.6598 0.4921 0.1588, 0.6876 0.4921 0.1867, -0.6496 0.4921 0.1575, -0.374 0.4921 0.1575, -0.3638 0.4921 0.1588, 0.336 0.4921 0.1867, -0.3543 0.4921 0.1628, -0.3462 0.4921 0.169, -0.3399 0.4921 0.1772, -0.689 0.4921 0.2756, -0.689 0.4921 0.1969, -0.6876 0.4921 0.1867, -0.336 0.4921 0.1867, -0.3346 0.4921 0.1969, 0.3346 0.4921 0.1969, 0.3543 0.4921 0.1628, 0.3638 0.4921 0.1588, -0.6837 0.4921 0.1772, -0.6774 0.4921 0.169, -0.6598 0.4921 0.1588, -0.6693 0.4921 0.1628, -0.6073 -0.1969 0.4723, -0.6277 -0.1969 0.5484, -0.6083 -0.1969 0.4719, -0.6476 -0.1969 0.5401, -0.6091 -0.1969 0.4713, -0.6648 -0.1969 0.527, -0.6097 -0.1969 0.4705, -0.6779 -0.1969 0.5098, -0.6101 -0.1969 0.4695, -0.6862 -0.1969 0.4899, -0.6102 -0.1969 0.4685, -0.689 -0.1969 0.4685, -0.6102 0.1969 0.4685, -0.689 0.1969 0.4685, -0.6101 0.1969 0.4695, -0.6862 0.1969 0.4899, -0.6097 0.1969 0.4705, -0.6779 0.1969 0.5098, -0.6091 0.1969 0.4713, -0.6648 0.1969 0.527, -0.6083 0.1969 0.4719, -0.6476 0.1969 0.5401, -0.6073 0.1969 0.4723, -0.6277 0.1969 0.5484, -0.689 0.1969 0.3543, -0.6102 0.1969 0.3543, -0.6102 -0.1969 0.3543, -0.689 -0.1969 0.3543, -0.689 0.1677 0.3163, -0.689 0.1575 0.315, -0.689 0.1955 0.3441, -0.689 0.1916 0.3346, -0.689 0.1853 0.3265, -0.689 -0.1575 0.315, -0.689 -0.1955 0.3441, -0.689 -0.1677 0.3163, -0.689 -0.1772 0.3202, -0.689 -0.1853 0.3265, -0.689 0.1772 0.3202, -0.689 -0.1916 0.3346, -0.6102 0.1955 0.3441, -0.6102 0.1575 0.315, -0.6102 -0.1575 0.315, -0.6102 0.1677 0.3163, -0.6102 0.1772 0.3202, -0.6102 0.1853 0.3265, -0.6102 -0.1955 0.3441, -0.6102 0.1916 0.3346, -0.6102 -0.1772 0.3202, -0.6102 -0.1677 0.3163, -0.6102 -0.1853 0.3265, -0.6102 -0.1916 0.3346, 0.6073 0.1969 0.4723, 0.6277 0.1969 0.5484, 0.6083 0.1969 0.4719, 0.6476 0.1969 0.5401, 0.6091 0.1969 0.4713, 0.6648 0.1969 0.527, 0.6097 0.1969 0.4705, 0.6779 0.1969 0.5098, 0.6101 0.1969 0.4695, 0.6862 0.1969 0.4899, 0.6102 0.1969 0.4685, 0.689 0.1969 0.4685, 0.6102 -0.1969 0.4685, 0.689 -0.1969 0.4685, 0.6101 -0.1969 0.4695, 0.6862 -0.1969 0.4899, 0.6097 -0.1969 0.4705, 0.6779 -0.1969 0.5098, 0.6091 -0.1969 0.4713, 0.6648 -0.1969 0.527, 0.6083 -0.1969 0.4719, 0.6476 -0.1969 0.5401, 0.6073 -0.1969 0.4723, 0.6277 -0.1969 0.5484, 0.689 -0.1969 0.3543, 0.6102 -0.1969 0.3543, 0.6102 0.1969 0.3543, 0.689 0.1969 0.3543, 0.689 0.1916 0.3346, 0.689 0.1955 0.3441, 0.689 -0.1575 0.315, 0.689 0.1575 0.315, 0.689 0.1677 0.3163, 0.689 -0.1955 0.3441, 0.689 -0.1916 0.3346, 0.689 0.1772 0.3202, 0.689 0.1853 0.3265, 0.689 -0.1853 0.3265, 0.689 -0.1772 0.3202, 0.689 -0.1677 0.3163, 0.6102 0.1772 0.3202, 0.6102 0.1853 0.3265, 0.6102 0.1955 0.3441, 0.6102 0.1916 0.3346, 0.6102 0.1677 0.3163, 0.6102 0.1575 0.315, 0.6102 -0.1575 0.315, 0.6102 -0.1955 0.3441, 0.6102 -0.1677 0.3163, 0.6102 -0.1772 0.3202, 0.6102 -0.1853 0.3265, 0.6102 -0.1916 0.3346, -0.7092 0.4134 0.0931, -0.8101 0.4134 0.2584, -0.7092 0.2165 0.0931, -0.8101 0.2165 0.2584, -0.5512 0.1693 0.0, -0.5512 0.4134 0.0, -0.5512 0.1693 0.0853, -0.5512 0.4134 0.0853, -0.8829 0.2165 0.214, -0.8829 0.4134 0.214, -0.6952 0.4134 0.0, -0.6952 0.1693 0.0, -0.6952 0.1693 0.0853, -0.6952 0.4134 0.0853, -0.782 0.2165 0.0487, -0.782 0.4134 0.0487, -0.7734 0.4134 0.0367, -0.7734 0.1693 0.0367, -0.782 0.1693 0.0487, -0.7631 0.4134 0.026, -0.7631 0.1693 0.026, -0.7513 0.4134 0.0169, -0.7513 0.1693 0.0169, -0.7384 0.4134 0.0096, -0.7384 0.1693 0.0096, -0.7245 0.4134 0.0043, -0.7245 0.1693 0.0043, -0.71 0.4134 0.0011, -0.71 0.1693 0.0011, -0.7032 0.1693 0.0874, -0.7066 0.1693 0.0899, -0.7092 0.1693 0.0931, -0.6994 0.1693 0.0858, -0.6994 0.4134 0.0858, -0.7032 0.4134 0.0874, -0.7066 0.4134 0.0899, -0.5512 -0.1693 0.0853, -0.5512 -0.4134 0.0853, -0.5512 -0.1693 0.0, -0.5512 -0.4134 0.0, -0.8829 -0.4134 0.214, -0.8101 -0.4134 0.2584, -0.8829 -0.2165 0.214, -0.8101 -0.2165 0.2584, -0.6952 -0.4134 0.0853, -0.6952 -0.1693 0.0853, -0.6952 -0.1693 0.0, -0.6952 -0.4134 0.0, -0.7092 -0.2165 0.0931, -0.7092 -0.4134 0.0931, -0.7066 -0.4134 0.0899, -0.7092 -0.1693 0.0931, -0.7066 -0.1693 0.0899, -0.7032 -0.1693 0.0874, -0.7032 -0.4134 0.0874, -0.6994 -0.1693 0.0858, -0.6994 -0.4134 0.0858, -0.782 -0.1693 0.0487, -0.7734 -0.1693 0.0367, -0.7631 -0.1693 0.026, -0.7513 -0.1693 0.0169, -0.7384 -0.1693 0.0096, -0.7245 -0.1693 0.0043, -0.71 -0.1693 0.0011, -0.782 -0.2165 0.0487, -0.7734 -0.4134 0.0367, -0.782 -0.4134 0.0487, -0.7631 -0.4134 0.026, -0.7513 -0.4134 0.0169, -0.7384 -0.4134 0.0096, -0.7245 -0.4134 0.0043, -0.71 -0.4134 0.0011, 0.5512 -0.4134 0.0853, 0.5512 -0.1693 0.0853, 0.5512 -0.4134 0.0, 0.5512 -0.1693 0.0, 0.8101 -0.4134 0.2584, 0.8829 -0.4134 0.214, 0.8101 -0.2165 0.2584, 0.8829 -0.2165 0.214, 0.6952 -0.4134 0.0853, 0.6952 -0.1693 0.0853, 0.6952 -0.1693 0.0, 0.6952 -0.4134 0.0, 0.7092 -0.2165 0.0931, 0.7092 -0.1693 0.0931, 0.7066 -0.1693 0.0899, 0.7092 -0.4134 0.0931, 0.7066 -0.4134 0.0899, 0.7032 -0.4134 0.0874, 0.7032 -0.1693 0.0874, 0.6994 -0.4134 0.0858, 0.6994 -0.1693 0.0858, 0.782 -0.1693 0.0487, 0.7734 -0.1693 0.0367, 0.71 -0.1693 0.0011, 0.7631 -0.1693 0.026, 0.7513 -0.1693 0.0169, 0.7384 -0.1693 0.0096, 0.7245 -0.1693 0.0043, 0.782 -0.2165 0.0487, 0.71 -0.4134 0.0011, 0.7245 -0.4134 0.0043, 0.7384 -0.4134 0.0096, 0.7513 -0.4134 0.0169, 0.7631 -0.4134 0.026, 0.7734 -0.4134 0.0367, 0.782 -0.4134 0.0487, 0.8101 0.4134 0.2584, 0.7092 0.4134 0.0931, 0.8101 0.2165 0.2584, 0.7092 0.2165 0.0931, 0.5512 0.4134 0.0, 0.5512 0.1693 0.0, 0.5512 0.4134 0.0853, 0.5512 0.1693 0.0853, 0.8829 0.4134 0.214, 0.8829 0.2165 0.214, 0.6952 0.4134 0.0, 0.6952 0.1693 0.0, 0.6952 0.1693 0.0853, 0.6952 0.4134 0.0853, 0.782 0.2165 0.0487, 0.782 0.1693 0.0487, 0.7734 0.1693 0.0367, 0.7734 0.4134 0.0367, 0.7631 0.1693 0.026, 0.7631 0.4134 0.026, 0.7513 0.1693 0.0169, 0.7513 0.4134 0.0169, 0.7384 0.1693 0.0096, 0.7384 0.4134 0.0096, 0.7245 0.1693 0.0043, 0.7245 0.4134 0.0043, 0.71 0.1693 0.0011, 0.71 0.4134 0.0011, 0.782 0.4134 0.0487, 0.7066 0.1693 0.0899, 0.7032 0.1693 0.0874, 0.6994 0.1693 0.0858, 0.7092 0.1693 0.0931, 0.7066 0.4134 0.0899, 0.7032 0.4134 0.0874, 0.6994 0.4134 0.0858
            ]
        }
        coordIndex [
            0,1,2,-1,2,1,3,-1,2,3,4,-1,5,6,3,-1,7,8,9,-1,9,8,10,-1,9,10,11,-1,7,12,8,-1,8,12,13,-1,8,13,14,-1,15,16,17,-1,17,16,18,-1,19,20,10,-1,10,20,21,-1,10,21,11,-1,11,21,5,-1,11,5,22,-1,22,5,3,-1,23,24,25,-1,25,24,26,-1,27,28,29,-1,30,31,32,-1,33,34,17,-1,35,24,36,-1,36,24,23,-1,36,23,37,-1,37,23,38,-1,39,40,41,-1,42,43,44,-1,45,46,1,-1,1,46,47,-1,1,47,48,-1,48,49,1,-1,1,49,50,-1,1,50,3,-1,3,50,51,-1,3,51,22,-1,52,53,54,-1,54,53,25,-1,54,25,55,-1,55,25,26,-1,56,57,58,-1,58,57,33,-1,58,33,23,-1,23,33,17,-1,23,17,38,-1,38,17,18,-1,29,59,42,-1,60,61,62,-1,62,61,63,-1,62,63,17,-1,17,63,64,-1,17,64,15,-1,28,65,29,-1,29,65,60,-1,29,60,66,-1,66,60,62,-1,66,62,67,-1,67,62,68,-1,52,69,53,-1,53,69,70,-1,53,70,1,-1,1,70,71,-1,1,71,45,-1,72,73,74,-1,75,76,77,-1,78,79,72,-1,72,79,80,-1,72,80,73,-1,27,29,74,-1,74,29,42,-1,74,42,72,-1,72,42,44,-1,72,44,81,-1,78,72,82,-1,82,72,83,-1,82,83,84,-1,41,85,8,-1,76,30,77,-1,77,30,32,-1,77,32,86,-1,86,32,87,-1,14,75,8,-1,8,75,77,-1,8,77,41,-1,41,77,88,-1,41,88,39,-1,87,89,86,-1,86,89,90,-1,86,90,83,-1,83,90,91,-1,83,91,84,-1,92,93,94,-1,95,96,97,-1,98,99,100,-1,101,102,103,-1,104,105,106,-1,107,108,109,-1,110,111,112,-1,112,111,113,-1,112,113,114,-1,110,115,111,-1,111,115,116,-1,111,116,117,-1,118,119,104,-1,120,121,122,-1,123,124,125,-1,103,126,127,-1,128,127,129,-1,129,127,130,-1,123,125,131,-1,106,132,104,-1,104,132,125,-1,104,125,133,-1,121,107,122,-1,122,107,109,-1,122,109,134,-1,134,109,135,-1,128,120,127,-1,127,120,122,-1,127,122,103,-1,103,122,136,-1,103,136,101,-1,137,138,139,-1,137,140,95,-1,141,142,143,-1,124,144,125,-1,125,144,145,-1,125,145,133,-1,146,147,148,-1,148,147,134,-1,148,134,149,-1,149,134,135,-1,150,151,152,-1,152,151,153,-1,152,153,127,-1,127,153,154,-1,127,154,130,-1,155,156,113,-1,113,156,157,-1,113,157,114,-1,114,157,118,-1,114,118,158,-1,158,118,104,-1,158,104,159,-1,159,104,133,-1,146,160,147,-1,147,160,161,-1,147,161,125,-1,125,161,162,-1,125,162,131,-1,163,164,165,-1,94,166,111,-1,139,167,137,-1,137,167,150,-1,137,150,168,-1,168,150,152,-1,168,152,169,-1,169,152,170,-1,171,172,163,-1,163,172,173,-1,163,173,164,-1,142,98,143,-1,143,98,100,-1,143,100,174,-1,174,100,175,-1,117,141,111,-1,111,141,143,-1,111,143,94,-1,94,143,176,-1,94,176,92,-1,138,137,165,-1,165,137,95,-1,165,95,163,-1,163,95,97,-1,163,97,177,-1,171,163,178,-1,178,163,179,-1,178,179,180,-1,175,181,174,-1,174,181,182,-1,174,182,179,-1,179,182,183,-1,179,183,180,-1,41,95,85,-1,85,95,140,-1,10,168,19,-1,19,168,169,-1,126,103,6,-1,6,103,3,-1,33,104,34,-1,34,104,119,-1,62,157,68,-1,68,157,156,-1,166,94,59,-1,59,94,42,-1,184,185,186,-1,186,185,187,-1,188,189,190,-1,190,189,191,-1,125,23,147,-1,147,23,25,-1,53,1,134,-1,134,1,122,-1,163,77,179,-1,179,77,86,-1,83,72,174,-1,174,72,143,-1,132,58,125,-1,125,58,23,-1,132,106,58,-1,58,106,56,-1,106,105,56,-1,56,105,57,-1,105,104,57,-1,57,104,33,-1,173,172,30,-1,30,172,31,-1,99,79,100,-1,100,79,78,-1,100,78,175,-1,175,78,82,-1,175,82,181,-1,181,82,84,-1,181,84,182,-1,182,84,91,-1,182,91,183,-1,183,91,90,-1,183,90,180,-1,180,90,89,-1,180,89,178,-1,178,89,87,-1,178,87,171,-1,171,87,32,-1,171,32,172,-1,172,32,31,-1,99,98,79,-1,79,98,80,-1,112,61,110,-1,110,61,60,-1,110,60,115,-1,115,60,65,-1,115,65,116,-1,116,65,28,-1,116,28,117,-1,117,28,27,-1,117,27,141,-1,141,27,74,-1,141,74,142,-1,142,74,73,-1,142,73,98,-1,98,73,80,-1,112,114,61,-1,61,114,63,-1,123,36,124,-1,124,36,37,-1,124,37,144,-1,144,37,38,-1,144,38,145,-1,145,38,18,-1,145,18,133,-1,133,18,16,-1,133,16,159,-1,159,16,15,-1,159,15,158,-1,158,15,64,-1,158,64,114,-1,114,64,63,-1,123,131,36,-1,36,131,35,-1,108,45,109,-1,109,45,71,-1,109,71,135,-1,135,71,70,-1,135,70,149,-1,149,70,69,-1,149,69,148,-1,148,69,52,-1,148,52,146,-1,146,52,54,-1,146,54,160,-1,160,54,55,-1,160,55,161,-1,161,55,26,-1,161,26,162,-1,162,26,24,-1,162,24,131,-1,131,24,35,-1,108,107,45,-1,45,107,46,-1,153,11,154,-1,154,11,22,-1,154,22,130,-1,130,22,51,-1,130,51,129,-1,129,51,50,-1,129,50,128,-1,128,50,49,-1,128,49,120,-1,120,49,48,-1,120,48,121,-1,121,48,47,-1,121,47,107,-1,107,47,46,-1,153,151,11,-1,11,151,9,-1,173,30,164,-1,164,30,76,-1,164,76,165,-1,165,76,75,-1,165,75,138,-1,138,75,14,-1,138,14,139,-1,139,14,13,-1,139,13,167,-1,167,13,12,-1,167,12,150,-1,150,12,7,-1,150,7,151,-1,151,7,9,-1,177,88,163,-1,163,88,77,-1,177,97,88,-1,88,97,39,-1,97,96,39,-1,39,96,40,-1,96,95,40,-1,40,95,41,-1,152,21,170,-1,170,21,20,-1,103,102,3,-1,3,102,4,-1,102,101,4,-1,4,101,2,-1,101,136,2,-1,2,136,0,-1,0,136,1,-1,1,136,122,-1,113,66,155,-1,155,66,67,-1,94,93,42,-1,42,93,43,-1,93,92,43,-1,43,92,44,-1,92,176,44,-1,44,176,81,-1,81,176,72,-1,72,176,143,-1,179,86,192,-1,192,86,193,-1,192,193,194,-1,194,193,195,-1,194,195,196,-1,196,195,197,-1,196,197,198,-1,198,197,199,-1,198,199,200,-1,200,199,201,-1,200,201,202,-1,202,201,203,-1,204,205,206,-1,206,205,207,-1,206,207,208,-1,208,207,209,-1,208,209,210,-1,210,209,211,-1,210,211,212,-1,212,211,213,-1,212,213,214,-1,214,213,215,-1,214,215,174,-1,174,215,83,-1,86,83,215,-1,86,215,193,-1,193,215,213,-1,193,213,195,-1,195,213,211,-1,195,211,197,-1,197,211,209,-1,197,209,199,-1,199,209,207,-1,199,207,201,-1,201,207,205,-1,201,205,203,-1,202,204,200,-1,200,204,206,-1,200,206,198,-1,198,206,208,-1,198,208,196,-1,196,208,210,-1,196,210,194,-1,194,210,212,-1,194,212,192,-1,192,212,214,-1,192,214,179,-1,179,214,174,-1,216,217,204,-1,204,217,205,-1,218,219,203,-1,203,219,202,-1,220,221,222,-1,221,220,217,-1,217,220,223,-1,217,223,224,-1,224,225,217,-1,217,225,226,-1,217,226,227,-1,222,228,220,-1,220,228,229,-1,220,229,230,-1,230,229,231,-1,230,231,232,-1,227,233,217,-1,217,233,234,-1,217,234,205,-1,205,234,189,-1,205,189,203,-1,203,189,188,-1,203,188,218,-1,218,188,235,-1,218,235,236,-1,237,238,239,-1,236,240,218,-1,218,240,241,-1,218,241,242,-1,237,243,238,-1,238,243,244,-1,238,244,245,-1,239,246,237,-1,237,246,247,-1,237,247,248,-1,248,247,218,-1,248,218,249,-1,249,218,242,-1,250,251,252,-1,253,254,219,-1,219,254,255,-1,219,255,256,-1,216,257,258,-1,258,257,259,-1,258,259,260,-1,260,259,261,-1,251,250,219,-1,219,250,262,-1,219,262,253,-1,263,216,191,-1,191,216,204,-1,191,204,190,-1,190,204,202,-1,190,202,264,-1,264,202,219,-1,264,219,265,-1,265,219,256,-1,266,267,268,-1,269,270,271,-1,252,272,250,-1,250,272,266,-1,250,266,273,-1,273,266,268,-1,263,274,216,-1,216,274,275,-1,216,275,276,-1,276,277,216,-1,216,277,278,-1,216,278,257,-1,261,259,271,-1,271,259,279,-1,271,279,269,-1,147,25,280,-1,280,25,281,-1,280,281,282,-1,282,281,283,-1,282,283,284,-1,284,283,285,-1,284,285,286,-1,286,285,287,-1,286,287,288,-1,288,287,289,-1,288,289,290,-1,290,289,291,-1,292,293,294,-1,294,293,295,-1,294,295,296,-1,296,295,297,-1,296,297,298,-1,298,297,299,-1,298,299,300,-1,300,299,301,-1,300,301,302,-1,302,301,303,-1,302,303,134,-1,134,303,53,-1,25,53,303,-1,25,303,281,-1,281,303,301,-1,281,301,283,-1,283,301,299,-1,283,299,285,-1,285,299,297,-1,285,297,287,-1,287,297,295,-1,287,295,289,-1,289,295,293,-1,289,293,291,-1,290,292,288,-1,288,292,294,-1,288,294,286,-1,286,294,296,-1,286,296,284,-1,284,296,298,-1,284,298,282,-1,282,298,300,-1,282,300,280,-1,280,300,302,-1,280,302,147,-1,147,302,134,-1,304,305,292,-1,292,305,293,-1,306,307,291,-1,291,307,290,-1,308,309,310,-1,310,309,311,-1,311,309,305,-1,305,309,312,-1,305,312,313,-1,314,315,316,-1,306,317,318,-1,318,317,319,-1,313,320,305,-1,305,320,321,-1,305,321,322,-1,323,306,185,-1,185,306,291,-1,185,291,187,-1,187,291,293,-1,187,293,324,-1,324,293,305,-1,324,305,325,-1,325,305,322,-1,308,310,316,-1,316,310,326,-1,316,326,314,-1,327,328,319,-1,319,328,329,-1,319,329,318,-1,323,330,306,-1,306,330,331,-1,306,331,332,-1,332,333,306,-1,306,333,334,-1,306,334,317,-1,327,319,335,-1,335,319,336,-1,335,336,337,-1,304,338,339,-1,339,338,340,-1,339,340,341,-1,342,343,344,-1,345,346,304,-1,340,347,341,-1,341,347,342,-1,341,342,348,-1,348,342,344,-1,349,350,307,-1,307,350,351,-1,345,304,352,-1,351,353,307,-1,307,353,354,-1,307,354,355,-1,307,356,349,-1,349,356,357,-1,349,357,358,-1,355,359,307,-1,307,359,360,-1,307,360,290,-1,290,360,184,-1,290,184,292,-1,292,184,186,-1,292,186,304,-1,304,186,361,-1,304,361,352,-1,346,362,304,-1,304,362,363,-1,304,363,338,-1,358,364,349,-1,349,364,365,-1,349,365,366,-1,366,365,367,-1,263,191,234,-1,234,191,189,-1,222,221,260,-1,260,221,258,-1,259,257,220,-1,220,257,223,-1,216,258,217,-1,217,258,221,-1,222,260,261,-1,222,261,228,-1,228,261,271,-1,228,271,229,-1,229,271,270,-1,229,270,231,-1,231,270,269,-1,231,269,232,-1,232,269,279,-1,232,279,230,-1,230,279,259,-1,230,259,220,-1,263,234,233,-1,263,233,274,-1,274,233,227,-1,274,227,275,-1,275,227,226,-1,275,226,276,-1,276,226,225,-1,276,225,277,-1,277,225,224,-1,277,224,278,-1,278,224,223,-1,278,223,257,-1,235,188,264,-1,264,188,190,-1,247,251,218,-1,218,251,219,-1,252,251,246,-1,246,251,247,-1,237,248,250,-1,250,248,262,-1,252,246,239,-1,252,239,272,-1,272,239,238,-1,272,238,266,-1,266,238,245,-1,266,245,267,-1,267,245,244,-1,267,244,268,-1,268,244,243,-1,268,243,273,-1,273,243,237,-1,273,237,250,-1,235,264,265,-1,235,265,236,-1,236,265,256,-1,236,256,240,-1,240,256,255,-1,240,255,241,-1,241,255,254,-1,241,254,242,-1,242,254,253,-1,242,253,249,-1,249,253,262,-1,249,262,248,-1,323,185,360,-1,360,185,184,-1,318,356,306,-1,306,356,307,-1,357,356,329,-1,329,356,318,-1,319,317,349,-1,349,317,350,-1,357,329,328,-1,357,328,358,-1,358,328,327,-1,358,327,364,-1,364,327,335,-1,364,335,365,-1,365,335,337,-1,365,337,367,-1,367,337,336,-1,367,336,366,-1,366,336,319,-1,366,319,349,-1,323,360,359,-1,323,359,330,-1,330,359,355,-1,330,355,331,-1,331,355,354,-1,331,354,332,-1,332,354,353,-1,332,353,333,-1,333,353,351,-1,333,351,334,-1,334,351,350,-1,334,350,317,-1,361,186,324,-1,324,186,187,-1,339,311,304,-1,304,311,305,-1,310,311,341,-1,341,311,339,-1,340,338,309,-1,309,338,312,-1,310,341,348,-1,310,348,326,-1,326,348,344,-1,326,344,314,-1,314,344,343,-1,314,343,315,-1,315,343,342,-1,315,342,316,-1,316,342,347,-1,316,347,308,-1,308,347,340,-1,308,340,309,-1,361,324,325,-1,361,325,352,-1,352,325,322,-1,352,322,345,-1,345,322,321,-1,345,321,346,-1,346,321,320,-1,346,320,362,-1,362,320,313,-1,362,313,363,-1,363,313,312,-1,363,312,338,-1,111,166,29,-1,29,166,59,-1,113,111,66,-1,66,111,29,-1,119,118,34,-1,34,118,17,-1,118,157,17,-1,17,157,62,-1,127,126,5,-1,5,126,6,-1,152,127,21,-1,21,127,5,-1,140,137,85,-1,85,137,8,-1,137,168,8,-1,8,168,10,-1,155,67,368,-1,368,67,369,-1,368,369,370,-1,370,369,371,-1,370,371,372,-1,372,371,373,-1,372,373,374,-1,374,373,375,-1,374,375,376,-1,376,375,377,-1,376,377,378,-1,378,377,379,-1,380,381,382,-1,382,381,383,-1,382,383,384,-1,384,383,385,-1,384,385,386,-1,386,385,387,-1,386,387,388,-1,388,387,389,-1,388,389,390,-1,390,389,391,-1,390,391,156,-1,156,391,68,-1,67,68,391,-1,67,391,369,-1,369,391,389,-1,369,389,371,-1,371,389,387,-1,371,387,373,-1,373,387,385,-1,373,385,375,-1,375,385,383,-1,375,383,377,-1,377,383,381,-1,377,381,379,-1,378,380,376,-1,376,380,382,-1,376,382,374,-1,374,382,384,-1,374,384,372,-1,372,384,386,-1,372,386,370,-1,370,386,388,-1,370,388,368,-1,368,388,390,-1,368,390,155,-1,155,390,156,-1,392,381,393,-1,393,381,380,-1,394,378,395,-1,395,378,379,-1,379,381,395,-1,395,381,392,-1,396,397,392,-1,398,399,400,-1,392,397,395,-1,395,397,401,-1,395,401,402,-1,403,404,405,-1,398,400,392,-1,392,400,406,-1,392,406,396,-1,403,405,401,-1,401,405,407,-1,401,407,402,-1,408,393,409,-1,409,393,380,-1,409,380,410,-1,411,412,413,-1,380,378,410,-1,410,378,394,-1,410,394,414,-1,411,413,409,-1,409,413,415,-1,409,415,408,-1,416,417,418,-1,418,417,410,-1,418,410,419,-1,419,410,414,-1,409,410,397,-1,397,410,401,-1,170,20,420,-1,420,20,421,-1,420,421,422,-1,422,421,423,-1,422,423,424,-1,424,423,425,-1,424,425,426,-1,426,425,427,-1,426,427,428,-1,428,427,429,-1,428,429,430,-1,430,429,431,-1,432,433,434,-1,434,433,435,-1,434,435,436,-1,436,435,437,-1,436,437,438,-1,438,437,439,-1,438,439,440,-1,440,439,441,-1,440,441,442,-1,442,441,443,-1,442,443,169,-1,169,443,19,-1,20,19,443,-1,20,443,421,-1,421,443,441,-1,421,441,423,-1,423,441,439,-1,423,439,425,-1,425,439,437,-1,425,437,427,-1,427,437,435,-1,427,435,429,-1,429,435,433,-1,429,433,431,-1,430,432,428,-1,428,432,434,-1,428,434,426,-1,426,434,436,-1,426,436,424,-1,424,436,438,-1,424,438,422,-1,422,438,440,-1,422,440,420,-1,420,440,442,-1,420,442,170,-1,170,442,169,-1,444,433,445,-1,445,433,432,-1,446,430,447,-1,447,430,431,-1,448,449,447,-1,450,451,447,-1,447,451,452,-1,431,433,447,-1,447,433,444,-1,447,444,450,-1,450,444,453,-1,450,453,454,-1,452,455,447,-1,447,455,456,-1,447,456,448,-1,454,457,450,-1,450,457,458,-1,450,458,459,-1,432,430,445,-1,445,430,446,-1,460,446,461,-1,461,446,462,-1,461,462,463,-1,460,464,446,-1,446,464,465,-1,446,465,445,-1,445,465,466,-1,445,466,467,-1,466,468,469,-1,469,470,466,-1,466,470,471,-1,466,471,467,-1,451,450,465,-1,465,450,466,-1,451,465,464,-1,451,464,452,-1,452,464,460,-1,452,460,455,-1,455,460,461,-1,455,461,456,-1,456,461,463,-1,456,463,448,-1,448,463,462,-1,448,462,449,-1,449,462,446,-1,449,446,447,-1,444,445,467,-1,444,467,453,-1,453,467,471,-1,453,471,454,-1,454,471,470,-1,454,470,457,-1,457,470,469,-1,457,469,458,-1,458,469,468,-1,458,468,459,-1,459,468,466,-1,459,466,450,-1,392,393,408,-1,392,408,398,-1,398,408,415,-1,398,415,399,-1,399,415,413,-1,399,413,400,-1,400,413,412,-1,400,412,406,-1,406,412,411,-1,406,411,396,-1,396,411,409,-1,396,409,397,-1,401,410,417,-1,401,417,403,-1,403,417,416,-1,403,416,404,-1,404,416,418,-1,404,418,405,-1,405,418,419,-1,405,419,407,-1,407,419,414,-1,407,414,402,-1,402,414,394,-1,402,394,395,-1,472,473,474,-1,474,473,475,-1,476,477,478,-1,478,477,479,-1,475,473,480,-1,480,473,481,-1,482,477,483,-1,483,477,476,-1,483,476,484,-1,484,476,478,-1,484,478,485,-1,485,478,479,-1,479,477,485,-1,485,477,482,-1,486,487,488,-1,489,490,486,-1,486,488,489,-1,489,488,491,-1,489,491,492,-1,492,491,493,-1,492,493,494,-1,494,493,495,-1,494,495,496,-1,496,495,497,-1,496,497,498,-1,498,497,499,-1,498,499,500,-1,500,499,482,-1,500,482,483,-1,501,502,492,-1,492,502,489,-1,489,502,503,-1,489,503,490,-1,483,484,500,-1,500,484,504,-1,492,494,501,-1,501,494,496,-1,501,496,504,-1,504,496,498,-1,504,498,500,-1,474,503,502,-1,484,485,504,-1,504,485,505,-1,504,505,501,-1,501,505,506,-1,501,506,502,-1,502,506,507,-1,502,507,474,-1,474,507,472,-1,507,506,493,-1,493,506,495,-1,495,506,505,-1,495,505,497,-1,497,505,499,-1,499,505,485,-1,499,485,482,-1,487,472,488,-1,488,472,507,-1,488,507,491,-1,491,507,493,-1,481,487,480,-1,480,487,486,-1,472,487,473,-1,473,487,481,-1,474,475,486,-1,486,475,480,-1,474,486,503,-1,503,486,490,-1,508,509,510,-1,510,509,511,-1,512,513,514,-1,514,513,515,-1,516,509,517,-1,517,509,508,-1,517,508,518,-1,518,508,510,-1,518,510,519,-1,519,510,511,-1,511,509,519,-1,519,509,516,-1,520,521,522,-1,523,520,524,-1,524,520,522,-1,524,522,525,-1,525,522,526,-1,525,526,527,-1,527,526,528,-1,527,528,517,-1,517,528,516,-1,529,523,530,-1,530,523,524,-1,530,524,531,-1,531,524,532,-1,532,524,525,-1,532,525,533,-1,533,525,534,-1,534,525,527,-1,534,527,535,-1,535,527,517,-1,535,517,518,-1,536,529,530,-1,537,538,536,-1,536,530,537,-1,537,530,531,-1,537,531,539,-1,539,531,532,-1,539,532,540,-1,540,532,533,-1,540,533,541,-1,541,533,534,-1,541,534,542,-1,542,534,535,-1,542,535,543,-1,543,535,518,-1,543,518,519,-1,519,516,543,-1,543,516,528,-1,538,537,521,-1,521,537,522,-1,537,539,522,-1,522,539,540,-1,522,540,526,-1,526,540,541,-1,526,541,528,-1,528,541,542,-1,528,542,543,-1,515,513,520,-1,520,513,521,-1,538,512,536,-1,536,512,514,-1,538,521,512,-1,512,521,513,-1,536,514,520,-1,520,514,515,-1,536,520,529,-1,529,520,523,-1,544,545,546,-1,546,545,547,-1,548,549,550,-1,550,549,551,-1,544,552,545,-1,545,552,553,-1,545,553,547,-1,547,553,554,-1,547,554,546,-1,546,554,555,-1,544,546,552,-1,552,546,555,-1,556,557,558,-1,559,556,560,-1,560,556,558,-1,560,558,561,-1,561,558,562,-1,561,562,563,-1,563,562,564,-1,563,564,552,-1,552,564,553,-1,565,566,557,-1,557,566,558,-1,554,553,567,-1,567,553,564,-1,566,568,558,-1,558,568,569,-1,558,569,562,-1,562,569,570,-1,562,570,564,-1,564,570,571,-1,564,571,567,-1,555,554,567,-1,566,565,572,-1,555,567,573,-1,573,567,571,-1,573,571,574,-1,574,571,570,-1,574,570,575,-1,575,570,569,-1,575,569,576,-1,576,569,568,-1,576,568,577,-1,577,568,566,-1,577,566,578,-1,578,566,572,-1,578,572,579,-1,579,559,578,-1,578,559,560,-1,578,560,577,-1,577,560,576,-1,576,560,561,-1,576,561,575,-1,575,561,574,-1,574,561,563,-1,574,563,573,-1,573,563,552,-1,573,552,555,-1,548,550,559,-1,559,550,556,-1,549,579,551,-1,551,579,572,-1,559,579,548,-1,548,579,549,-1,551,572,550,-1,550,572,556,-1,556,572,557,-1,557,572,565,-1,580,581,582,-1,582,581,583,-1,584,585,586,-1,586,585,587,-1,580,582,588,-1,588,582,589,-1,584,590,585,-1,585,590,591,-1,585,591,587,-1,587,591,592,-1,587,592,586,-1,586,592,593,-1,584,586,590,-1,590,586,593,-1,594,595,596,-1,597,598,599,-1,599,598,600,-1,599,600,601,-1,601,600,602,-1,601,602,603,-1,603,602,604,-1,603,604,605,-1,605,604,606,-1,605,606,607,-1,607,606,591,-1,607,591,590,-1,608,594,597,-1,597,594,596,-1,597,596,598,-1,609,610,600,-1,600,610,602,-1,602,610,611,-1,602,611,604,-1,604,611,606,-1,606,611,592,-1,606,592,591,-1,595,612,596,-1,596,612,609,-1,596,609,598,-1,598,609,600,-1,583,581,613,-1,612,583,609,-1,609,583,613,-1,609,613,610,-1,610,613,614,-1,610,614,611,-1,611,614,615,-1,611,615,592,-1,592,615,593,-1,614,613,599,-1,599,613,597,-1,597,613,581,-1,597,581,608,-1,590,593,607,-1,607,593,615,-1,599,601,614,-1,614,601,603,-1,614,603,615,-1,615,603,605,-1,615,605,607,-1,608,588,594,-1,594,588,589,-1,608,581,588,-1,588,581,580,-1,582,583,589,-1,589,583,594,-1,594,583,595,-1,595,583,612,-1,
        ]
    }
}
Shape{
    appearance Appearance {
        material  Material 	{
            diffuseColor 0.10980392156862745 0.10980392156862745 0.10980392156862745
            specularColor 0.0784313725490196 0.0784313725490196 0.0784313725490196
            ambientIntensity 0.1098
            transparency 0.0
            shininess 0.5
        }
    }
    geometry IndexedFaceSet {
        ccw TRUE
        solid FALSE
        coord DEF co Coordinate {
            point [
                -0.0444 -0.0088 0.0, -0.0346 -0.0127 0.0, -0.057 -0.0699 0.0, -0.027 -0.0792 0.0, -0.0346 -0.0766 0.0, -0.0346 -0.066 0.0, -0.689 0.4232 0.0, -0.689 0.4843 0.0, -0.5512 0.4232 0.0, -0.027 0.4843 0.0, -0.0549 -0.0077 0.0, -0.689 0.1673 0.0, -0.5512 0.1673 0.0, -0.1403 -0.0787 0.0, -0.1403 -0.0 0.0, -0.0747 -0.0617 0.0, -0.0774 -0.0584 0.0, -0.0637 -0.0097 0.0, -0.0796 -0.0543 0.0, -0.0813 -0.0482 0.0, -0.0827 -0.0385 0.0, -0.0808 -0.029 0.0, -0.0692 -0.0118 0.0, -0.0346 -0.0041 0.0, -0.0452 -0.0002 0.0, -0.0699 -0.065 0.0, -0.078 -0.0207 0.0, -0.0754 -0.0165 0.0, -0.0729 -0.0141 0.0, -0.1297 -0.0086 0.0, -0.0932 -0.0379 0.0, -0.1297 -0.0787 0.0, -0.0923 -0.0424 0.0, -0.0868 -0.0604 0.0, -0.0563 0.001 0.0, -0.0624 -0.0006 0.0, -0.0774 -0.0061 0.0, -0.0999 -0.0 0.0, -0.0828 -0.0671 0.0, -0.0788 -0.071 0.0, -0.0735 -0.0742 0.0, -0.0657 -0.077 0.0, -0.0554 -0.0792 0.0, -0.689 -0.0792 0.0, -0.0831 -0.01 0.0, -0.0865 -0.0138 0.0, -0.0999 -0.0086 0.0, -0.0892 -0.0188 0.0, -0.0913 -0.0262 0.0, -0.689 -0.4843 0.0, -0.689 -0.4232 0.0, -0.5512 -0.4232 0.0, -0.689 -0.1673 0.0, -0.5512 -0.1673 0.0, -0.027 -0.4843 0.0, -0.0532 -0.0797 0.0, -0.0461 -0.0792 0.0, -0.0437 -0.0791 0.0, 0.023 -0.0 0.0, -0.0193 -0.0 0.0, -0.0193 -0.0787 0.0, 0.021 -0.0787 0.0, -0.0531 -0.0711 0.0, -0.0435 -0.0698 0.0, 0.159 -0.0221 0.0, 0.1265 -0.0221 0.0, 0.167 -0.0 0.0, 0.119 -0.0 0.0, 0.689 0.4843 0.0, 0.5512 0.4232 0.0, 0.689 0.4232 0.0, 0.0191 -0.0355 0.0, -0.0087 -0.0355 0.0, -0.0087 -0.0086 0.0, 0.1785 -0.0 0.0, 0.1478 -0.0787 0.0, 0.5512 0.1673 0.0, 0.0383 -0.0 0.0, 0.0383 -0.0787 0.0, 0.023 -0.0086 0.0, 0.1075 -0.0 0.0, -0.0087 -0.0701 0.0, -0.0087 -0.0442 0.0, 0.021 -0.0701 0.0, 0.0191 -0.0442 0.0, 0.0661 -0.0776 0.0, 0.0829 -0.0727 0.0, 0.1372 -0.0787 0.0, 0.0893 -0.0689 0.0, 0.0931 -0.0651 0.0, 0.0962 -0.06 0.0, 0.0943 -0.018 0.0, 0.0901 -0.0115 0.0, 0.0859 -0.0077 0.0, 0.0805 -0.0047 0.0, 0.0606 -0.0787 0.0, 0.099 -0.0524 0.0, 0.1017 -0.0404 0.0, 0.1005 -0.0357 0.0, 0.0597 -0.0 0.0, 0.0725 -0.0022 0.0, 0.689 -0.0792 0.0, 0.689 -0.1673 0.0, 0.5512 -0.1673 0.0, 0.689 -0.4232 0.0, 0.689 -0.4843 0.0, 0.5512 -0.4232 0.0, 0.689 0.1673 0.0, 0.5 -0.5315 0.4646, 0.689 -0.5315 0.4646, 0.5 -0.4843 0.4646, 0.689 -0.2165 0.4646, 0.6024 -0.2165 0.4646, -0.5 0.4843 0.4646, -0.5 0.5315 0.4646, -0.689 0.5315 0.4646, 0.689 0.5315 0.4646, 0.5 0.5315 0.4646, 0.689 0.2165 0.4646, 0.5 0.4843 0.4646, 0.4124 0.245 0.4646, 0.4134 0.2362 0.4646, 0.3828 0.2746 0.4646, 0.3911 0.2717 0.4646, -0.6024 -0.2165 0.4646, -0.689 -0.2165 0.4646, -0.5 -0.4843 0.4646, -0.689 -0.5315 0.4646, -0.5 -0.5315 0.4646, -0.3828 -0.2746 0.4646, -0.3911 -0.2717 0.4646, 0.3986 0.267 0.4646, 0.4048 0.2608 0.4646, 0.4095 0.2533 0.4646, -0.4124 0.245 0.4646, -0.4095 0.2533 0.4646, -0.6024 0.2165 0.4646, -0.689 0.2165 0.4646, -0.4095 -0.2533 0.4646, -0.4048 -0.2608 0.4646, -0.3986 -0.267 0.4646, -0.4048 0.2608 0.4646, -0.3986 0.267 0.4646, -0.3911 0.2717 0.4646, 0.4134 -0.2362 0.4646, 0.6024 0.2165 0.4646, 0.4124 -0.245 0.4646, 0.4095 -0.2533 0.4646, 0.4048 -0.2608 0.4646, 0.3986 -0.267 0.4646, 0.374 -0.2756 0.4646, 0.2227 -0.2756 0.4646, 0.1787 -0.306 0.4646, -0.1306 -0.3294 0.4646, -0.1787 -0.306 0.4646, 0.3911 -0.2717 0.4646, 0.3828 -0.2746 0.4646, 0.1306 -0.3294 0.4646, 0.0796 -0.3453 0.4646, -0.2227 -0.2756 0.4646, -0.374 -0.2756 0.4646, -0.4124 -0.245 0.4646, -0.4134 -0.2362 0.4646, -0.4134 0.2362 0.4646, -0.1787 0.306 0.4646, -0.1306 0.3294 0.4646, 0.1787 0.306 0.4646, 0.1306 0.3294 0.4646, 0.0796 0.3453 0.4646, 0.2227 0.2756 0.4646, 0.374 0.2756 0.4646, 0.0267 -0.3533 0.4646, -0.0267 -0.3533 0.4646, -0.0796 -0.3453 0.4646, -0.0796 0.3453 0.4646, -0.0267 0.3533 0.4646, 0.0267 0.3533 0.4646, -0.2227 0.2756 0.4646, -0.374 0.2756 0.4646, -0.3828 0.2746 0.4646, 0.689 -0.5709 0.3858, 0.689 -0.5709 0.2835, 0.689 -0.4843 0.2835, 0.689 0.1673 0.0984, 0.689 -0.4232 0.0984, 0.689 0.4232 0.0984, 0.689 0.4843 0.2835, 0.689 -0.2145 0.339, 0.689 -0.2086 0.3248, 0.689 -0.1992 0.3126, 0.689 -0.2165 0.3543, 0.689 0.5709 0.2835, 0.689 0.5709 0.3858, 0.689 0.187 0.3032, 0.689 0.1728 0.2973, 0.689 -0.1673 0.0984, 0.689 0.1575 0.2953, 0.689 0.2086 0.3248, 0.689 0.2145 0.339, 0.689 0.2165 0.3543, 0.689 -0.1575 0.2953, 0.689 -0.1728 0.2973, 0.689 -0.187 0.3032, 0.689 0.1992 0.3126, 0.5 0.5709 0.3858, 0.5 0.5709 0.2835, -0.5 0.5709 0.3858, -0.5 0.5709 0.2835, -0.689 0.5709 0.3858, -0.689 0.5709 0.2835, -0.689 0.4843 0.2835, -0.689 -0.1673 0.0984, -0.689 0.4232 0.0984, -0.689 -0.4232 0.0984, -0.689 -0.4843 0.2835, -0.689 -0.5709 0.2835, -0.689 -0.5709 0.3858, -0.689 -0.187 0.3032, -0.689 -0.1728 0.2973, -0.689 0.1673 0.0984, -0.689 -0.1575 0.2953, -0.689 0.2145 0.339, -0.689 0.2086 0.3248, -0.689 0.1992 0.3126, -0.689 0.2165 0.3543, -0.689 0.1575 0.2953, -0.689 0.1728 0.2973, -0.689 0.187 0.3032, -0.689 -0.2165 0.3543, -0.689 -0.2145 0.339, -0.689 -0.2086 0.3248, -0.689 -0.1992 0.3126, -0.5 -0.5709 0.3858, -0.5 -0.5709 0.2835, 0.5 -0.5709 0.3858, 0.5 -0.5709 0.2835, -0.5 -0.4843 0.2835, 0.5 -0.4843 0.2835, 0.5 0.4843 0.2835, -0.5 0.4843 0.2835, -0.6024 -0.1575 0.2953, -0.6024 0.1575 0.2953, -0.6024 0.2165 0.3543, -0.6024 0.2145 0.339, -0.6024 0.2086 0.3248, -0.6024 0.1992 0.3126, -0.6024 0.187 0.3032, -0.6024 0.1728 0.2973, -0.6024 -0.2165 0.3543, -0.6024 -0.1728 0.2973, -0.6024 -0.187 0.3032, -0.6024 -0.1992 0.3126, -0.6024 -0.2086 0.3248, -0.6024 -0.2145 0.339, 0.6024 0.1575 0.2953, 0.6024 -0.1575 0.2953, 0.6024 -0.2165 0.3543, 0.6024 -0.2145 0.339, 0.6024 -0.2086 0.3248, 0.6024 -0.1992 0.3126, 0.6024 -0.187 0.3032, 0.6024 -0.1728 0.2973, 0.6024 0.2165 0.3543, 0.6024 0.1728 0.2973, 0.6024 0.187 0.3032, 0.6024 0.1992 0.3126, 0.6024 0.2086 0.3248, 0.6024 0.2145 0.339, -0.5512 -0.4232 0.0984, -0.5512 -0.1673 0.0984, -0.5512 0.1673 0.0984, -0.5512 0.4232 0.0984, 0.5512 0.4232 0.0984, 0.5512 0.1673 0.0984, 0.5512 -0.1673 0.0984, 0.5512 -0.4232 0.0984, 0.4134 0.2362 0.6496, 0.4124 0.245 0.6496, 0.4095 0.2533 0.6496, 0.4048 0.2608 0.6496, 0.3986 0.267 0.6496, 0.3911 0.2717 0.6496, 0.3828 0.2746 0.6496, 0.374 0.2756 0.6496, 0.2227 0.2756 0.6496, 0.2 0.2925 0.6496, 0.1306 0.3293 0.6496, 0.1319 0.3288 0.6496, 0.1669 0.3125 0.6496, 0.1785 0.3056 0.6496, 0.0954 0.3413 0.6496, 0.0795 0.3448 0.6496, 0.0577 0.3496 0.6496, 0.0267 0.353 0.6496, 0.0193 0.3538 0.6496, -0.0193 0.3538 0.6496, -0.0577 0.3496 0.6496, -0.0267 0.353 0.6496, -0.0954 0.3413 0.6496, -0.0795 0.3448 0.6496, -0.1785 0.3056 0.6496, -0.1669 0.3125 0.6496, -0.1319 0.3288 0.6496, -0.1306 0.3293 0.6496, -0.2 0.2925 0.6496, -0.2227 0.2756 0.6496, -0.374 0.2756 0.6496, -0.3828 0.2746 0.6496, -0.3911 0.2717 0.6496, -0.3986 0.267 0.6496, -0.4048 0.2608 0.6496, -0.4095 0.2533 0.6496, -0.4124 0.245 0.6496, -0.4134 0.2362 0.6496, -0.4134 -0.2362 0.6496, -0.4124 -0.245 0.6496, -0.4095 -0.2533 0.6496, -0.4048 -0.2608 0.6496, -0.3986 -0.267 0.6496, -0.3911 -0.2717 0.6496, -0.3828 -0.2746 0.6496, -0.374 -0.2756 0.6496, -0.2227 -0.2756 0.6496, -0.2 -0.2925 0.6496, -0.1306 -0.3293 0.6496, -0.1319 -0.3288 0.6496, -0.1669 -0.3125 0.6496, -0.1785 -0.3056 0.6496, -0.0954 -0.3413 0.6496, -0.0795 -0.3448 0.6496, -0.0577 -0.3496 0.6496, -0.0267 -0.353 0.6496, -0.0193 -0.3538 0.6496, 0.0193 -0.3538 0.6496, 0.0577 -0.3496 0.6496, 0.0267 -0.353 0.6496, 0.0954 -0.3413 0.6496, 0.0795 -0.3448 0.6496, 0.1785 -0.3056 0.6496, 0.1669 -0.3125 0.6496, 0.1319 -0.3288 0.6496, 0.1306 -0.3293 0.6496, 0.2 -0.2925 0.6496, 0.2227 -0.2756 0.6496, 0.374 -0.2756 0.6496, 0.3828 -0.2746 0.6496, 0.3911 -0.2717 0.6496, 0.3986 -0.267 0.6496, 0.4048 -0.2608 0.6496, 0.4095 -0.2533 0.6496, 0.4124 -0.245 0.6496, 0.4134 -0.2362 0.6496, 0.0545 0.3302 0.6693, 0.0182 0.3341 0.6693, 0.2156 -0.2559 0.6693, -0.374 -0.2559 0.6693, -0.2156 -0.2559 0.6693, -0.3937 -0.2362 0.6693, 0.3937 -0.2362 0.6693, 0.3937 0.2362 0.6693, 0.374 0.2559 0.6693, -0.3784 -0.2554 0.6693, 0.1888 0.2763 0.6693, 0.1577 0.2952 0.6693, -0.374 0.2559 0.6693, -0.2156 0.2559 0.6693, -0.1888 0.2763 0.6693, 0.0901 -0.3223 0.6693, 0.1246 -0.3106 0.6693, 0.3932 -0.2406 0.6693, 0.374 -0.2559 0.6693, 0.2156 0.2559 0.6693, 0.1246 0.3106 0.6693, 0.0901 0.3223 0.6693, -0.0182 0.3341 0.6693, -0.0545 0.3302 0.6693, -0.0901 0.3223 0.6693, 0.1577 -0.2952 0.6693, 0.1888 -0.2763 0.6693, 0.3932 0.2406 0.6693, 0.3918 0.2448 0.6693, 0.3894 0.2485 0.6693, 0.3863 0.2516 0.6693, 0.3826 0.254 0.6693, 0.3784 0.2554 0.6693, -0.1246 0.3106 0.6693, -0.1577 0.2952 0.6693, -0.3784 0.2554 0.6693, -0.3826 0.254 0.6693, -0.3863 0.2516 0.6693, -0.3918 0.2448 0.6693, -0.3932 0.2406 0.6693, -0.3937 0.2362 0.6693, -0.3918 -0.2448 0.6693, -0.3894 -0.2485 0.6693, -0.3863 -0.2516 0.6693, -0.1888 -0.2763 0.6693, -0.1577 -0.2952 0.6693, -0.1246 -0.3106 0.6693, -0.0182 -0.3341 0.6693, 0.0182 -0.3341 0.6693, 0.0545 -0.3302 0.6693, -0.3894 0.2485 0.6693, -0.3932 -0.2406 0.6693, -0.3826 -0.254 0.6693, 0.3918 -0.2448 0.6693, 0.3784 -0.2554 0.6693, 0.3894 -0.2485 0.6693, 0.3826 -0.254 0.6693, 0.3863 -0.2516 0.6693, -0.0901 -0.3223 0.6693, -0.0545 -0.3302 0.6693, -0.2221 -0.2739 0.6575, -0.2217 -0.2728 0.6594, -0.374 -0.273 0.6594, -0.221 -0.2707 0.6626, -0.2206 -0.2698 0.6634, -0.374 -0.2698 0.6635, -0.2192 -0.2658 0.6667, -0.2192 -0.2657 0.6667, -0.374 -0.2657 0.6667, -0.374 -0.261 0.6686, -0.2176 -0.2613 0.6685, -0.2175 -0.261 0.6686, -0.2159 -0.2566 0.6693, -0.2197 -0.2672 0.6657, -0.2213 -0.2717 0.6614, -0.374 -0.2749 0.6547, -0.2227 -0.2755 0.6515, -0.2224 -0.2748 0.6547, -0.2224 -0.2746 0.6558, -0.0952 -0.3406 0.6547, -0.0576 -0.3489 0.6547, 0.0576 -0.3489 0.6547, 0.0952 -0.3406 0.6547, 0.1317 -0.3282 0.6547, 0.2221 -0.2739 0.6575, 0.2217 -0.2728 0.6594, 0.1985 -0.2903 0.6594, 0.221 -0.2707 0.6626, 0.2206 -0.2698 0.6634, 0.1967 -0.2878 0.6635, 0.2176 -0.2613 0.6685, 0.2175 -0.261 0.6686, 0.1917 -0.2805 0.6686, 0.2159 -0.2566 0.6693, 0.2192 -0.2657 0.6667, 0.1944 -0.2844 0.6667, 0.2192 -0.2658 0.6667, 0.2197 -0.2672 0.6657, 0.2213 -0.2717 0.6614, 0.1996 -0.292 0.6547, 0.2227 -0.2755 0.6515, 0.2224 -0.2748 0.6547, 0.2224 -0.2746 0.6558, -0.1996 -0.292 0.6547, -0.1985 -0.2903 0.6594, -0.1967 -0.2878 0.6635, -0.2206 -0.2698 0.6634, -0.1944 -0.2844 0.6667, -0.1917 -0.2805 0.6686, -0.2175 -0.261 0.6686, -0.0185 -0.3392 0.6686, -0.0553 -0.3352 0.6686, -0.0188 -0.344 0.6667, -0.0561 -0.3399 0.6667, -0.019 -0.348 0.6635, -0.0567 -0.3439 0.6635, -0.0192 -0.3512 0.6594, -0.0573 -0.347 0.6594, -0.0193 -0.3531 0.6547, -0.1601 -0.2997 0.6686, -0.1623 -0.3039 0.6667, -0.1642 -0.3075 0.6635, -0.1657 -0.3102 0.6594, -0.1666 -0.3119 0.6547, 0.1666 -0.3119 0.6547, 0.1657 -0.3102 0.6594, 0.1642 -0.3075 0.6635, 0.1623 -0.3039 0.6667, 0.1601 -0.2997 0.6686, 0.1265 -0.3153 0.6686, 0.1283 -0.3197 0.6667, 0.1298 -0.3235 0.6635, 0.131 -0.3264 0.6594, 0.0947 -0.3387 0.6594, 0.0938 -0.3357 0.6635, 0.0927 -0.3318 0.6667, 0.0915 -0.3272 0.6686, 0.0553 -0.3352 0.6686, 0.0561 -0.3399 0.6667, 0.0567 -0.3439 0.6635, 0.0573 -0.347 0.6594, 0.0193 -0.3531 0.6547, 0.0192 -0.3512 0.6594, 0.019 -0.348 0.6635, 0.0188 -0.344 0.6667, 0.0185 -0.3392 0.6686, -0.0947 -0.3387 0.6594, -0.0938 -0.3357 0.6635, -0.0927 -0.3318 0.6667, -0.0915 -0.3272 0.6686, -0.1317 -0.3282 0.6547, -0.131 -0.3264 0.6594, -0.1298 -0.3235 0.6635, -0.1283 -0.3197 0.6667, -0.1265 -0.3153 0.6686, -0.3826 -0.2739 0.6547, -0.3822 -0.272 0.6594, -0.3815 -0.269 0.6635, -0.3806 -0.265 0.6667, -0.3795 -0.2604 0.6686, -0.3848 -0.2585 0.6686, -0.3895 -0.2556 0.6686, -0.3934 -0.2517 0.6686, -0.3963 -0.247 0.6686, -0.3982 -0.2417 0.6686, -0.3988 -0.2362 0.6686, -0.3868 -0.2628 0.6667, -0.3924 -0.2593 0.6667, -0.3971 -0.2546 0.6667, -0.4006 -0.249 0.6667, -0.4028 -0.2428 0.6667, -0.4035 -0.2362 0.6667, -0.3886 -0.2665 0.6635, -0.395 -0.2625 0.6635, -0.4003 -0.2572 0.6635, -0.4043 -0.2508 0.6635, -0.4068 -0.2437 0.6635, -0.4076 -0.2362 0.6635, -0.39 -0.2693 0.6594, -0.3969 -0.2649 0.6594, -0.4027 -0.2591 0.6594, -0.4071 -0.2522 0.6594, -0.4098 -0.2444 0.6594, -0.4107 -0.2362 0.6594, -0.3908 -0.2711 0.6547, -0.3981 -0.2665 0.6547, -0.4043 -0.2603 0.6547, -0.4089 -0.253 0.6547, -0.4117 -0.2448 0.6547, -0.4127 -0.2362 0.6547, 0.374 -0.2749 0.6547, 0.374 -0.273 0.6594, 0.374 -0.2698 0.6635, 0.374 -0.2657 0.6667, 0.2206 -0.2698 0.6634, 0.374 -0.261 0.6686, 0.2175 -0.261 0.6686, -0.3988 0.2362 0.6686, -0.4035 0.2362 0.6667, -0.4076 0.2362 0.6635, -0.4107 0.2362 0.6594, -0.4127 0.2362 0.6547, 0.4127 -0.2362 0.6547, 0.4117 -0.2448 0.6547, 0.4107 -0.2362 0.6594, 0.4098 -0.2444 0.6594, 0.4076 -0.2362 0.6635, 0.4068 -0.2437 0.6635, 0.4035 -0.2362 0.6667, 0.4028 -0.2428 0.6667, 0.3988 -0.2362 0.6686, 0.3982 -0.2417 0.6686, 0.3963 -0.247 0.6686, 0.3934 -0.2517 0.6686, 0.3895 -0.2556 0.6686, 0.3848 -0.2585 0.6686, 0.3795 -0.2604 0.6686, 0.4006 -0.249 0.6667, 0.3971 -0.2546 0.6667, 0.3924 -0.2593 0.6667, 0.3868 -0.2628 0.6667, 0.3806 -0.265 0.6667, 0.4043 -0.2508 0.6635, 0.4003 -0.2572 0.6635, 0.395 -0.2625 0.6635, 0.3886 -0.2665 0.6635, 0.3815 -0.269 0.6635, 0.4071 -0.2522 0.6594, 0.4027 -0.2591 0.6594, 0.3969 -0.2649 0.6594, 0.39 -0.2693 0.6594, 0.3822 -0.272 0.6594, 0.4089 -0.253 0.6547, 0.4043 -0.2603 0.6547, 0.3981 -0.2665 0.6547, 0.3908 -0.2711 0.6547, 0.3826 -0.2739 0.6547, -0.4117 0.2448 0.6547, -0.4098 0.2444 0.6594, -0.4068 0.2437 0.6635, -0.4028 0.2428 0.6667, -0.3982 0.2417 0.6686, -0.3963 0.247 0.6686, -0.3934 0.2517 0.6686, -0.3895 0.2556 0.6686, -0.3848 0.2585 0.6686, -0.3795 0.2604 0.6686, -0.374 0.261 0.6686, -0.4006 0.249 0.6667, -0.3971 0.2546 0.6667, -0.3924 0.2593 0.6667, -0.3868 0.2628 0.6667, -0.3806 0.265 0.6667, -0.374 0.2657 0.6667, -0.4043 0.2508 0.6635, -0.4003 0.2572 0.6635, -0.395 0.2625 0.6635, -0.3886 0.2665 0.6635, -0.3815 0.269 0.6635, -0.374 0.2698 0.6635, -0.4071 0.2522 0.6594, -0.4027 0.2591 0.6594, -0.3969 0.2649 0.6594, -0.39 0.2693 0.6594, -0.3822 0.272 0.6594, -0.374 0.273 0.6594, -0.4089 0.253 0.6547, -0.4043 0.2603 0.6547, -0.3981 0.2665 0.6547, -0.3908 0.2711 0.6547, -0.3826 0.2739 0.6547, -0.374 0.2749 0.6547, 0.3988 0.2362 0.6686, 0.4035 0.2362 0.6667, 0.4076 0.2362 0.6635, 0.4107 0.2362 0.6594, 0.4127 0.2362 0.6547, -0.2225 0.2751 0.654, -0.2225 0.2749 0.6547, -0.2224 0.2746 0.6558, -0.2218 0.2729 0.6594, -0.2217 0.2727 0.6599, -0.2213 0.2717 0.6614, -0.2202 0.2685 0.6648, -0.2206 0.2697 0.6634, -0.2182 0.2629 0.668, -0.2192 0.2657 0.6665, -0.2197 0.2672 0.6657, -0.2159 0.2566 0.6693, -0.2175 0.261 0.6686, -0.2176 0.2613 0.6685, 0.374 0.2749 0.6547, 0.3826 0.2739 0.6547, 0.374 0.273 0.6594, 0.3822 0.272 0.6594, 0.374 0.2698 0.6635, 0.3815 0.269 0.6635, 0.374 0.2657 0.6667, 0.3806 0.265 0.6667, 0.374 0.261 0.6686, 0.3795 0.2604 0.6686, 0.3848 0.2585 0.6686, 0.3895 0.2556 0.6686, 0.3934 0.2517 0.6686, 0.3963 0.247 0.6686, 0.3982 0.2417 0.6686, 0.3868 0.2628 0.6667, 0.3924 0.2593 0.6667, 0.3971 0.2546 0.6667, 0.4006 0.249 0.6667, 0.4028 0.2428 0.6667, 0.3886 0.2665 0.6635, 0.395 0.2625 0.6635, 0.4003 0.2572 0.6635, 0.4043 0.2508 0.6635, 0.4068 0.2437 0.6635, 0.39 0.2693 0.6594, 0.3969 0.2649 0.6594, 0.4027 0.2591 0.6594, 0.4071 0.2522 0.6594, 0.4098 0.2444 0.6594, 0.3908 0.2711 0.6547, 0.3981 0.2665 0.6547, 0.4043 0.2603 0.6547, 0.4089 0.253 0.6547, 0.4117 0.2448 0.6547, 0.0952 0.3406 0.6547, 0.0576 0.3489 0.6547, -0.0576 0.3489 0.6547, -0.0952 0.3406 0.6547, -0.1317 0.3282 0.6547, -0.1985 0.2903 0.6594, 0.2225 0.2751 0.654, 0.2225 0.2749 0.6547, 0.1996 0.292 0.6547, 0.2224 0.2746 0.6558, 0.1985 0.2903 0.6594, 0.2206 0.2697 0.6634, 0.2213 0.2717 0.6614, 0.1967 0.2878 0.6635, 0.2217 0.2727 0.6599, 0.2218 0.2729 0.6594, 0.2202 0.2685 0.6648, 0.1944 0.2844 0.6667, 0.2197 0.2672 0.6657, 0.2175 0.261 0.6686, 0.2176 0.2613 0.6685, 0.1917 0.2805 0.6686, 0.2182 0.2629 0.668, 0.2192 0.2657 0.6665, 0.2159 0.2566 0.6693, -0.1917 0.2805 0.6686, -0.2192 0.2657 0.6665, -0.1944 0.2844 0.6667, -0.2175 0.261 0.6686, -0.1967 0.2878 0.6635, -0.2206 0.2697 0.6634, -0.1996 0.292 0.6547, 0.0185 0.3392 0.6686, 0.0553 0.3352 0.6686, 0.0188 0.344 0.6667, 0.0561 0.3399 0.6667, 0.019 0.348 0.6635, 0.0567 0.3439 0.6635, 0.0192 0.3512 0.6594, 0.0573 0.347 0.6594, 0.0193 0.3531 0.6547, 0.1601 0.2997 0.6686, 0.1623 0.3039 0.6667, 0.1642 0.3075 0.6635, 0.1657 0.3102 0.6594, 0.1666 0.3119 0.6547, -0.1666 0.3119 0.6547, -0.1657 0.3102 0.6594, -0.1642 0.3075 0.6635, -0.1623 0.3039 0.6667, -0.1601 0.2997 0.6686, -0.1265 0.3153 0.6686, -0.1283 0.3197 0.6667, -0.1298 0.3235 0.6635, -0.131 0.3264 0.6594, -0.0947 0.3387 0.6594, -0.0938 0.3357 0.6635, -0.0927 0.3318 0.6667, -0.0915 0.3272 0.6686, -0.0553 0.3352 0.6686, -0.0561 0.3399 0.6667, -0.0567 0.3439 0.6635, -0.0573 0.347 0.6594, -0.0193 0.3531 0.6547, -0.0192 0.3512 0.6594, -0.019 0.348 0.6635, -0.0188 0.344 0.6667, -0.0185 0.3392 0.6686, 0.0947 0.3387 0.6594, 0.0938 0.3357 0.6635, 0.0927 0.3318 0.6667, 0.0915 0.3272 0.6686, 0.1317 0.3282 0.6547, 0.131 0.3264 0.6594, 0.1298 0.3235 0.6635, 0.1283 0.3197 0.6667, 0.1265 0.3153 0.6686, 0.2206 0.2697 0.6634, 0.2192 0.2657 0.6665, 0.2175 0.261 0.6686
            ]
        }
        coordIndex [
            0,1,2,-1,3,4,5,-1,6,7,8,-1,8,7,9,-1,0,2,10,-1,11,12,13,-1,13,12,14,-1,15,16,17,-1,17,16,18,-1,17,18,19,-1,19,20,17,-1,17,20,21,-1,17,21,22,-1,23,24,9,-1,23,9,1,-1,10,2,17,-1,17,2,25,-1,17,25,15,-1,26,27,21,-1,21,27,28,-1,21,28,22,-1,29,30,31,-1,31,30,32,-1,31,32,33,-1,24,34,9,-1,9,34,35,-1,9,35,36,-1,12,8,14,-1,14,8,9,-1,14,9,37,-1,37,9,36,-1,33,38,31,-1,31,38,39,-1,31,39,40,-1,40,41,31,-1,31,41,42,-1,31,42,13,-1,13,42,43,-1,13,43,11,-1,36,44,37,-1,37,44,45,-1,37,45,46,-1,46,45,47,-1,46,47,29,-1,29,47,48,-1,29,48,30,-1,49,50,51,-1,52,43,53,-1,53,43,42,-1,53,42,51,-1,51,42,54,-1,51,54,49,-1,42,55,54,-1,54,55,56,-1,54,56,3,-1,3,56,57,-1,3,57,4,-1,58,59,9,-1,60,61,3,-1,62,2,63,-1,63,2,1,-1,63,1,5,-1,5,1,9,-1,5,9,3,-1,3,9,59,-1,3,59,60,-1,64,65,66,-1,66,65,67,-1,9,68,69,-1,69,68,70,-1,71,72,73,-1,74,69,75,-1,75,69,76,-1,77,78,79,-1,74,66,69,-1,69,66,67,-1,69,67,9,-1,9,67,80,-1,81,82,83,-1,83,82,84,-1,83,84,78,-1,78,84,71,-1,78,71,79,-1,79,71,73,-1,85,86,87,-1,3,87,75,-1,86,88,87,-1,87,88,89,-1,87,89,90,-1,91,92,80,-1,80,92,93,-1,80,93,94,-1,85,87,95,-1,95,87,3,-1,95,3,78,-1,78,3,61,-1,78,61,83,-1,90,96,87,-1,87,96,97,-1,87,97,80,-1,80,97,98,-1,80,98,91,-1,79,58,77,-1,77,58,9,-1,77,9,99,-1,99,9,80,-1,99,80,100,-1,100,80,94,-1,101,102,103,-1,104,105,106,-1,106,105,54,-1,106,54,103,-1,103,54,3,-1,103,3,101,-1,101,3,75,-1,101,75,107,-1,107,75,76,-1,108,109,110,-1,110,109,111,-1,110,111,112,-1,113,114,115,-1,116,117,118,-1,118,117,119,-1,120,121,118,-1,122,123,119,-1,124,125,126,-1,126,125,127,-1,126,127,128,-1,126,129,130,-1,123,131,119,-1,119,131,132,-1,119,132,118,-1,118,132,133,-1,118,133,120,-1,134,135,136,-1,136,135,113,-1,136,113,137,-1,137,113,115,-1,138,124,139,-1,139,124,126,-1,139,126,140,-1,140,126,130,-1,135,141,113,-1,113,141,142,-1,113,142,143,-1,144,112,121,-1,121,112,145,-1,121,145,118,-1,144,146,112,-1,112,146,147,-1,112,147,110,-1,110,147,148,-1,110,148,149,-1,150,151,152,-1,153,154,126,-1,149,155,110,-1,110,155,156,-1,110,156,150,-1,150,152,110,-1,110,152,157,-1,110,157,158,-1,154,159,126,-1,126,159,160,-1,126,160,129,-1,138,161,124,-1,124,161,162,-1,124,162,136,-1,136,162,163,-1,136,163,134,-1,164,165,113,-1,166,119,167,-1,167,119,168,-1,166,169,119,-1,119,169,170,-1,119,170,122,-1,158,171,110,-1,110,171,172,-1,110,172,126,-1,126,172,173,-1,126,173,153,-1,165,174,113,-1,113,174,175,-1,113,175,119,-1,119,175,176,-1,119,176,168,-1,177,164,178,-1,178,164,113,-1,178,113,179,-1,179,113,143,-1,180,181,182,-1,101,107,183,-1,105,104,182,-1,182,104,184,-1,70,68,185,-1,185,68,186,-1,187,182,188,-1,188,182,184,-1,188,184,189,-1,109,180,111,-1,111,180,182,-1,111,182,190,-1,190,182,187,-1,186,191,118,-1,118,191,192,-1,118,192,116,-1,193,194,195,-1,195,194,196,-1,197,185,198,-1,198,185,186,-1,198,186,199,-1,199,186,118,-1,196,200,195,-1,195,200,201,-1,195,201,184,-1,184,201,202,-1,184,202,189,-1,197,203,185,-1,185,203,193,-1,185,193,183,-1,183,193,195,-1,183,195,101,-1,101,195,102,-1,192,191,204,-1,204,191,205,-1,206,207,208,-1,208,207,209,-1,208,209,210,-1,43,52,211,-1,7,6,210,-1,210,6,212,-1,43,211,11,-1,50,49,213,-1,213,49,214,-1,214,215,125,-1,125,215,216,-1,125,216,127,-1,217,218,219,-1,219,218,220,-1,221,210,222,-1,222,210,212,-1,222,212,223,-1,115,208,137,-1,137,208,210,-1,137,210,224,-1,224,210,221,-1,220,225,219,-1,219,225,226,-1,219,226,212,-1,212,226,227,-1,212,227,223,-1,125,228,214,-1,214,228,229,-1,214,229,213,-1,213,229,230,-1,230,231,213,-1,213,231,217,-1,213,217,211,-1,211,217,219,-1,211,219,11,-1,216,215,232,-1,232,215,233,-1,234,235,180,-1,180,235,181,-1,214,236,215,-1,215,236,233,-1,233,236,232,-1,232,236,126,-1,232,126,128,-1,108,110,234,-1,234,110,237,-1,234,237,235,-1,237,182,235,-1,235,182,181,-1,214,49,236,-1,236,49,54,-1,105,182,54,-1,54,182,237,-1,54,237,236,-1,236,237,110,-1,236,110,126,-1,186,238,191,-1,191,238,205,-1,205,238,204,-1,204,238,119,-1,204,119,117,-1,114,113,206,-1,206,113,239,-1,206,239,207,-1,239,210,207,-1,207,210,209,-1,7,210,9,-1,9,210,239,-1,186,68,238,-1,238,68,9,-1,238,9,119,-1,119,9,239,-1,119,239,113,-1,208,115,206,-1,206,115,114,-1,204,117,192,-1,192,117,116,-1,180,109,234,-1,234,109,108,-1,232,128,216,-1,216,128,127,-1,240,241,220,-1,220,241,225,-1,242,224,243,-1,243,224,221,-1,243,221,244,-1,244,221,222,-1,244,222,245,-1,245,222,223,-1,245,223,246,-1,246,223,227,-1,246,227,247,-1,247,227,226,-1,247,226,241,-1,241,226,225,-1,242,136,224,-1,224,136,137,-1,124,248,125,-1,125,248,228,-1,240,220,249,-1,249,220,218,-1,249,218,250,-1,250,218,217,-1,250,217,251,-1,251,217,231,-1,251,231,252,-1,252,231,230,-1,252,230,253,-1,253,230,229,-1,253,229,248,-1,248,229,228,-1,245,246,244,-1,244,246,243,-1,124,136,248,-1,248,136,242,-1,248,242,241,-1,241,242,243,-1,241,243,247,-1,247,243,246,-1,252,249,251,-1,251,249,250,-1,241,240,248,-1,248,240,249,-1,248,249,253,-1,253,249,252,-1,254,255,196,-1,196,255,200,-1,256,190,257,-1,257,190,187,-1,257,187,258,-1,258,187,188,-1,258,188,259,-1,259,188,189,-1,259,189,260,-1,260,189,202,-1,260,202,261,-1,261,202,201,-1,261,201,255,-1,255,201,200,-1,256,112,190,-1,190,112,111,-1,145,262,118,-1,118,262,199,-1,254,196,263,-1,263,196,194,-1,263,194,264,-1,264,194,193,-1,264,193,265,-1,265,193,203,-1,265,203,266,-1,266,203,197,-1,266,197,267,-1,267,197,198,-1,267,198,262,-1,262,198,199,-1,145,112,262,-1,262,112,256,-1,258,259,260,-1,256,255,262,-1,262,255,254,-1,262,254,267,-1,256,257,255,-1,255,257,258,-1,255,258,261,-1,261,258,260,-1,263,264,265,-1,263,265,254,-1,254,265,266,-1,254,266,267,-1,213,268,50,-1,50,268,51,-1,268,269,51,-1,51,269,53,-1,269,211,53,-1,53,211,52,-1,269,268,211,-1,211,268,213,-1,219,270,11,-1,11,270,12,-1,270,271,12,-1,12,271,8,-1,271,212,8,-1,8,212,6,-1,271,270,212,-1,212,270,219,-1,185,272,70,-1,70,272,69,-1,272,273,69,-1,69,273,76,-1,273,183,76,-1,76,183,107,-1,183,273,185,-1,185,273,272,-1,195,274,102,-1,102,274,103,-1,274,275,103,-1,103,275,106,-1,275,184,106,-1,106,184,104,-1,275,274,184,-1,184,274,195,-1,276,121,120,-1,276,120,277,-1,277,120,133,-1,277,133,278,-1,278,133,132,-1,278,132,279,-1,279,132,131,-1,279,131,280,-1,280,131,123,-1,280,123,281,-1,281,123,122,-1,281,122,282,-1,282,122,170,-1,282,170,283,-1,283,170,284,-1,284,170,169,-1,284,169,285,-1,285,169,166,-1,286,287,167,-1,167,287,288,-1,167,288,166,-1,166,288,289,-1,166,289,285,-1,286,167,290,-1,290,167,168,-1,290,168,291,-1,291,168,292,-1,292,168,176,-1,292,176,293,-1,293,176,294,-1,294,176,175,-1,294,175,295,-1,174,296,175,-1,175,296,297,-1,175,297,295,-1,165,298,174,-1,174,298,299,-1,174,299,296,-1,300,301,164,-1,164,301,302,-1,164,302,165,-1,165,302,303,-1,165,303,298,-1,300,164,304,-1,304,164,177,-1,304,177,305,-1,305,177,306,-1,306,177,178,-1,306,178,179,-1,306,179,307,-1,307,179,143,-1,307,143,308,-1,308,143,142,-1,308,142,309,-1,309,142,141,-1,309,141,310,-1,310,141,135,-1,310,135,311,-1,311,135,134,-1,311,134,312,-1,312,134,163,-1,312,163,313,-1,313,163,314,-1,314,163,162,-1,314,162,161,-1,314,161,315,-1,315,161,138,-1,315,138,316,-1,316,138,139,-1,316,139,317,-1,317,139,140,-1,317,140,318,-1,318,140,130,-1,318,130,319,-1,319,130,129,-1,319,129,320,-1,320,129,160,-1,320,160,321,-1,321,160,322,-1,322,160,159,-1,322,159,323,-1,323,159,154,-1,324,325,153,-1,153,325,326,-1,153,326,154,-1,154,326,327,-1,154,327,323,-1,324,153,328,-1,328,153,173,-1,328,173,329,-1,329,173,330,-1,330,173,172,-1,330,172,331,-1,331,172,332,-1,332,172,171,-1,332,171,333,-1,158,334,171,-1,171,334,335,-1,171,335,333,-1,157,336,158,-1,158,336,337,-1,158,337,334,-1,338,339,152,-1,152,339,340,-1,152,340,157,-1,157,340,341,-1,157,341,336,-1,338,152,342,-1,342,152,151,-1,342,151,343,-1,343,151,344,-1,344,151,150,-1,344,150,156,-1,344,156,345,-1,345,156,155,-1,345,155,346,-1,346,155,149,-1,346,149,347,-1,347,149,148,-1,347,148,348,-1,348,148,147,-1,348,147,349,-1,349,147,146,-1,349,146,350,-1,350,146,144,-1,350,144,351,-1,351,144,276,-1,276,144,121,-1,352,353,354,-1,355,356,357,-1,358,359,360,-1,355,357,361,-1,354,362,363,-1,364,357,365,-1,365,357,356,-1,365,356,366,-1,367,368,353,-1,369,358,370,-1,370,358,360,-1,370,360,354,-1,354,360,371,-1,354,371,362,-1,363,372,354,-1,354,372,373,-1,354,373,352,-1,353,374,356,-1,356,374,375,-1,356,375,376,-1,368,377,353,-1,353,377,378,-1,353,378,354,-1,359,379,360,-1,360,379,380,-1,360,380,381,-1,381,382,360,-1,360,382,383,-1,360,383,384,-1,376,385,356,-1,356,385,386,-1,356,386,366,-1,387,388,389,-1,390,391,364,-1,364,391,392,-1,364,392,357,-1,393,394,395,-1,356,396,353,-1,353,396,397,-1,353,397,398,-1,399,400,353,-1,353,400,401,-1,353,401,367,-1,387,389,364,-1,364,389,402,-1,364,402,390,-1,357,403,361,-1,361,403,393,-1,361,393,404,-1,404,393,395,-1,369,370,405,-1,405,370,406,-1,405,406,407,-1,407,406,408,-1,407,408,409,-1,398,410,353,-1,353,410,411,-1,353,411,399,-1,412,413,414,-1,415,416,417,-1,418,419,420,-1,420,419,421,-1,419,422,421,-1,421,422,423,-1,421,423,355,-1,355,423,424,-1,355,424,356,-1,417,416,420,-1,420,416,425,-1,420,425,418,-1,414,413,417,-1,417,413,426,-1,417,426,415,-1,427,321,322,-1,322,428,427,-1,427,428,429,-1,427,429,414,-1,414,429,430,-1,414,430,412,-1,324,328,431,-1,329,330,432,-1,335,334,433,-1,337,336,434,-1,341,340,435,-1,428,322,323,-1,436,437,438,-1,439,440,441,-1,442,443,444,-1,444,443,378,-1,378,443,445,-1,378,445,354,-1,442,444,446,-1,446,444,447,-1,446,447,448,-1,441,440,447,-1,447,440,449,-1,447,449,448,-1,438,437,441,-1,441,437,450,-1,441,450,439,-1,338,342,451,-1,451,342,343,-1,343,452,451,-1,451,452,453,-1,451,453,438,-1,438,453,454,-1,438,454,436,-1,429,455,430,-1,430,455,456,-1,430,456,412,-1,412,456,413,-1,413,456,426,-1,426,456,457,-1,426,457,415,-1,418,425,457,-1,457,425,458,-1,457,458,415,-1,418,457,419,-1,419,457,459,-1,419,459,422,-1,422,459,460,-1,422,460,461,-1,461,460,424,-1,424,460,396,-1,424,396,356,-1,399,411,462,-1,462,411,463,-1,462,463,464,-1,464,463,465,-1,464,465,466,-1,466,465,467,-1,466,467,468,-1,468,467,469,-1,468,469,470,-1,470,469,432,-1,397,396,471,-1,471,396,460,-1,471,460,472,-1,472,460,459,-1,472,459,473,-1,473,459,457,-1,473,457,474,-1,474,457,456,-1,474,456,475,-1,475,456,455,-1,339,338,476,-1,476,338,451,-1,476,451,477,-1,477,451,438,-1,477,438,478,-1,478,438,441,-1,478,441,479,-1,479,441,447,-1,479,447,480,-1,480,447,444,-1,480,444,377,-1,377,444,378,-1,377,368,480,-1,480,368,481,-1,480,481,479,-1,479,481,482,-1,479,482,478,-1,478,482,483,-1,478,483,477,-1,477,483,484,-1,477,484,476,-1,476,484,435,-1,476,435,339,-1,339,435,340,-1,336,341,434,-1,434,341,435,-1,434,435,485,-1,485,435,484,-1,485,484,486,-1,486,484,483,-1,486,483,487,-1,487,483,482,-1,487,482,488,-1,488,482,481,-1,488,481,367,-1,367,481,368,-1,367,401,488,-1,488,401,489,-1,488,489,487,-1,487,489,490,-1,487,490,486,-1,486,490,491,-1,486,491,485,-1,485,491,492,-1,485,492,434,-1,434,492,433,-1,434,433,337,-1,337,433,334,-1,333,335,493,-1,493,335,433,-1,493,433,494,-1,494,433,492,-1,494,492,495,-1,495,492,491,-1,495,491,496,-1,496,491,490,-1,496,490,497,-1,497,490,489,-1,497,489,400,-1,400,489,401,-1,400,399,497,-1,497,399,462,-1,497,462,496,-1,496,462,464,-1,496,464,495,-1,495,464,466,-1,495,466,494,-1,494,466,468,-1,494,468,493,-1,493,468,470,-1,493,470,333,-1,333,470,332,-1,432,330,470,-1,470,330,331,-1,470,331,332,-1,328,329,431,-1,431,329,432,-1,431,432,498,-1,498,432,469,-1,498,469,499,-1,499,469,467,-1,499,467,500,-1,500,467,465,-1,500,465,501,-1,501,465,463,-1,501,463,410,-1,410,463,411,-1,325,324,502,-1,502,324,431,-1,502,431,503,-1,503,431,498,-1,503,498,504,-1,504,498,499,-1,504,499,505,-1,505,499,500,-1,505,500,506,-1,506,500,501,-1,506,501,398,-1,398,501,410,-1,398,397,506,-1,506,397,471,-1,506,471,505,-1,505,471,472,-1,505,472,504,-1,504,472,473,-1,504,473,503,-1,503,473,474,-1,503,474,502,-1,502,474,475,-1,502,475,325,-1,325,475,326,-1,429,428,455,-1,455,428,323,-1,455,323,475,-1,475,323,327,-1,475,327,326,-1,321,427,507,-1,427,414,508,-1,414,417,509,-1,417,420,510,-1,420,421,511,-1,421,355,361,-1,421,361,511,-1,511,361,404,-1,511,404,512,-1,512,404,395,-1,512,395,513,-1,513,395,394,-1,513,394,514,-1,514,394,393,-1,514,393,515,-1,515,393,403,-1,515,403,516,-1,516,403,357,-1,516,357,517,-1,420,511,510,-1,510,511,512,-1,510,512,518,-1,518,512,513,-1,518,513,519,-1,519,513,514,-1,519,514,520,-1,520,514,515,-1,520,515,521,-1,521,515,516,-1,521,516,522,-1,522,516,517,-1,522,517,523,-1,417,510,509,-1,509,510,518,-1,509,518,524,-1,524,518,519,-1,524,519,525,-1,525,519,520,-1,525,520,526,-1,526,520,521,-1,526,521,527,-1,527,521,522,-1,527,522,528,-1,528,522,523,-1,528,523,529,-1,414,509,508,-1,508,509,524,-1,508,524,530,-1,530,524,525,-1,530,525,531,-1,531,525,526,-1,531,526,532,-1,532,526,527,-1,532,527,533,-1,533,527,528,-1,533,528,534,-1,534,528,529,-1,534,529,535,-1,427,508,507,-1,507,508,530,-1,507,530,536,-1,536,530,531,-1,536,531,537,-1,537,531,532,-1,537,532,538,-1,538,532,533,-1,538,533,539,-1,539,533,534,-1,539,534,540,-1,540,534,535,-1,540,535,541,-1,321,507,320,-1,320,507,536,-1,320,536,319,-1,319,536,537,-1,319,537,318,-1,318,537,538,-1,318,538,317,-1,317,538,539,-1,317,539,316,-1,316,539,540,-1,316,540,315,-1,315,540,541,-1,315,541,314,-1,343,344,452,-1,452,344,542,-1,437,436,543,-1,543,436,454,-1,543,454,542,-1,542,454,453,-1,542,453,452,-1,437,543,450,-1,450,543,544,-1,450,544,439,-1,545,446,544,-1,544,446,448,-1,448,449,544,-1,544,449,546,-1,544,546,439,-1,547,370,354,-1,354,445,547,-1,547,445,548,-1,547,548,545,-1,545,548,442,-1,545,442,446,-1,357,392,549,-1,357,549,517,-1,517,549,550,-1,517,550,523,-1,523,550,551,-1,523,551,529,-1,529,551,552,-1,529,552,535,-1,535,552,553,-1,535,553,541,-1,541,553,313,-1,541,313,314,-1,351,554,555,-1,554,556,557,-1,556,558,559,-1,558,560,561,-1,560,562,563,-1,562,358,369,-1,562,369,563,-1,563,369,405,-1,563,405,564,-1,564,405,407,-1,564,407,565,-1,565,407,409,-1,565,409,566,-1,566,409,408,-1,566,408,567,-1,567,408,406,-1,567,406,568,-1,568,406,370,-1,568,370,547,-1,560,563,561,-1,561,563,564,-1,561,564,569,-1,569,564,565,-1,569,565,570,-1,570,565,566,-1,570,566,571,-1,571,566,567,-1,571,567,572,-1,572,567,568,-1,572,568,573,-1,573,568,547,-1,573,547,545,-1,558,561,559,-1,559,561,569,-1,559,569,574,-1,574,569,570,-1,574,570,575,-1,575,570,571,-1,575,571,576,-1,576,571,572,-1,576,572,577,-1,577,572,573,-1,577,573,578,-1,578,573,545,-1,578,545,544,-1,556,559,557,-1,557,559,574,-1,557,574,579,-1,579,574,575,-1,579,575,580,-1,580,575,576,-1,580,576,581,-1,581,576,577,-1,581,577,582,-1,582,577,578,-1,582,578,583,-1,583,578,544,-1,583,544,543,-1,554,557,555,-1,555,557,579,-1,555,579,584,-1,584,579,580,-1,584,580,585,-1,585,580,581,-1,585,581,586,-1,586,581,582,-1,586,582,587,-1,587,582,583,-1,587,583,588,-1,588,583,543,-1,588,543,542,-1,351,555,350,-1,350,555,584,-1,350,584,349,-1,349,584,585,-1,349,585,348,-1,348,585,586,-1,348,586,347,-1,347,586,587,-1,347,587,346,-1,346,587,588,-1,346,588,345,-1,345,588,542,-1,345,542,344,-1,313,553,589,-1,553,552,590,-1,552,551,591,-1,551,550,592,-1,550,549,593,-1,549,392,391,-1,549,391,593,-1,593,391,390,-1,593,390,594,-1,594,390,402,-1,594,402,595,-1,595,402,389,-1,595,389,596,-1,596,389,388,-1,596,388,597,-1,597,388,387,-1,597,387,598,-1,598,387,364,-1,598,364,599,-1,550,593,592,-1,592,593,594,-1,592,594,600,-1,600,594,595,-1,600,595,601,-1,601,595,596,-1,601,596,602,-1,602,596,597,-1,602,597,603,-1,603,597,598,-1,603,598,604,-1,604,598,599,-1,604,599,605,-1,551,592,591,-1,591,592,600,-1,591,600,606,-1,606,600,601,-1,606,601,607,-1,607,601,602,-1,607,602,608,-1,608,602,603,-1,608,603,609,-1,609,603,604,-1,609,604,610,-1,610,604,605,-1,610,605,611,-1,552,591,590,-1,590,591,606,-1,590,606,612,-1,612,606,607,-1,612,607,613,-1,613,607,608,-1,613,608,614,-1,614,608,609,-1,614,609,615,-1,615,609,610,-1,615,610,616,-1,616,610,611,-1,616,611,617,-1,553,590,589,-1,589,590,612,-1,589,612,618,-1,618,612,613,-1,618,613,619,-1,619,613,614,-1,619,614,620,-1,620,614,615,-1,620,615,621,-1,621,615,616,-1,621,616,622,-1,622,616,617,-1,622,617,623,-1,313,589,312,-1,312,589,618,-1,312,618,311,-1,311,618,619,-1,311,619,310,-1,310,619,620,-1,310,620,309,-1,309,620,621,-1,309,621,308,-1,308,621,622,-1,308,622,307,-1,307,622,623,-1,307,623,306,-1,359,358,562,-1,359,562,624,-1,624,562,560,-1,624,560,625,-1,625,560,558,-1,625,558,626,-1,626,558,556,-1,626,556,627,-1,627,556,554,-1,627,554,628,-1,628,554,351,-1,628,351,276,-1,629,305,306,-1,629,306,630,-1,630,306,623,-1,630,623,631,-1,631,623,617,-1,631,617,632,-1,632,617,633,-1,633,617,611,-1,633,611,634,-1,605,635,611,-1,611,635,636,-1,611,636,634,-1,637,638,605,-1,605,638,639,-1,605,639,635,-1,599,364,365,-1,365,640,599,-1,599,640,641,-1,599,641,605,-1,605,641,642,-1,605,642,637,-1,283,643,644,-1,643,645,646,-1,645,647,648,-1,647,649,650,-1,649,651,652,-1,651,360,384,-1,651,384,652,-1,652,384,383,-1,652,383,653,-1,653,383,382,-1,653,382,654,-1,654,382,381,-1,654,381,655,-1,655,381,380,-1,655,380,656,-1,656,380,379,-1,656,379,657,-1,657,379,359,-1,657,359,624,-1,649,652,650,-1,650,652,653,-1,650,653,658,-1,658,653,654,-1,658,654,659,-1,659,654,655,-1,659,655,660,-1,660,655,656,-1,660,656,661,-1,661,656,657,-1,661,657,662,-1,662,657,624,-1,662,624,625,-1,647,650,648,-1,648,650,658,-1,648,658,663,-1,663,658,659,-1,663,659,664,-1,664,659,660,-1,664,660,665,-1,665,660,661,-1,665,661,666,-1,666,661,662,-1,666,662,667,-1,667,662,625,-1,667,625,626,-1,645,648,646,-1,646,648,663,-1,646,663,668,-1,668,663,664,-1,668,664,669,-1,669,664,665,-1,669,665,670,-1,670,665,666,-1,670,666,671,-1,671,666,667,-1,671,667,672,-1,672,667,626,-1,672,626,627,-1,643,646,644,-1,644,646,668,-1,644,668,673,-1,673,668,669,-1,673,669,674,-1,674,669,670,-1,674,670,675,-1,675,670,671,-1,675,671,676,-1,676,671,672,-1,676,672,677,-1,677,672,627,-1,677,627,628,-1,283,644,282,-1,282,644,673,-1,282,673,281,-1,281,673,674,-1,281,674,280,-1,280,674,675,-1,280,675,279,-1,279,675,676,-1,279,676,278,-1,278,676,677,-1,278,677,277,-1,277,677,628,-1,277,628,276,-1,286,290,678,-1,291,292,679,-1,297,296,680,-1,299,298,681,-1,303,302,682,-1,632,633,683,-1,684,284,285,-1,685,686,687,-1,687,686,688,-1,689,690,691,-1,691,690,692,-1,691,692,688,-1,688,692,693,-1,688,693,687,-1,689,691,694,-1,694,691,695,-1,694,695,696,-1,697,698,699,-1,699,698,700,-1,699,700,695,-1,695,700,701,-1,695,701,696,-1,697,699,702,-1,702,699,362,-1,702,362,371,-1,637,703,704,-1,704,703,705,-1,704,705,639,-1,637,642,703,-1,703,642,706,-1,703,706,366,-1,366,706,640,-1,366,640,365,-1,683,633,707,-1,633,634,707,-1,707,634,708,-1,707,708,705,-1,705,708,635,-1,705,635,639,-1,300,304,709,-1,709,304,305,-1,305,629,709,-1,709,629,630,-1,709,630,683,-1,683,630,631,-1,683,631,632,-1,353,352,710,-1,710,352,711,-1,710,711,712,-1,712,711,713,-1,712,713,714,-1,714,713,715,-1,714,715,716,-1,716,715,717,-1,716,717,718,-1,718,717,679,-1,363,362,719,-1,719,362,699,-1,719,699,720,-1,720,699,695,-1,720,695,721,-1,721,695,691,-1,721,691,722,-1,722,691,688,-1,722,688,723,-1,723,688,686,-1,301,300,724,-1,724,300,709,-1,724,709,725,-1,725,709,683,-1,725,683,726,-1,726,683,707,-1,726,707,727,-1,727,707,705,-1,727,705,728,-1,728,705,703,-1,728,703,386,-1,386,703,366,-1,386,385,728,-1,728,385,729,-1,728,729,727,-1,727,729,730,-1,727,730,726,-1,726,730,731,-1,726,731,725,-1,725,731,732,-1,725,732,724,-1,724,732,682,-1,724,682,301,-1,301,682,302,-1,298,303,681,-1,681,303,682,-1,681,682,733,-1,733,682,732,-1,733,732,734,-1,734,732,731,-1,734,731,735,-1,735,731,730,-1,735,730,736,-1,736,730,729,-1,736,729,376,-1,376,729,385,-1,376,375,736,-1,736,375,737,-1,736,737,735,-1,735,737,738,-1,735,738,734,-1,734,738,739,-1,734,739,733,-1,733,739,740,-1,733,740,681,-1,681,740,680,-1,681,680,299,-1,299,680,296,-1,295,297,741,-1,741,297,680,-1,741,680,742,-1,742,680,740,-1,742,740,743,-1,743,740,739,-1,743,739,744,-1,744,739,738,-1,744,738,745,-1,745,738,737,-1,745,737,374,-1,374,737,375,-1,374,353,745,-1,745,353,710,-1,745,710,744,-1,744,710,712,-1,744,712,743,-1,743,712,714,-1,743,714,742,-1,742,714,716,-1,742,716,741,-1,741,716,718,-1,741,718,295,-1,295,718,294,-1,679,292,718,-1,718,292,293,-1,718,293,294,-1,290,291,678,-1,678,291,679,-1,678,679,746,-1,746,679,717,-1,746,717,747,-1,747,717,715,-1,747,715,748,-1,748,715,713,-1,748,713,749,-1,749,713,711,-1,749,711,373,-1,373,711,352,-1,287,286,750,-1,750,286,678,-1,750,678,751,-1,751,678,746,-1,751,746,752,-1,752,746,747,-1,752,747,753,-1,753,747,748,-1,753,748,754,-1,754,748,749,-1,754,749,372,-1,372,749,373,-1,372,363,754,-1,754,363,719,-1,754,719,753,-1,753,719,720,-1,753,720,752,-1,752,720,721,-1,752,721,751,-1,751,721,722,-1,751,722,750,-1,750,722,723,-1,750,723,287,-1,287,723,288,-1,685,684,686,-1,686,684,285,-1,686,285,723,-1,723,285,289,-1,723,289,288,-1,690,755,647,-1,696,756,649,-1,698,757,651,-1,651,757,360,-1,360,757,702,-1,360,702,371,-1,649,756,651,-1,651,756,700,-1,651,700,698,-1,647,755,649,-1,649,755,694,-1,649,694,696,-1,645,693,647,-1,647,693,692,-1,647,692,690,-1,643,283,284,-1,284,684,643,-1,643,684,685,-1,643,685,645,-1,645,685,687,-1,645,687,693,-1,
        ]
    }
}
Shape{
    appearance Appearance {
        material  Material 	{
            diffuseColor 0.7764705882352941 0.7568627450980392 0.7372549019607844
            specularColor 0.38823529411764707 0.3764705882352941 0.3686274509803922
            ambientIntensity 0.7605
            transparency 0.0
            shininess 0.5
        }
    }
    geometry IndexedFaceSet {
        ccw TRUE
        solid FALSE
        coord DEF co Coordinate {
            point [
                0.1265 -0.0221 0.0, 0.1265 -0.0221 0.0039, 0.119 -0.0 0.0, 0.119 -0.0 0.0039, 0.159 -0.0221 0.0, 0.159 -0.0221 0.0039, 0.167 -0.0 0.0, 0.167 -0.0 0.0039, 0.1785 -0.0 0.0, 0.1785 -0.0 0.0039, 0.1478 -0.0787 0.0, 0.1478 -0.0787 0.0039, 0.1372 -0.0787 0.0, 0.1372 -0.0787 0.0039, 0.1075 -0.0 0.0, 0.1075 -0.0 0.0039, 0.1292 -0.0307 0.0039, 0.1409 -0.0636 0.0039, 0.1417 -0.0663 0.0039, 0.1422 -0.0691 0.0039, 0.143 -0.0664 0.0039, 0.1555 -0.0307 0.0039, 0.1436 -0.0636 0.0039, 0.1292 -0.0307 0.0, 0.1409 -0.0636 0.0, 0.1555 -0.0307 0.0, 0.1436 -0.0636 0.0, 0.143 -0.0664 0.0, 0.1422 -0.0691 0.0, 0.1417 -0.0663 0.0, 0.0383 -0.0 0.0, 0.0383 -0.0 0.0039, 0.0383 -0.0787 0.0, 0.0383 -0.0787 0.0039, 0.0597 -0.0 0.0, 0.0597 -0.0 0.0039, 0.1017 -0.0404 0.0, 0.1017 -0.0404 0.0039, 0.1005 -0.0357 0.0039, 0.1005 -0.0357 0.0, 0.0943 -0.018 0.0039, 0.0943 -0.018 0.0, 0.0901 -0.0115 0.0039, 0.0901 -0.0115 0.0, 0.0859 -0.0077 0.0039, 0.0859 -0.0077 0.0, 0.0805 -0.0047 0.0039, 0.0805 -0.0047 0.0, 0.0725 -0.0022 0.0039, 0.0725 -0.0022 0.0, 0.0606 -0.0787 0.0, 0.0606 -0.0787 0.0039, 0.0661 -0.0776 0.0039, 0.0661 -0.0776 0.0, 0.0829 -0.0727 0.0039, 0.0829 -0.0727 0.0, 0.0893 -0.0689 0.0039, 0.0893 -0.0689 0.0, 0.0931 -0.0651 0.0039, 0.0931 -0.0651 0.0, 0.0962 -0.06 0.0039, 0.0962 -0.06 0.0, 0.099 -0.0524 0.0039, 0.099 -0.0524 0.0, 0.0756 -0.067 0.0039, 0.0796 -0.065 0.0039, 0.0824 -0.0626 0.0039, 0.0853 -0.0586 0.0039, 0.0885 -0.0508 0.0039, 0.0911 -0.0401 0.0039, 0.0897 -0.0307 0.0039, 0.088 -0.0246 0.0039, 0.0859 -0.0205 0.0039, 0.0833 -0.0175 0.0039, 0.0792 -0.0146 0.0039, 0.0711 -0.0113 0.0039, 0.0697 -0.0687 0.0039, 0.0605 -0.0701 0.0039, 0.0489 -0.0701 0.0039, 0.0489 -0.0086 0.0039, 0.0601 -0.0086 0.0039, 0.0911 -0.0401 0.0, 0.0885 -0.0508 0.0, 0.0853 -0.0586 0.0, 0.0824 -0.0626 0.0, 0.0796 -0.065 0.0, 0.0756 -0.067 0.0, 0.0697 -0.0687 0.0, 0.0605 -0.0701 0.0, 0.0489 -0.0701 0.0, 0.0489 -0.0086 0.0, 0.0601 -0.0086 0.0, 0.0711 -0.0113 0.0, 0.0792 -0.0146 0.0, 0.0833 -0.0175 0.0, 0.0859 -0.0205 0.0, 0.088 -0.0246 0.0, 0.0897 -0.0307 0.0, 0.0191 -0.0442 0.0, 0.0191 -0.0442 0.0039, 0.0191 -0.0355 0.0, 0.0191 -0.0355 0.0039, -0.0087 -0.0442 0.0, -0.0087 -0.0442 0.0039, -0.0087 -0.0701 0.0, -0.0087 -0.0701 0.0039, 0.021 -0.0701 0.0, 0.021 -0.0701 0.0039, 0.021 -0.0787 0.0, 0.021 -0.0787 0.0039, -0.0193 -0.0787 0.0, -0.0193 -0.0787 0.0039, -0.0193 -0.0 0.0, -0.0193 -0.0 0.0039, 0.023 -0.0 0.0, 0.023 -0.0 0.0039
            ]
        }
        coordIndex [
            0,1,2,-1,2,1,3,-1,4,5,0,-1,0,5,1,-1,6,7,4,-1,4,7,5,-1,8,9,6,-1,6,9,7,-1,10,11,8,-1,8,11,9,-1,12,13,10,-1,10,13,11,-1,14,15,12,-1,12,15,13,-1,14,2,15,-1,15,2,3,-1,16,17,13,-1,17,18,13,-1,13,18,19,-1,13,19,11,-1,11,19,20,-1,15,3,1,-1,13,15,16,-1,16,15,1,-1,16,1,21,-1,21,1,5,-1,20,22,11,-1,11,22,21,-1,11,21,9,-1,9,21,5,-1,9,5,7,-1,16,23,17,-1,17,23,24,-1,21,25,16,-1,16,25,23,-1,22,26,21,-1,21,26,25,-1,26,22,20,-1,26,20,27,-1,27,20,19,-1,27,19,28,-1,28,19,18,-1,28,18,29,-1,29,18,17,-1,29,17,24,-1,30,31,32,-1,32,31,33,-1,34,35,30,-1,30,35,31,-1,36,37,38,-1,36,38,39,-1,39,38,40,-1,39,40,41,-1,41,40,42,-1,41,42,43,-1,43,42,44,-1,43,44,45,-1,45,44,46,-1,45,46,47,-1,47,46,48,-1,47,48,49,-1,49,48,35,-1,49,35,34,-1,50,51,52,-1,50,52,53,-1,53,52,54,-1,53,54,55,-1,55,54,56,-1,55,56,57,-1,57,56,58,-1,57,58,59,-1,59,58,60,-1,59,60,61,-1,61,60,62,-1,61,62,63,-1,63,62,37,-1,63,37,36,-1,50,32,51,-1,51,32,33,-1,64,65,54,-1,54,65,56,-1,56,65,66,-1,56,66,58,-1,58,66,67,-1,58,67,60,-1,60,67,68,-1,60,68,62,-1,62,68,37,-1,37,68,69,-1,37,69,38,-1,38,69,70,-1,38,70,40,-1,70,71,40,-1,40,71,72,-1,40,72,42,-1,42,72,73,-1,42,73,44,-1,44,73,74,-1,44,74,46,-1,46,74,75,-1,64,54,76,-1,76,54,52,-1,76,52,77,-1,77,52,51,-1,77,51,78,-1,78,51,33,-1,78,33,79,-1,79,33,31,-1,79,31,80,-1,80,31,35,-1,80,35,75,-1,75,35,48,-1,75,48,46,-1,81,69,68,-1,81,68,82,-1,82,68,67,-1,82,67,83,-1,83,67,66,-1,83,66,84,-1,84,66,65,-1,84,65,85,-1,85,65,64,-1,85,64,86,-1,86,64,76,-1,86,76,87,-1,87,76,77,-1,87,77,88,-1,78,89,77,-1,77,89,88,-1,79,90,78,-1,78,90,89,-1,80,91,79,-1,79,91,90,-1,91,80,75,-1,91,75,92,-1,92,75,74,-1,92,74,93,-1,93,74,73,-1,93,73,94,-1,94,73,72,-1,94,72,95,-1,95,72,71,-1,95,71,96,-1,96,71,70,-1,96,70,97,-1,97,70,69,-1,97,69,81,-1,98,99,100,-1,100,99,101,-1,102,103,98,-1,98,103,99,-1,104,105,102,-1,102,105,103,-1,106,107,104,-1,104,107,105,-1,108,109,106,-1,106,109,107,-1,110,111,108,-1,108,111,109,-1,112,113,110,-1,110,113,111,-1,114,115,112,-1,112,115,113,-1,
        ]
    }
}
Shape{
    appearance Appearance {
        material  Material 	{
            diffuseColor 1.0 1.0 1.0
            specularColor 0.8784313725490196 0.8784313725490196 0.8784313725490196
            ambientIntensity 1.0
            transparency 0.0
            shininess 0.5
        }
    }
    geometry IndexedFaceSet {
        ccw TRUE
        solid FALSE
        coord DEF co Coordinate {
            point [
                0.023 -0.0086 0.0, 0.023 -0.0086 0.0039, 0.023 -0.0 0.0, 0.023 -0.0 0.0039
            ]
        }
        coordIndex [
            0,1,2,-1,2,1,3,-1,
        ]
    }
}
Shape{
    appearance Appearance {
        material  Material 	{
            diffuseColor 0.7764705882352941 0.7568627450980392 0.7372549019607844
            specularColor 0.38823529411764707 0.3764705882352941 0.3686274509803922
            ambientIntensity 0.7605
            transparency 0.0
            shininess 0.5
        }
    }
    geometry IndexedFaceSet {
        ccw TRUE
        solid FALSE
        coord DEF co Coordinate {
            point [
                -0.0087 -0.0086 0.0, -0.0087 -0.0086 0.0039, 0.023 -0.0086 0.0, 0.023 -0.0086 0.0039
            ]
        }
        coordIndex [
            0,1,2,-1,2,1,3,-1,
        ]
    }
}
Shape{
    appearance Appearance {
        material  Material 	{
            diffuseColor 1.0 1.0 1.0
            specularColor 0.8784313725490196 0.8784313725490196 0.8784313725490196
            ambientIntensity 1.0
            transparency 0.0
            shininess 0.5
        }
    }
    geometry IndexedFaceSet {
        ccw TRUE
        solid FALSE
        coord DEF co Coordinate {
            point [
                -0.0087 -0.0355 0.0, -0.0087 -0.0355 0.0039, -0.0087 -0.0086 0.0, -0.0087 -0.0086 0.0039, 0.0191 -0.0355 0.0, 0.0191 -0.0355 0.0039, 0.023 -0.0 0.0039, 0.023 -0.0086 0.0039, -0.0193 -0.0 0.0039, 0.0191 -0.0442 0.0039, -0.0087 -0.0442 0.0039, 0.021 -0.0701 0.0039, 0.021 -0.0787 0.0039, -0.0087 -0.0701 0.0039, -0.0193 -0.0787 0.0039, -0.0346 -0.066 0.0, -0.0346 -0.066 0.0039, -0.0435 -0.0698 0.0039, -0.0435 -0.0698 0.0, -0.0531 -0.0711 0.0039, -0.0531 -0.0711 0.0, -0.0346 -0.0766 0.0, -0.0346 -0.0766 0.0039, -0.0532 -0.0797 0.0, -0.0532 -0.0797 0.0039, -0.0461 -0.0792 0.0, -0.0437 -0.0791 0.0039, -0.0437 -0.0791 0.0, -0.0932 -0.0379 0.0, -0.0932 -0.0379 0.0039, -0.0923 -0.0424 0.0039, -0.0923 -0.0424 0.0, -0.0868 -0.0604 0.0039, -0.0868 -0.0604 0.0, -0.0828 -0.0671 0.0039, -0.0828 -0.0671 0.0, -0.0788 -0.071 0.0039, -0.0788 -0.071 0.0, -0.0735 -0.0742 0.0039, -0.0735 -0.0742 0.0, -0.0657 -0.077 0.0039, -0.0657 -0.077 0.0, -0.0554 -0.0792 0.0, -0.0563 0.001 0.0, -0.0563 0.001 0.0039, -0.0624 -0.0006 0.0039, -0.0624 -0.0006 0.0, -0.0774 -0.0061 0.0039, -0.0774 -0.0061 0.0, -0.0831 -0.01 0.0039, -0.0831 -0.01 0.0, -0.0865 -0.0138 0.0039, -0.0865 -0.0138 0.0, -0.0892 -0.0188 0.0039, -0.0892 -0.0188 0.0, -0.0913 -0.0262 0.0039, -0.0913 -0.0262 0.0, -0.0346 -0.0041 0.0, -0.0346 -0.0041 0.0039, -0.0452 -0.0002 0.0039, -0.0452 -0.0002 0.0, -0.0346 -0.0127 0.0, -0.0346 -0.0127 0.0039, -0.0549 -0.0077 0.0, -0.0549 -0.0077 0.0039, -0.0444 -0.0088 0.0039, -0.0444 -0.0088 0.0, -0.0827 -0.0385 0.0, -0.0827 -0.0385 0.0039, -0.0808 -0.029 0.0039, -0.0808 -0.029 0.0, -0.078 -0.0207 0.0039, -0.078 -0.0207 0.0, -0.0754 -0.0165 0.0039, -0.0754 -0.0165 0.0, -0.0729 -0.0141 0.0039, -0.0729 -0.0141 0.0, -0.0692 -0.0118 0.0039, -0.0692 -0.0118 0.0, -0.0637 -0.0097 0.0039, -0.0637 -0.0097 0.0, -0.057 -0.0699 0.0039, -0.057 -0.0699 0.0, -0.0699 -0.065 0.0039, -0.0699 -0.065 0.0, -0.0747 -0.0617 0.0039, -0.0747 -0.0617 0.0, -0.0774 -0.0584 0.0039, -0.0774 -0.0584 0.0, -0.0796 -0.0543 0.0039, -0.0796 -0.0543 0.0, -0.0813 -0.0482 0.0039, -0.0813 -0.0482 0.0
            ]
        }
        coordIndex [
            0,1,2,-1,2,1,3,-1,0,4,1,-1,1,4,5,-1,6,7,8,-1,8,7,3,-1,5,9,1,-1,1,9,10,-1,11,12,13,-1,13,12,14,-1,13,14,10,-1,10,14,8,-1,10,8,1,-1,1,8,3,-1,15,16,17,-1,15,17,18,-1,18,17,19,-1,18,19,20,-1,21,22,15,-1,15,22,16,-1,23,24,25,-1,25,24,26,-1,25,26,27,-1,27,26,22,-1,27,22,21,-1,28,29,30,-1,28,30,31,-1,31,30,32,-1,31,32,33,-1,33,32,34,-1,33,34,35,-1,35,34,36,-1,35,36,37,-1,37,36,38,-1,37,38,39,-1,39,38,40,-1,39,40,41,-1,41,40,42,-1,42,40,24,-1,42,24,23,-1,43,44,45,-1,43,45,46,-1,46,45,47,-1,46,47,48,-1,48,47,49,-1,48,49,50,-1,50,49,51,-1,50,51,52,-1,52,51,53,-1,52,53,54,-1,54,53,55,-1,54,55,56,-1,56,55,29,-1,56,29,28,-1,57,58,59,-1,57,59,60,-1,60,59,44,-1,60,44,43,-1,61,62,57,-1,57,62,58,-1,63,64,65,-1,63,65,66,-1,66,65,62,-1,66,62,61,-1,67,68,69,-1,67,69,70,-1,70,69,71,-1,70,71,72,-1,72,71,73,-1,72,73,74,-1,74,73,75,-1,74,75,76,-1,76,75,77,-1,76,77,78,-1,78,77,79,-1,78,79,80,-1,80,79,64,-1,80,64,63,-1,20,19,81,-1,20,81,82,-1,82,81,83,-1,82,83,84,-1,84,83,85,-1,84,85,86,-1,86,85,87,-1,86,87,88,-1,88,87,89,-1,88,89,90,-1,90,89,91,-1,90,91,92,-1,92,91,68,-1,92,68,67,-1,
        ]
    }
}
Shape{
    appearance Appearance {
        material  Material 	{
            diffuseColor 0.7764705882352941 0.7568627450980392 0.7372549019607844
            specularColor 0.38823529411764707 0.3764705882352941 0.3686274509803922
            ambientIntensity 0.7605
            transparency 0.0
            shininess 0.5
        }
    }
    geometry IndexedFaceSet {
        ccw TRUE
        solid FALSE
        coord DEF co Coordinate {
            point [
                -0.0346 -0.066 0.0039, -0.0346 -0.0766 0.0039, -0.0435 -0.0698 0.0039, -0.0437 -0.0791 0.0039, -0.0531 -0.0711 0.0039, -0.0532 -0.0797 0.0039, -0.057 -0.0699 0.0039, -0.0657 -0.077 0.0039, -0.0699 -0.065 0.0039, -0.0808 -0.029 0.0039, -0.0892 -0.0188 0.0039, -0.078 -0.0207 0.0039, -0.0865 -0.0138 0.0039, -0.0754 -0.0165 0.0039, -0.0831 -0.01 0.0039, -0.0729 -0.0141 0.0039, -0.0774 -0.0061 0.0039, -0.0735 -0.0742 0.0039, -0.0788 -0.071 0.0039, -0.0747 -0.0617 0.0039, -0.0828 -0.0671 0.0039, -0.0774 -0.0584 0.0039, -0.0868 -0.0604 0.0039, -0.0796 -0.0543 0.0039, -0.0346 -0.0041 0.0039, -0.0346 -0.0127 0.0039, -0.0452 -0.0002 0.0039, -0.0444 -0.0088 0.0039, -0.0563 0.001 0.0039, -0.0549 -0.0077 0.0039, -0.0624 -0.0006 0.0039, -0.0637 -0.0097 0.0039, -0.0692 -0.0118 0.0039, -0.0813 -0.0482 0.0039, -0.0923 -0.0424 0.0039, -0.0827 -0.0385 0.0039, -0.0932 -0.0379 0.0039, -0.0913 -0.0262 0.0039
            ]
        }
        coordIndex [
            0,1,2,-1,2,1,3,-1,2,3,4,-1,4,3,5,-1,4,5,6,-1,6,5,7,-1,6,7,8,-1,9,10,11,-1,11,10,12,-1,11,12,13,-1,13,12,14,-1,13,14,15,-1,15,14,16,-1,7,17,8,-1,8,17,18,-1,8,18,19,-1,19,18,20,-1,19,20,21,-1,21,20,22,-1,21,22,23,-1,24,25,26,-1,26,25,27,-1,26,27,28,-1,28,27,29,-1,28,29,30,-1,30,29,31,-1,30,31,16,-1,16,31,32,-1,16,32,15,-1,23,22,33,-1,33,22,34,-1,33,34,35,-1,35,34,36,-1,35,36,9,-1,9,36,37,-1,9,37,10,-1,
        ]
    }
}
Shape{
    appearance Appearance {
        material  Material 	{
            diffuseColor 1.0 1.0 1.0
            specularColor 0.8784313725490196 0.8784313725490196 0.8784313725490196
            ambientIntensity 1.0
            transparency 0.0
            shininess 0.5
        }
    }
    geometry IndexedFaceSet {
        ccw TRUE
        solid FALSE
        coord DEF co Coordinate {
            point [
                -0.1403 -0.0 0.0, -0.1403 -0.0 0.0039, -0.1403 -0.0787 0.0, -0.1403 -0.0787 0.0039, -0.0999 -0.0 0.0, -0.0999 -0.0 0.0039, -0.0999 -0.0086 0.0, -0.0999 -0.0086 0.0039, -0.1297 -0.0086 0.0, -0.1297 -0.0086 0.0039, -0.1297 -0.0787 0.0, -0.1297 -0.0787 0.0039
            ]
        }
        coordIndex [
            0,1,2,-1,2,1,3,-1,4,5,0,-1,0,5,1,-1,6,7,4,-1,4,7,5,-1,8,9,6,-1,6,9,7,-1,10,11,8,-1,8,11,9,-1,10,2,11,-1,11,2,3,-1,11,3,9,-1,9,3,1,-1,9,1,7,-1,7,1,5,-1,
        ]
    }
}
Shape{
    appearance Appearance {
        material  Material 	{
            diffuseColor 0.10980392156862745 0.10980392156862745 0.10980392156862745
            specularColor 0.0784313725490196 0.0784313725490196 0.0784313725490196
            ambientIntensity 0.1098
            transparency 0.0
            shininess 0.5
        }
    }
    geometry IndexedFaceSet {
        ccw TRUE
        solid FALSE
        coord DEF co Coordinate {
            point [
                0.1292 -0.0307 0.0, 0.1555 -0.0307 0.0, 0.1409 -0.0636 0.0, 0.1436 -0.0636 0.0, 0.1417 -0.0663 0.0, 0.143 -0.0664 0.0, 0.1422 -0.0691 0.0, 0.0605 -0.0701 0.0, 0.0489 -0.0701 0.0, 0.0897 -0.0307 0.0, 0.088 -0.0246 0.0, 0.0756 -0.067 0.0, 0.0697 -0.0687 0.0, 0.0885 -0.0508 0.0, 0.0911 -0.0401 0.0, 0.0489 -0.0086 0.0, 0.0601 -0.0086 0.0, 0.0711 -0.0113 0.0, 0.0792 -0.0146 0.0, 0.0833 -0.0175 0.0, 0.0859 -0.0205 0.0, 0.0796 -0.065 0.0, 0.0853 -0.0586 0.0, 0.0824 -0.0626 0.0
            ]
        }
        coordIndex [
            0,1,2,-1,2,1,3,-1,2,3,4,-1,4,3,5,-1,4,5,6,-1,7,8,9,-1,9,8,10,-1,11,12,13,-1,7,9,12,-1,12,9,14,-1,12,14,13,-1,15,16,8,-1,8,16,17,-1,8,17,18,-1,18,19,8,-1,8,19,20,-1,8,20,10,-1,11,13,21,-1,21,13,22,-1,21,22,23,-1,
        ]
    }
}